<mxfile host="app.diagrams.net" agent="Mozilla/5.0 (Macintosh; Intel Mac OS X 10_15_7) AppleWebKit/537.36 (KHTML, like Gecko) Chrome/133.0.0.0 Safari/537.36" version="26.0.16">
  <diagram name="Page-1" id="bfe91b75-5d2c-26a0-9c1d-138518896778">
    <mxGraphModel dx="322" dy="687" grid="0" gridSize="10" guides="1" tooltips="1" connect="1" arrows="1" fold="1" page="0" pageScale="1" pageWidth="1100" pageHeight="850" background="none" math="0" shadow="0">
      <root>
        <mxCell id="0" />
        <mxCell id="1" parent="0" />
        <mxCell id="LJJ_0mSZEH9ZChrVbTYg-22" value="Corporate data center" style="points=[[0,0],[0.25,0],[0.5,0],[0.75,0],[1,0],[1,0.25],[1,0.5],[1,0.75],[1,1],[0.75,1],[0.5,1],[0.25,1],[0,1],[0,0.75],[0,0.5],[0,0.25]];outlineConnect=0;html=1;whiteSpace=wrap;fontSize=12;fontStyle=1;container=1;pointerEvents=0;collapsible=0;recursiveResize=0;shape=mxgraph.aws4.group;grIcon=mxgraph.aws4.group_corporate_data_center;verticalAlign=top;align=left;spacingLeft=30;dashed=0;" vertex="1" parent="1">
          <mxGeometry x="1225" y="82" width="542" height="436" as="geometry" />
        </mxCell>
        <mxCell id="LJJ_0mSZEH9ZChrVbTYg-14" value="Apache Web Server 1" style="shape=image;verticalLabelPosition=bottom;labelBackgroundColor=none;verticalAlign=top;aspect=fixed;imageAspect=0;image=data:image/png,iVBORw0KGgoAAAANSUhEUgAAAgAAAAIACAYAAAD0eNT6AAAAAXNSR0IArs4c6QAAAERlWElmTU0AKgAAAAgAAYdpAAQAAAABAAAAGgAAAAAAA6ABAAMAAAABAAEAAKACAAQAAAABAAACAKADAAQAAAABAAACAAAAAAAL+LWFAAAfyUlEQVR4Ae3Z34um5XkH8PudmewP110NSV3a+iMEfxBDD6LUgCAU0pPgmWChxy30oEcWg8lpjgSTs/Yk9g8ogkc5CTQ5KJYEa5IWbCs6NGTVIm6QLPvDcSfOvH1G68lmb8Zx7ud+rvu+PwvDO/M873td1/25HtmvO6v01PPr5A8BAmMKbL8z5rmdmgCBtMGAAAECBAgQGE9AABhv505MgAABAgT8C4BngAABAgQIjCjgXwBG3LozEyBAgMDwAgLA8I8AAAIECBAYUUAAGHHrzkyAAAECwwsIAMM/AgAIECBAYEQBAWDErTszAQIECAwvIAAM/wgAIECAAIERBQSAEbfuzAQIECAwvIAAMPwjAIAAAQIERhQQAEbcujMTIECAwPACAsDwjwAAAgQIEBhRQAAYcevOTIAAAQLDCwgAwz8CAAgQIEBgRAEBYMStOzMBAgQIDC8gAAz/CAAgQIAAgREFBIARt+7MBAgQIDC8gAAw/CMAgAABAgRGFBAARty6MxMgQIDA8AICwPCPAAACBAgQGFFAABhx685MgAABAsMLCADDPwIACBAgQGBEAQFgxK07MwECBAgMLyAADP8IACBAgACBEQUEgBG37swECBAgMLyAADD8IwCAAAECBEYUEABG3LozEyBAgMDwAgLA8I8AAAIECBAYUUAAGHHrzkyAAAECwwsIAMM/AgAIECBAYEQBAWDErTszAQIECAwvIAAM/wgAIECAAIERBQSAEbfuzAQIECAwvIAAMPwjAIAAAQIERhQQAEbcujMTIECAwPACAsDwjwAAAgQIEBhRQAAYcevOTIAAAQLDCwgAwz8CAAgQIEBgRAEBYMStOzMBAgQIDC8gAAz/CAAgQIAAgREFBIARt+7MBAgQIDC8gAAw/CMAgAABAgRGFBAARty6MxMgQIDA8AICwPCPAAACBAgQGFFAABhx685MgAABAsMLCADDPwIACBAgQGBEga3WD715apVOn9+sfoy9nf20c3G/et8bG95728X0pXPv3Xh59p+3L92RLlz5wux9DmvwyP61dG69d9jbit9/eeNMurKq/9wVP4iCzQtsbG2kU+dvqX6O/d/tpw8uvl+9740N7z57Nd3/+d/eeHn2ny9cPpu2L90+e585GzQfAA7+8v/yk6fmNLpp7atv7qVfvbBz03s1L/71V19Kzzz0o5otP+r1nZ89kZ79xTer972x4T/sXkgP71278fLsPz9y+sH089WZ2ftoQOAwgc/dfir90eP3Hva24vevv7eT3nrx9eJ1j1rwL+7bTs899tOjfuzY7//+L7+Wnn7p0WPXWbKAXwEsqa83AQIECBBYSEAAWAheWwIECBAgsKSAALCkvt4ECBAgQGAhAQFgIXhtCRAgQIDAkgICwJL6ehMgQIAAgYUEBICF4LUlQIAAAQJLCggAS+rrTYAAAQIEFhIQABaC15YAAQIECCwpIAAsqa83AQIECBBYSEAAWAheWwIECBAgsKSAALCkvt4ECBAgQGAhAQFgIXhtCRAgQIDAkgICwJL6ehMgQIAAgYUEBICF4LUlQIAAAQJLCggAS+rrTYAAAQIEFhIQABaC15YAAQIECCwpIAAsqa83AQIECBBYSEAAWAheWwIECBAgsKSAALCkvt4ECBAgQGAhAQFgIXhtCRAgQIDAkgICwJL6ehMgQIAAgYUEBICF4LUlQIAAAQJLCggAS+rrTYAAAQIEFhIQABaC15YAAQIECCwpIAAsqa83AQIECBBYSEAAWAheWwIECBAgsKSAALCkvt4ECBAgQGAhAQFgIXhtCRAgQIDAkgJbSzYv0XtvZz9dfXOvRKkj1dh5t37Pmw24fel8+snbX7nZrVmv/fryF2et/2mLv7xxJl1Km5/27cXed3mBnsWGV6grgf3dD9PO/16pfqbdy7vVe96s4YUr59JP3rrzZrdmvfbGpdtmrV+j+Co99fy6RiM9CBAIKLD9TsChjESAQA0BvwKooawHAQIECBAIJiAABFuIcQgQIECAQA0BAaCGsh4ECBAgQCCYgAAQbCHGIUCAAAECNQQEgBrKehAgQIAAgWACAkCwhRiHAAECBAjUEBAAaijrQYAAAQIEggkIAMEWYhwCBAgQIFBDQACooawHAQIECBAIJiAABFuIcQgQIECAQA0BAaCGsh4ECBAgQCCYgAAQbCHGIUCAAAECNQQEgBrKehAgQIAAgWACAkCwhRiHAAECBAjUEBAAaijrQYAAAQIEggkIAMEWYhwCBAgQIFBDQACooawHAQIECBAIJiAABFuIcQgQIECAQA0BAaCGsh4ECBAgQCCYgAAQbCHGIUCAAAECNQQEgBrKehAgQIAAgWACAkCwhRiHAAECBAjUEBAAaijrQYAAAQIEggkIAMEWYhwCBAgQIFBDQACooawHAQIECBAIJiAABFuIcQgQIECAQA0BAaCGsh4ECBAgQCCYgAAQbCHGIUCAAAECNQQEgBrKehAgQIAAgWACAkCwhRiHAAECBAjUEBAAaijrQYAAAQIEggkIAMEWYhwCBAgQIFBDQACooawHAQIECBAIJiAABFuIcQgQIECAQA0BAaCGsh4ECBAgQCCYgAAQbCHGIUCAAAECNQQEgBrKehAgQIAAgWACAkCwhRiHAAECBAjUEBAAaijrQYAAAQIEggkIAMEWYhwCBAgQIFBDQACooawHAQIECBAIJiAABFuIcQgQIECAQA0BAaCGsh4ECBAgQCCYgAAQbCHGIUCAAAECNQQEgBrKehAgQIAAgWACAkCwhRiHAAECBAjUEBAAaijrQYAAAQIEgglspdX628FmqjfOzu4D6fqHD04NT6T1+sT0enJ6PZ3Wq4OfT370c/rotd5MOhGoKfDu2ymtazbUi0BNgdX1tDF9pXQ9rVa709dOStPrwbVV2k0nT7+Wzpx9veZEkXqtIg1TfZbHv/vc9BA8Xb2vhgSiCLz6SpRJzEFgCYHvpQs//NYSjSP09CuACFswAwECBAgQqCwgAFQG144AAQIECEQQEAAibMEMBAgQIECgsoAAUBlcOwIECBAgEEFAAIiwBTMQIECAAIHKAgJAZXDtCBAgQIBABAEBIMIWzECAAAECBCoLCACVwbUjQIAAAQIRBASACFswAwECBAgQqCwgAFQG144AAQIECEQQEAAibMEMBAgQIECgsoAAUBlcOwIECBAgEEFAAIiwBTMQIECAAIHKAgJAZXDtCBAgQIBABAEBIMIWzECAAAECBCoLCACVwbUjQIAAAQIRBASACFswAwECBAgQqCwgAFQG144AAQIECEQQEAAibMEMBAgQIECgsoAAUBlcOwIECBAgEEFAAIiwBTMQIECAAIHKAgJAZXDtCBAgQIBABAEBIMIWzECAAAECBCoLCACVwbUjQIAAAQIRBASACFswAwECBAgQqCwgAFQG144AAQIECEQQEAAibMEMBAgQIECgsoAAUBlcOwIECBAgEEFAAIiwBTMQIECAAIHKAgJAZXDtCBAgQIBABAEBIMIWzECAAAECBCoLCACVwbUjQIAAAQIRBASACFswAwECBAgQqCwgAFQG144AAQIECEQQEAAibMEMBAgQIECgsoAAUBlcOwIECBAgEEFAAIiwBTMQIECAAIHKAgJAZXDtCBAgQIBABAEBIMIWzECAAAECBCoLCACVwbUjQIAAAQIRBASACFswAwECBAgQqCwgAFQG144AAQIECEQQEAAibMEMBAgQIECgsoAAUBlcOwIECBAgEEFAAIiwBTMQIECAAIHKAgJAZXDtCBAgQIBABAEBIMIWzECAAAECBCoLCACVwbUjQIAAAQIRBASACFswAwECBAgQqCwgAFQG144AAQIECEQQEAAibMEMBAgQIECgsoAAUBlcOwIECBAgEEFAAIiwBTMQIECAAIHKAgJAZXDtCBAgQIBABAEBIMIWzECAAAECBCoLCACVwbUjQIAAAQIRBASACFswAwECBAgQqCwgAFQG144AAQIECEQQEAAibMEMBAgQIECgsoAAUBlcOwIECBAgEEFAAIiwBTMQIECAAIHKAgJAZXDtCBAgQIBABAEBIMIWzECAAAECBCoLrNJTz/9z5Z5x2u2vb0nr9a1pP22m1Xpr+n4zrdPWNOD0/XQtffLzdC9NP39875PXOOcwCYHPKvDGr6fHfP1ZP+1zBOIIrFYfTsPspYPX1Wpv+v7gdbo2fb+arq+n143pWjq4v/HxtdXm1bS58X6cQ9Sd5OAvtj+v2zJQt43VNMz0Nf1V7w+BIQXOnB3y2A7dpcDH//OW0skuTzfDofwKYAZUJQkQIECAQHQBASD6hsxHgAABAgRmEBAAZkBVkgABAgQIRBcQAKJvyHwECBAgQGAGAQFgBlQlCRAgQIBAdAEBIPqGzEeAAAECBGYQEABmQFWSAAECBAhEFxAAom/IfAQIECBAYAYBAWAGVCUJECBAgEB0AQEg+obMR4AAAQIEZhAQAGZAVZIAAQIECEQXEACib8h8BAgQIEBgBgEBYAZUJQkQIECAQHQBASD6hsxHgAABAgRmEBAAZkBVkgABAgQIRBcQAKJvyHwECBAgQGAGAQFgBlQlCRAgQIBAdAEBIPqGzEeAAAECBGYQEABmQFWSAAECBAhEFxAAom/IfAQIECBAYAYBAWAGVCUJECBAgEB0AQEg+obMR4AAAQIEZhAQAGZAVZIAAQIECEQXEACib8h8BAgQIEBgBgEBYAZUJQkQIECAQHQBASD6hsxHgAABAgRmEBAAZkBVkgABAgQIRBcQAKJvyHwECBAgQGAGAQFgBlQlCRAgQIBAdAEBIPqGzEeAAAECBGYQEABmQFWSAAECBAhEFxAAom/IfAQIECBAYAYBAWAGVCUJECBAgEB0AQEg+obMR4AAAQIEZhAQAGZAVZIAAQIECEQXEACib8h8BAgQIEBgBgEBYAZUJQkQIECAQHQBASD6hsxHgAABAgRmEBAAZkBVkgABAgQIRBcQAKJvyHwECBAgQGAGAQFgBlQlCRAgQIBAdAEBIPqGzEeAAAECBGYQEABmQFWSAAECBAhEFxAAom/IfAQIECBAYAYBAWAGVCUJECBAgEB0AQEg+obMR4AAAQIEZhAQAGZAVZIAAQIECEQX2Io+4GHz3XrPVvryk6cOe1vx+1ff3Eu/emGneN2jFnz20RfTMw/96KgfO/b7v/OzJ9Kzv/jmsesct8ArH/x3enjv2nHLHPnzj5x+MP1848yRP+cDBEoLnPziLemuJ+4vXfbQetff20lvvfj6oe+b+w1PP/Tv6bnHfjp3m9+r//1ffi09/dKjv3e9pQv+BaClbZmVAAECBAgUEhAACkEqQ4AAAQIEWhIQAFrallkJECBAgEAhAQGgEKQyBAgQIECgJQEBoKVtmZUAAQIECBQSEAAKQSpDgAABAgRaEhAAWtqWWQkQIECAQCEBAaAQpDIECBAgQKAlAQGgpW2ZlQABAgQIFBIQAApBKkOAAAECBFoSEABa2pZZCRAgQIBAIQEBoBCkMgQIECBAoCUBAaClbZmVAAECBAgUEhAACkEqQ4AAAQIEWhIQAFrallkJECBAgEAhAQGgEKQyBAgQIECgJQEBoKVtmZUAAQIECBQSEAAKQSpDgAABAgRaEhAAWtqWWQkQIECAQCEBAaAQpDIECBAgQKAlAQGgpW2ZlQABAgQIFBIQAApBKkOAAAECBFoSEABa2pZZCRAgQIBAIQEBoBCkMgQIECBAoCUBAaClbZmVAAECBAgUEhAACkEqQ4AAAQIEWhIQAFrallkJECBAgEAhAQGgEKQyBAgQIECgJQEBoKVtmZUAAQIECBQSWKWnnl8XqqUMAQKtCWy/09rE5iVAoJCAfwEoBKkMAQIECBBoSUAAaGlbZiVAgAABAoUEBIBCkMoQIECAAIGWBASAlrZlVgIECBAgUEhAACgEqQwBAgQIEGhJQABoaVtmJUCAAAEChQQEgEKQyhAgQIAAgZYEBICWtmVWAgQIECBQSEAAKASpDAECBAgQaElAAGhpW2YlQIAAAQKFBASAQpDKECBAgACBlgQEgJa2ZVYCBAgQIFBIQAAoBKkMAQIECBBoSUAAaGlbZiVAgAABAoUEBIBCkMoQIECAAIGWBASAlrZlVgIECBAgUEhAACgEqQwBAgQIEGhJQABoaVtmJUCAAAEChQQEgEKQyhAgQIAAgZYEBICWtmVWAgQIECBQSEAAKASpDAECBAgQaElAAGhpW2YlQIAAAQKFBASAQpDKECBAgACBlgQEgJa2ZVYCBAgQIFBIQAAoBKkMAQIECBBoSUAAaGlbZiVAgAABAoUEBIBCkMoQIECAAIGWBASAlrZlVgIECBAgUEhAACgEqQwBAgQIEGhJQABoaVtmJUCAAAEChQQEgEKQyhAgQIAAgZYEBICWtmVWAgQIECBQSEAAKASpDAECBAgQaElAAGhpW2YlQIAAAQKFBASAQpDKECBAgACBlgQEgJa2ZVYCBAgQIFBIQAAoBKkMAQIECBBoSUAAaGlbZiVAgAABAoUEBIBCkMoQIECAAIGWBASAlrZlVgIECBAgUEhAACgEqQwBAgQIEGhJQABoaVtmJUCAAAEChQQEgEKQyhAgQIAAgZYEBICWtmVWAgQIECBQSEAAKASpDAECBAgQaElAAGhpW2YlQIAAAQKFBASAQpDKECBAgACBlgS2pmF/3NLARWfdX9+S1utb037aTKv11vT9ZlqnA5Pp++la+uTn6V6afv743ievRUdRjMAiAteuTI/5epHWmhIoKrBafTjV20sHr6vV3vT9wet0bfp+NV1fT68b07V0cH/j42urzatpc+P9onM0VGzV0KzlR338u89ND8bT5QurSKARgVdfaWRQYxKYReB76cIPvzVL5QaK+hVAA0syIgECBAgQKC0gAJQWVY8AAQIECDQgIAA0sCQjEiBAgACB0gICQGlR9QgQIECAQAMCAkADSzIiAQIECBAoLSAAlBZVjwABAgQINCAgADSwJCMSIECAAIHSAgJAaVH1CBAgQIBAAwICQANLMiIBAgQIECgtIACUFlWPAAECBAg0ICAANLAkIxIgQIAAgdICAkBpUfUIECBAgEADAgJAA0syIgECBAgQKC0gAJQWVY8AAQIECDQgIAA0sCQjEiBAgACB0gICQGlR9QgQIECAQAMCAkADSzIiAQIECBAoLSAAlBZVjwABAgQINCAgADSwJCMSIECAAIHSAgJAaVH1CBAgQIBAAwICQANLMiIBAgQIECgtIACUFlWPAAECBAg0ICAANLAkIxIgQIAAgdICAkBpUfUIECBAgEADAgJAA0syIgECBAgQKC0gAJQWVY8AAQIECDQgIAA0sCQjEiBAgACB0gICQGlR9QgQIECAQAMCAkADSzIiAQIECBAoLSAAlBZVjwABAgQINCAgADSwJCMSIECAAIHSAgJAaVH1CBAgQIBAAwICQANLMiIBAgQIECgtIACUFlWPAAECBAg0ICAANLAkIxIgQIAAgdICAkBpUfUIECBAgEADAgJAA0syIgECBAgQKC0gAJQWVY8AAQIECDQgIAA0sCQjEiBAgACB0gICQGlR9QgQIECAQAMCAkADSzIiAQIECBAoLSAAlBZVjwABAgQINCAgADSwJCMSIECAAIHSAgJAaVH1CBAgQIBAAwICQANLMiIBAgQIECgtIACUFlWPAAECBAg0ICAANLAkIxIgQIAAgdICAkBpUfUIECBAgEADAgJAA0syIgECBAgQKC0gAJQWVY8AAQIECDQgIAA0sCQjEiBAgACB0gICQGlR9QgQIECAQAMCAkADSzIiAQIECBAoLSAAlBZVjwABAgQINCAgADSwJCMSIECAAIHSAgJAaVH1CBAgQIBAAwICQANLMiIBAgQIECgtIACUFlWPAAECBAg0ICAANLAkIxIgQIAAgdICAkBpUfUIECBAgEADAgJAA0syIgECBAgQKC0gAJQWVY8AAQIECDQgIAA0sCQjEiBAgACB0gKr9Hc/eKZ00Wbq7ew+kK5/+OA074m0Xp+YXk9Or6fTenXw88mPfk4fvTZzJIMSOJLAa6+ntD7SJ7yZQEMCq+tpY/pK6XparXanr52UpteDa6u0m06efi2dOTv9RzDmn63pL7tnxzz6dOpT09/xB1/+EBhV4Pydo57cuccQ+P//kcse9usjB2C/Asg+F24QIECAAIF+BQSAfnfrZAQIECBAICsgAGRp3CBAgAABAv0KCAD97tbJCBAgQIBAVkAAyNK4QYAAAQIE+hUQAPrdrZMRIECAAIGsgACQpXGDAAECBAj0KyAA9LtbJyNAgAABAlkBASBL4wYBAgQIEOhXQADod7dORoAAAQIEsgICQJbGDQIECBAg0K+AANDvbp2MAAECBAhkBQSALI0bBAgQIECgXwEBoN/dOhkBAgQIEMgKCABZGjcIECBAgEC/AgJAv7t1MgIECBAgkBUQALI0bhAgQIAAgX4FBIB+d+tkBAgQIEAgKyAAZGncIECAAAEC/QoIAP3u1skIECBAgEBWQADI0rhBgAABAgT6FRAA+t2tkxEgQIAAgayAAJClcYMAAQIECPQrIAD0u1snI0CAAAECWQEBIEvjBgECBAgQ6FdAAOh3t05GgAABAgSyAgJAlsYNAgQIECDQr4AA0O9unYwAAQIECGQFBIAsjRsECBAgQKBfAQGg3906GQECBAgQyAoIAFkaNwgQIECAQL8CAkC/u3UyAgQIECCQFRAAsjRuECBAgACBfgUEgH5362QECBAgQCArIABkadwgQIAAAQL9CggA/e7WyQgQIECAQFZAAMjSuEGAAAECBPoVEAD63a2TESBAgACBrIAAkKVxgwABAgQI9CsgAPS7WycjQIAAAQJZAQEgS+MGAQIECBDoV0AA6He3TkaAAAECBLICAkCWxg0CBAgQINCvgADQ726djAABAgQIZAUEgCyNGwQIECBAoF8BAaDf3ToZAQIECBDICggAWRo3CBAgQIBAvwJbrR/t9B0b6Q//7GT1Y+y8u5fe+Zfd6n1vbPhXD/5r+sv7/+3Gy7P//I//9Vj6p+0/nb3PYQ3+fvdCemD/g8PeVvz+3564J72xcap4XQUJHFXgc+dOpDseu+uoHzv2+3cv76bfvPTWsesct8CT9/1P+ps/+c/jljny51/Yvjf94NWvHvlzkT7QfADYPL2Rbr17M5Jp1Vnuu/3d9I07X6va86DZj9/6SvWeN2v49f1r6eG9aze7Neu1c2lv1vqKE/i0AhsnttLpPz77ad9e7H0bp3aK1TpOoXvOXk7fuOvt45T4TJ/9j9/8wWf6XKQP+RVApG2YhQABAgQIVBIQACpBa0OAAAECBCIJCACRtmEWAgQIECBQSUAAqAStDQECBAgQiCQgAETahlkIECBAgEAlAQGgErQ2BAgQIEAgkoAAEGkbZiFAgAABApUEBIBK0NoQIECAAIFIAgJApG2YhQABAgQIVBIQACpBa0OAAAECBCIJCACRtmEWAgQIECBQSUAAqAStDQECBAgQiCQgAETahlkIECBAgEAlAQGgErQ2BAgQIEAgkoAAEGkbZiFAgAABApUEBIBK0NoQIECAAIFIAgJApG2YhQABAgQIVBIQACpBa0OAAAECBCIJCACRtmEWAgQIECBQSUAAqAStDQECBAgQiCQgAETahlkIECBAgEAlAQGgErQ2BAgQIEAgkoAAEGkbZiFAgAABApUEBIBK0NoQIECAAIFIAgJApG2YhQABAgQIVBIQACpBa0OAAAECBCIJCACRtmEWAgQIECBQSUAAqAStDQECBAgQiCSwSk89v4400FFn2Ty1SqfPbx71Y8d+/97Oftq5uH/sOsctcO9tF9OXzr133DJH/vz2pTvShStfOPLnSn/gkf1r6dx6r3TZQ+u9vHEmXVnVf+4OHeyob9h+56if8P5gAhtbG+nU+VuqT7X/u/30wcX3q/e9seHdZ6+m+z//2xsvz/7zhctn0/al22fvM2eD5gPAnDhqE+heQADofsUOSCAn4FcAORnXCRAgQIBAxwICQMfLdTQCBAgQIJATEAByMq4TIECAAIGOBQSAjpfraAQIECBAICcgAORkXCdAgAABAh0LCAAdL9fRCBAgQIBATkAAyMm4ToAAAQIEOhYQADperqMRIECAAIGcgACQk3GdAAECBAh0LCAAdLxcRyNAgAABAjkBASAn4zoBAgQIEOhYQADoeLmORoAAAQIEcgICQE7GdQIECBAg0LGAANDxch2NAAECBAjkBASAnIzrBAgQIECgYwEBoOPlOhoBAgQIEMgJCAA5GdcJECBAgEDHAgJAx8t1NAIECBAgkBMQAHIyrhMgQIAAgY4FBICOl+toBAgQIEAgJyAA5GRcJ0CAAAECHQsIAB0v19EIECBAgEBOQADIybhOgAABAgQ6FhAAOl6uoxEgQIAAgZyAAJCTcZ0AAQIECHQsIAB0vFxHI0CAAAECOQEBICfjOgECBAgQ6FhAAOh4uY5GgAABAgRyAgJATsZ1AgQIECDQsYAA0PFyHY0AAQIECOQEBICcjOsECBAgQKBjAQGg4+U6GgECBAgQyAkIADkZ1wkQIECAQMcCAkDHy3U0AgQIECCQExAAcjKuEyBAgACBjgUEgI6X62gECBAgQCAnIADkZFwnQIAAAQIdCwgAHS/X0QgQIECAQE5AAMjJuE6AAAECBDoWEAA6Xq6jESBAgACBnIAAkJNxnQABAgQIdCwgAHS8XEcjQIAAAQI5AQEgJ+M6AQIECBDoWEAA6Hi5jkaAAAECBHICAkBOxnUCBAgQINCxgADQ8XIdjQABAgQI5AQEgJyM6wQIECBAoGOB/wPw52cvNsV6VgAAAABJRU5ErkJggg==;fontStyle=1" vertex="1" parent="LJJ_0mSZEH9ZChrVbTYg-22">
          <mxGeometry x="401.00333333333356" y="68.00333333333325" width="78" height="78" as="geometry" />
        </mxCell>
        <mxCell id="LJJ_0mSZEH9ZChrVbTYg-18" value="Apache Web Server 2" style="shape=image;verticalLabelPosition=bottom;labelBackgroundColor=none;verticalAlign=top;aspect=fixed;imageAspect=0;image=data:image/png,iVBORw0KGgoAAAANSUhEUgAAAgAAAAIACAYAAAD0eNT6AAAAAXNSR0IArs4c6QAAAERlWElmTU0AKgAAAAgAAYdpAAQAAAABAAAAGgAAAAAAA6ABAAMAAAABAAEAAKACAAQAAAABAAACAKADAAQAAAABAAACAAAAAAAL+LWFAAAfyUlEQVR4Ae3Z34um5XkH8PudmewP110NSV3a+iMEfxBDD6LUgCAU0pPgmWChxy30oEcWg8lpjgSTs/Yk9g8ogkc5CTQ5KJYEa5IWbCs6NGTVIm6QLPvDcSfOvH1G68lmb8Zx7ud+rvu+PwvDO/M873td1/25HtmvO6v01PPr5A8BAmMKbL8z5rmdmgCBtMGAAAECBAgQGE9AABhv505MgAABAgT8C4BngAABAgQIjCjgXwBG3LozEyBAgMDwAgLA8I8AAAIECBAYUUAAGHHrzkyAAAECwwsIAMM/AgAIECBAYEQBAWDErTszAQIECAwvIAAM/wgAIECAAIERBQSAEbfuzAQIECAwvIAAMPwjAIAAAQIERhQQAEbcujMTIECAwPACAsDwjwAAAgQIEBhRQAAYcevOTIAAAQLDCwgAwz8CAAgQIEBgRAEBYMStOzMBAgQIDC8gAAz/CAAgQIAAgREFBIARt+7MBAgQIDC8gAAw/CMAgAABAgRGFBAARty6MxMgQIDA8AICwPCPAAACBAgQGFFAABhx685MgAABAsMLCADDPwIACBAgQGBEAQFgxK07MwECBAgMLyAADP8IACBAgACBEQUEgBG37swECBAgMLyAADD8IwCAAAECBEYUEABG3LozEyBAgMDwAgLA8I8AAAIECBAYUUAAGHHrzkyAAAECwwsIAMM/AgAIECBAYEQBAWDErTszAQIECAwvIAAM/wgAIECAAIERBQSAEbfuzAQIECAwvIAAMPwjAIAAAQIERhQQAEbcujMTIECAwPACAsDwjwAAAgQIEBhRQAAYcevOTIAAAQLDCwgAwz8CAAgQIEBgRAEBYMStOzMBAgQIDC8gAAz/CAAgQIAAgREFBIARt+7MBAgQIDC8gAAw/CMAgAABAgRGFBAARty6MxMgQIDA8AICwPCPAAACBAgQGFFAABhx685MgAABAsMLCADDPwIACBAgQGBEga3WD715apVOn9+sfoy9nf20c3G/et8bG95728X0pXPv3Xh59p+3L92RLlz5wux9DmvwyP61dG69d9jbit9/eeNMurKq/9wVP4iCzQtsbG2kU+dvqX6O/d/tpw8uvl+9740N7z57Nd3/+d/eeHn2ny9cPpu2L90+e585GzQfAA7+8v/yk6fmNLpp7atv7qVfvbBz03s1L/71V19Kzzz0o5otP+r1nZ89kZ79xTer972x4T/sXkgP71278fLsPz9y+sH089WZ2ftoQOAwgc/dfir90eP3Hva24vevv7eT3nrx9eJ1j1rwL+7bTs899tOjfuzY7//+L7+Wnn7p0WPXWbKAXwEsqa83AQIECBBYSEAAWAheWwIECBAgsKSAALCkvt4ECBAgQGAhAQFgIXhtCRAgQIDAkgICwJL6ehMgQIAAgYUEBICF4LUlQIAAAQJLCggAS+rrTYAAAQIEFhIQABaC15YAAQIECCwpIAAsqa83AQIECBBYSEAAWAheWwIECBAgsKSAALCkvt4ECBAgQGAhAQFgIXhtCRAgQIDAkgICwJL6ehMgQIAAgYUEBICF4LUlQIAAAQJLCggAS+rrTYAAAQIEFhIQABaC15YAAQIECCwpIAAsqa83AQIECBBYSEAAWAheWwIECBAgsKSAALCkvt4ECBAgQGAhAQFgIXhtCRAgQIDAkgICwJL6ehMgQIAAgYUEBICF4LUlQIAAAQJLCggAS+rrTYAAAQIEFhIQABaC15YAAQIECCwpIAAsqa83AQIECBBYSEAAWAheWwIECBAgsKSAALCkvt4ECBAgQGAhAQFgIXhtCRAgQIDAkgJbSzYv0XtvZz9dfXOvRKkj1dh5t37Pmw24fel8+snbX7nZrVmv/fryF2et/2mLv7xxJl1Km5/27cXed3mBnsWGV6grgf3dD9PO/16pfqbdy7vVe96s4YUr59JP3rrzZrdmvfbGpdtmrV+j+Co99fy6RiM9CBAIKLD9TsChjESAQA0BvwKooawHAQIECBAIJiAABFuIcQgQIECAQA0BAaCGsh4ECBAgQCCYgAAQbCHGIUCAAAECNQQEgBrKehAgQIAAgWACAkCwhRiHAAECBAjUEBAAaijrQYAAAQIEggkIAMEWYhwCBAgQIFBDQACooawHAQIECBAIJiAABFuIcQgQIECAQA0BAaCGsh4ECBAgQCCYgAAQbCHGIUCAAAECNQQEgBrKehAgQIAAgWACAkCwhRiHAAECBAjUEBAAaijrQYAAAQIEggkIAMEWYhwCBAgQIFBDQACooawHAQIECBAIJiAABFuIcQgQIECAQA0BAaCGsh4ECBAgQCCYgAAQbCHGIUCAAAECNQQEgBrKehAgQIAAgWACAkCwhRiHAAECBAjUEBAAaijrQYAAAQIEggkIAMEWYhwCBAgQIFBDQACooawHAQIECBAIJiAABFuIcQgQIECAQA0BAaCGsh4ECBAgQCCYgAAQbCHGIUCAAAECNQQEgBrKehAgQIAAgWACAkCwhRiHAAECBAjUEBAAaijrQYAAAQIEggkIAMEWYhwCBAgQIFBDQACooawHAQIECBAIJiAABFuIcQgQIECAQA0BAaCGsh4ECBAgQCCYgAAQbCHGIUCAAAECNQQEgBrKehAgQIAAgWACAkCwhRiHAAECBAjUEBAAaijrQYAAAQIEggkIAMEWYhwCBAgQIFBDQACooawHAQIECBAIJiAABFuIcQgQIECAQA0BAaCGsh4ECBAgQCCYgAAQbCHGIUCAAAECNQQEgBrKehAgQIAAgWACAkCwhRiHAAECBAjUEBAAaijrQYAAAQIEgglspdX628FmqjfOzu4D6fqHD04NT6T1+sT0enJ6PZ3Wq4OfT370c/rotd5MOhGoKfDu2ymtazbUi0BNgdX1tDF9pXQ9rVa709dOStPrwbVV2k0nT7+Wzpx9veZEkXqtIg1TfZbHv/vc9BA8Xb2vhgSiCLz6SpRJzEFgCYHvpQs//NYSjSP09CuACFswAwECBAgQqCwgAFQG144AAQIECEQQEAAibMEMBAgQIECgsoAAUBlcOwIECBAgEEFAAIiwBTMQIECAAIHKAgJAZXDtCBAgQIBABAEBIMIWzECAAAECBCoLCACVwbUjQIAAAQIRBASACFswAwECBAgQqCwgAFQG144AAQIECEQQEAAibMEMBAgQIECgsoAAUBlcOwIECBAgEEFAAIiwBTMQIECAAIHKAgJAZXDtCBAgQIBABAEBIMIWzECAAAECBCoLCACVwbUjQIAAAQIRBASACFswAwECBAgQqCwgAFQG144AAQIECEQQEAAibMEMBAgQIECgsoAAUBlcOwIECBAgEEFAAIiwBTMQIECAAIHKAgJAZXDtCBAgQIBABAEBIMIWzECAAAECBCoLCACVwbUjQIAAAQIRBASACFswAwECBAgQqCwgAFQG144AAQIECEQQEAAibMEMBAgQIECgsoAAUBlcOwIECBAgEEFAAIiwBTMQIECAAIHKAgJAZXDtCBAgQIBABAEBIMIWzECAAAECBCoLCACVwbUjQIAAAQIRBASACFswAwECBAgQqCwgAFQG144AAQIECEQQEAAibMEMBAgQIECgsoAAUBlcOwIECBAgEEFAAIiwBTMQIECAAIHKAgJAZXDtCBAgQIBABAEBIMIWzECAAAECBCoLCACVwbUjQIAAAQIRBASACFswAwECBAgQqCwgAFQG144AAQIECEQQEAAibMEMBAgQIECgsoAAUBlcOwIECBAgEEFAAIiwBTMQIECAAIHKAgJAZXDtCBAgQIBABAEBIMIWzECAAAECBCoLCACVwbUjQIAAAQIRBASACFswAwECBAgQqCwgAFQG144AAQIECEQQEAAibMEMBAgQIECgsoAAUBlcOwIECBAgEEFAAIiwBTMQIECAAIHKAgJAZXDtCBAgQIBABAEBIMIWzECAAAECBCoLCACVwbUjQIAAAQIRBASACFswAwECBAgQqCwgAFQG144AAQIECEQQEAAibMEMBAgQIECgsoAAUBlcOwIECBAgEEFAAIiwBTMQIECAAIHKAgJAZXDtCBAgQIBABAEBIMIWzECAAAECBCoLrNJTz/9z5Z5x2u2vb0nr9a1pP22m1Xpr+n4zrdPWNOD0/XQtffLzdC9NP39875PXOOcwCYHPKvDGr6fHfP1ZP+1zBOIIrFYfTsPspYPX1Wpv+v7gdbo2fb+arq+n143pWjq4v/HxtdXm1bS58X6cQ9Sd5OAvtj+v2zJQt43VNMz0Nf1V7w+BIQXOnB3y2A7dpcDH//OW0skuTzfDofwKYAZUJQkQIECAQHQBASD6hsxHgAABAgRmEBAAZkBVkgABAgQIRBcQAKJvyHwECBAgQGAGAQFgBlQlCRAgQIBAdAEBIPqGzEeAAAECBGYQEABmQFWSAAECBAhEFxAAom/IfAQIECBAYAYBAWAGVCUJECBAgEB0AQEg+obMR4AAAQIEZhAQAGZAVZIAAQIECEQXEACib8h8BAgQIEBgBgEBYAZUJQkQIECAQHQBASD6hsxHgAABAgRmEBAAZkBVkgABAgQIRBcQAKJvyHwECBAgQGAGAQFgBlQlCRAgQIBAdAEBIPqGzEeAAAECBGYQEABmQFWSAAECBAhEFxAAom/IfAQIECBAYAYBAWAGVCUJECBAgEB0AQEg+obMR4AAAQIEZhAQAGZAVZIAAQIECEQXEACib8h8BAgQIEBgBgEBYAZUJQkQIECAQHQBASD6hsxHgAABAgRmEBAAZkBVkgABAgQIRBcQAKJvyHwECBAgQGAGAQFgBlQlCRAgQIBAdAEBIPqGzEeAAAECBGYQEABmQFWSAAECBAhEFxAAom/IfAQIECBAYAYBAWAGVCUJECBAgEB0AQEg+obMR4AAAQIEZhAQAGZAVZIAAQIECEQXEACib8h8BAgQIEBgBgEBYAZUJQkQIECAQHQBASD6hsxHgAABAgRmEBAAZkBVkgABAgQIRBcQAKJvyHwECBAgQGAGAQFgBlQlCRAgQIBAdAEBIPqGzEeAAAECBGYQEABmQFWSAAECBAhEFxAAom/IfAQIECBAYAYBAWAGVCUJECBAgEB0AQEg+obMR4AAAQIEZhAQAGZAVZIAAQIECEQX2Io+4GHz3XrPVvryk6cOe1vx+1ff3Eu/emGneN2jFnz20RfTMw/96KgfO/b7v/OzJ9Kzv/jmsesct8ArH/x3enjv2nHLHPnzj5x+MP1848yRP+cDBEoLnPziLemuJ+4vXfbQetff20lvvfj6oe+b+w1PP/Tv6bnHfjp3m9+r//1ffi09/dKjv3e9pQv+BaClbZmVAAECBAgUEhAACkEqQ4AAAQIEWhIQAFrallkJECBAgEAhAQGgEKQyBAgQIECgJQEBoKVtmZUAAQIECBQSEAAKQSpDgAABAgRaEhAAWtqWWQkQIECAQCEBAaAQpDIECBAgQKAlAQGgpW2ZlQABAgQIFBIQAApBKkOAAAECBFoSEABa2pZZCRAgQIBAIQEBoBCkMgQIECBAoCUBAaClbZmVAAECBAgUEhAACkEqQ4AAAQIEWhIQAFrallkJECBAgEAhAQGgEKQyBAgQIECgJQEBoKVtmZUAAQIECBQSEAAKQSpDgAABAgRaEhAAWtqWWQkQIECAQCEBAaAQpDIECBAgQKAlAQGgpW2ZlQABAgQIFBIQAApBKkOAAAECBFoSEABa2pZZCRAgQIBAIQEBoBCkMgQIECBAoCUBAaClbZmVAAECBAgUEhAACkEqQ4AAAQIEWhIQAFrallkJECBAgEAhAQGgEKQyBAgQIECgJQEBoKVtmZUAAQIECBQSWKWnnl8XqqUMAQKtCWy/09rE5iVAoJCAfwEoBKkMAQIECBBoSUAAaGlbZiVAgAABAoUEBIBCkMoQIECAAIGWBASAlrZlVgIECBAgUEhAACgEqQwBAgQIEGhJQABoaVtmJUCAAAEChQQEgEKQyhAgQIAAgZYEBICWtmVWAgQIECBQSEAAKASpDAECBAgQaElAAGhpW2YlQIAAAQKFBASAQpDKECBAgACBlgQEgJa2ZVYCBAgQIFBIQAAoBKkMAQIECBBoSUAAaGlbZiVAgAABAoUEBIBCkMoQIECAAIGWBASAlrZlVgIECBAgUEhAACgEqQwBAgQIEGhJQABoaVtmJUCAAAEChQQEgEKQyhAgQIAAgZYEBICWtmVWAgQIECBQSEAAKASpDAECBAgQaElAAGhpW2YlQIAAAQKFBASAQpDKECBAgACBlgQEgJa2ZVYCBAgQIFBIQAAoBKkMAQIECBBoSUAAaGlbZiVAgAABAoUEBIBCkMoQIECAAIGWBASAlrZlVgIECBAgUEhAACgEqQwBAgQIEGhJQABoaVtmJUCAAAEChQQEgEKQyhAgQIAAgZYEBICWtmVWAgQIECBQSEAAKASpDAECBAgQaElAAGhpW2YlQIAAAQKFBASAQpDKECBAgACBlgQEgJa2ZVYCBAgQIFBIQAAoBKkMAQIECBBoSUAAaGlbZiVAgAABAoUEBIBCkMoQIECAAIGWBASAlrZlVgIECBAgUEhAACgEqQwBAgQIEGhJQABoaVtmJUCAAAEChQQEgEKQyhAgQIAAgZYEBICWtmVWAgQIECBQSEAAKASpDAECBAgQaElAAGhpW2YlQIAAAQKFBASAQpDKECBAgACBlgS2pmF/3NLARWfdX9+S1utb037aTKv11vT9ZlqnA5Pp++la+uTn6V6afv743ievRUdRjMAiAteuTI/5epHWmhIoKrBafTjV20sHr6vV3vT9wet0bfp+NV1fT68b07V0cH/j42urzatpc+P9onM0VGzV0KzlR338u89ND8bT5QurSKARgVdfaWRQYxKYReB76cIPvzVL5QaK+hVAA0syIgECBAgQKC0gAJQWVY8AAQIECDQgIAA0sCQjEiBAgACB0gICQGlR9QgQIECAQAMCAkADSzIiAQIECBAoLSAAlBZVjwABAgQINCAgADSwJCMSIECAAIHSAgJAaVH1CBAgQIBAAwICQANLMiIBAgQIECgtIACUFlWPAAECBAg0ICAANLAkIxIgQIAAgdICAkBpUfUIECBAgEADAgJAA0syIgECBAgQKC0gAJQWVY8AAQIECDQgIAA0sCQjEiBAgACB0gICQGlR9QgQIECAQAMCAkADSzIiAQIECBAoLSAAlBZVjwABAgQINCAgADSwJCMSIECAAIHSAgJAaVH1CBAgQIBAAwICQANLMiIBAgQIECgtIACUFlWPAAECBAg0ICAANLAkIxIgQIAAgdICAkBpUfUIECBAgEADAgJAA0syIgECBAgQKC0gAJQWVY8AAQIECDQgIAA0sCQjEiBAgACB0gICQGlR9QgQIECAQAMCAkADSzIiAQIECBAoLSAAlBZVjwABAgQINCAgADSwJCMSIECAAIHSAgJAaVH1CBAgQIBAAwICQANLMiIBAgQIECgtIACUFlWPAAECBAg0ICAANLAkIxIgQIAAgdICAkBpUfUIECBAgEADAgJAA0syIgECBAgQKC0gAJQWVY8AAQIECDQgIAA0sCQjEiBAgACB0gICQGlR9QgQIECAQAMCAkADSzIiAQIECBAoLSAAlBZVjwABAgQINCAgADSwJCMSIECAAIHSAgJAaVH1CBAgQIBAAwICQANLMiIBAgQIECgtIACUFlWPAAECBAg0ICAANLAkIxIgQIAAgdICAkBpUfUIECBAgEADAgJAA0syIgECBAgQKC0gAJQWVY8AAQIECDQgIAA0sCQjEiBAgACB0gICQGlR9QgQIECAQAMCAkADSzIiAQIECBAoLSAAlBZVjwABAgQINCAgADSwJCMSIECAAIHSAgJAaVH1CBAgQIBAAwICQANLMiIBAgQIECgtIACUFlWPAAECBAg0ICAANLAkIxIgQIAAgdICAkBpUfUIECBAgEADAgJAA0syIgECBAgQKC0gAJQWVY8AAQIECDQgIAA0sCQjEiBAgACB0gKr9Hc/eKZ00Wbq7ew+kK5/+OA074m0Xp+YXk9Or6fTenXw88mPfk4fvTZzJIMSOJLAa6+ntD7SJ7yZQEMCq+tpY/pK6XparXanr52UpteDa6u0m06efi2dOTv9RzDmn63pL7tnxzz6dOpT09/xB1/+EBhV4Pydo57cuccQ+P//kcse9usjB2C/Asg+F24QIECAAIF+BQSAfnfrZAQIECBAICsgAGRp3CBAgAABAv0KCAD97tbJCBAgQIBAVkAAyNK4QYAAAQIE+hUQAPrdrZMRIECAAIGsgACQpXGDAAECBAj0KyAA9LtbJyNAgAABAlkBASBL4wYBAgQIEOhXQADod7dORoAAAQIEsgICQJbGDQIECBAg0K+AANDvbp2MAAECBAhkBQSALI0bBAgQIECgXwEBoN/dOhkBAgQIEMgKCABZGjcIECBAgEC/AgJAv7t1MgIECBAgkBUQALI0bhAgQIAAgX4FBIB+d+tkBAgQIEAgKyAAZGncIECAAAEC/QoIAP3u1skIECBAgEBWQADI0rhBgAABAgT6FRAA+t2tkxEgQIAAgayAAJClcYMAAQIECPQrIAD0u1snI0CAAAECWQEBIEvjBgECBAgQ6FdAAOh3t05GgAABAgSyAgJAlsYNAgQIECDQr4AA0O9unYwAAQIECGQFBIAsjRsECBAgQKBfAQGg3906GQECBAgQyAoIAFkaNwgQIECAQL8CAkC/u3UyAgQIECCQFRAAsjRuECBAgACBfgUEgH5362QECBAgQCArIABkadwgQIAAAQL9CggA/e7WyQgQIECAQFZAAMjSuEGAAAECBPoVEAD63a2TESBAgACBrIAAkKVxgwABAgQI9CsgAPS7WycjQIAAAQJZAQEgS+MGAQIECBDoV0AA6He3TkaAAAECBLICAkCWxg0CBAgQINCvgADQ726djAABAgQIZAUEgCyNGwQIECBAoF8BAaDf3ToZAQIECBDICggAWRo3CBAgQIBAvwJbrR/t9B0b6Q//7GT1Y+y8u5fe+Zfd6n1vbPhXD/5r+sv7/+3Gy7P//I//9Vj6p+0/nb3PYQ3+fvdCemD/g8PeVvz+3564J72xcap4XQUJHFXgc+dOpDseu+uoHzv2+3cv76bfvPTWsesct8CT9/1P+ps/+c/jljny51/Yvjf94NWvHvlzkT7QfADYPL2Rbr17M5Jp1Vnuu/3d9I07X6va86DZj9/6SvWeN2v49f1r6eG9aze7Neu1c2lv1vqKE/i0AhsnttLpPz77ad9e7H0bp3aK1TpOoXvOXk7fuOvt45T4TJ/9j9/8wWf6XKQP+RVApG2YhQABAgQIVBIQACpBa0OAAAECBCIJCACRtmEWAgQIECBQSUAAqAStDQECBAgQiCQgAETahlkIECBAgEAlAQGgErQ2BAgQIEAgkoAAEGkbZiFAgAABApUEBIBK0NoQIECAAIFIAgJApG2YhQABAgQIVBIQACpBa0OAAAECBCIJCACRtmEWAgQIECBQSUAAqAStDQECBAgQiCQgAETahlkIECBAgEAlAQGgErQ2BAgQIEAgkoAAEGkbZiFAgAABApUEBIBK0NoQIECAAIFIAgJApG2YhQABAgQIVBIQACpBa0OAAAECBCIJCACRtmEWAgQIECBQSUAAqAStDQECBAgQiCQgAETahlkIECBAgEAlAQGgErQ2BAgQIEAgkoAAEGkbZiFAgAABApUEBIBK0NoQIECAAIFIAgJApG2YhQABAgQIVBIQACpBa0OAAAECBCIJCACRtmEWAgQIECBQSUAAqAStDQECBAgQiCSwSk89v4400FFn2Ty1SqfPbx71Y8d+/97Oftq5uH/sOsctcO9tF9OXzr133DJH/vz2pTvShStfOPLnSn/gkf1r6dx6r3TZQ+u9vHEmXVnVf+4OHeyob9h+56if8P5gAhtbG+nU+VuqT7X/u/30wcX3q/e9seHdZ6+m+z//2xsvz/7zhctn0/al22fvM2eD5gPAnDhqE+heQADofsUOSCAn4FcAORnXCRAgQIBAxwICQMfLdTQCBAgQIJATEAByMq4TIECAAIGOBQSAjpfraAQIECBAICcgAORkXCdAgAABAh0LCAAdL9fRCBAgQIBATkAAyMm4ToAAAQIEOhYQADperqMRIECAAIGcgACQk3GdAAECBAh0LCAAdLxcRyNAgAABAjkBASAn4zoBAgQIEOhYQADoeLmORoAAAQIEcgICQE7GdQIECBAg0LGAANDxch2NAAECBAjkBASAnIzrBAgQIECgYwEBoOPlOhoBAgQIEMgJCAA5GdcJECBAgEDHAgJAx8t1NAIECBAgkBMQAHIyrhMgQIAAgY4FBICOl+toBAgQIEAgJyAA5GRcJ0CAAAECHQsIAB0v19EIECBAgEBOQADIybhOgAABAgQ6FhAAOl6uoxEgQIAAgZyAAJCTcZ0AAQIECHQsIAB0vFxHI0CAAAECOQEBICfjOgECBAgQ6FhAAOh4uY5GgAABAgRyAgJATsZ1AgQIECDQsYAA0PFyHY0AAQIECOQEBICcjOsECBAgQKBjAQGg4+U6GgECBAgQyAkIADkZ1wkQIECAQMcCAkDHy3U0AgQIECCQExAAcjKuEyBAgACBjgUEgI6X62gECBAgQCAnIADkZFwnQIAAAQIdCwgAHS/X0QgQIECAQE5AAMjJuE6AAAECBDoWEAA6Xq6jESBAgACBnIAAkJNxnQABAgQIdCwgAHS8XEcjQIAAAQI5AQEgJ+M6AQIECBDoWEAA6Hi5jkaAAAECBHICAkBOxnUCBAgQINCxgADQ8XIdjQABAgQI5AQEgJyM6wQIECBAoGOB/wPw52cvNsV6VgAAAABJRU5ErkJggg==;fontStyle=1" vertex="1" parent="LJJ_0mSZEH9ZChrVbTYg-22">
          <mxGeometry x="401.00333333333356" y="281.0033333333332" width="78" height="78" as="geometry" />
        </mxCell>
        <mxCell id="LJJ_0mSZEH9ZChrVbTYg-23" style="edgeStyle=orthogonalEdgeStyle;rounded=0;orthogonalLoop=1;jettySize=auto;html=1;exitX=1;exitY=0.25;exitDx=0;exitDy=0;entryX=0;entryY=0.5;entryDx=0;entryDy=0;fillColor=#d5e8d4;strokeColor=#82b366;strokeWidth=2;" edge="1" parent="1" source="LJJ_0mSZEH9ZChrVbTYg-15" target="LJJ_0mSZEH9ZChrVbTYg-14">
          <mxGeometry relative="1" as="geometry" />
        </mxCell>
        <mxCell id="LJJ_0mSZEH9ZChrVbTYg-24" style="edgeStyle=orthogonalEdgeStyle;rounded=0;orthogonalLoop=1;jettySize=auto;html=1;exitX=1;exitY=0.75;exitDx=0;exitDy=0;entryX=0;entryY=0.5;entryDx=0;entryDy=0;strokeWidth=2;fillColor=#d5e8d4;strokeColor=#82b366;" edge="1" parent="1" source="LJJ_0mSZEH9ZChrVbTYg-15" target="LJJ_0mSZEH9ZChrVbTYg-18">
          <mxGeometry relative="1" as="geometry" />
        </mxCell>
        <mxCell id="LJJ_0mSZEH9ZChrVbTYg-15" value="Load Balancer HAProxy" style="shape=image;verticalLabelPosition=bottom;labelBackgroundColor=none;verticalAlign=top;aspect=fixed;imageAspect=0;image=data:image/png,iVBORw0KGgoAAAANSUhEUgAAAgAAAAIACAYAAAD0eNT6AAAAAXNSR0IArs4c6QAAAERlWElmTU0AKgAAAAgAAYdpAAQAAAABAAAAGgAAAAAAA6ABAAMAAAABAAEAAKACAAQAAAABAAACAKADAAQAAAABAAACAAAAAAAL+LWFAAAbAUlEQVR4Ae3YsY0mRRPH4d1PFwI6E5MIcMDGIAcsEthgNoGzLgcMEjlMTHQOEbwf7mxLoxVS9b+ofvBm3mOq+ynnp31+8t94gcenp8f4S7oggfcIfPn4nn/l3xA4QuB/R9zSJQkQIECAAIGLgAC4cHggQIAAAQJnCAiAM/bslgQIECBA4CIgAC4cHggQIECAwBkCAuCMPbslAQIECBC4CAiAC4cHAgQIECBwhoAAOGPPbkmAAAECBC4CAuDC4YEAAQIECJwhIADO2LNbEiBAgACBi4AAuHB4IECAAAECZwgIgDP27JYECBAgQOAiIAAuHB4IECBAgMAZAgLgjD27JQECBAgQuAgIgAuHBwIECBAgcIaAADhjz25JgAABAgQuAgLgwuGBAAECBAicISAAztizWxIgQIAAgYuAALhweCBAgAABAmcICIAz9uyWBAgQIEDgIiAALhweCBAgQIDAGQIC4Iw9uyUBAgQIELgICIALhwcCBAgQIHCGgAA4Y89uSYAAAQIELgIC4MLhgQABAgQInCEgAM7Ys1sSIECAAIGLgAC4cHggQIAAAQJnCAiAM/bslgQIECBA4CIgAC4cHggQIECAwBkCAuCMPbslAQIECBC4CAiAC4cHAgQIECBwhoAAOGPPbkmAAAECBC4CAuDC4YEAAQIECJwhIADO2LNbEiBAgACBi4AAuHB4IECAAAECZwgIgDP27JYECBAgQOAiIAAuHB4IECBAgMAZAgLgjD27JQECBAgQuAgIgAuHBwIECBAgcIaAADhjz25JgAABAgQuAgLgwuGBAAECBAicISAAztizWxIgQIAAgYuAALhweCBAgAABAmcICIAz9uyWBAgQIEDgIiAALhweCBAgQIDAGQIC4Iw9uyUBAgQIELgICIALhwcCBAgQIHCGgAA4Y89uSYAAAQIELgIC4MLhgQABAgQInCEgAM7Ys1sSIECAAIGLgAC4cHggQIAAAQJnCAiAM/bslgQIECBA4CIgAC4cHggQIECAwBkCAuCMPbslAQIECBC4CAiAC4cHAgQIECBwhoAAOGPPbkmAAAECBC4CAuDC4YEAAQIECJwhIADO2LNbEiBAgACBi4AAuHB4IECAAAECZwgIgDP27JYECBAgQOAiIAAuHB4IECBAgMAZAh9eXl4eZ1z15Fu+HnX5P37+Grnvd799E5nrvu9n//r93+//x2/+5Y+ff3jzZvbjL3/+NPuCb273+dvf37yZ/+gvAPN37IYECBAgQGAREAALiRcECBAgQGC+gACYv2M3JECAAAECi4AAWEi8IECAAAEC8wUEwPwduyEBAgQIEFgEBMBC4gUBAgQIEJgvIADm79gNCRAgQIDAIiAAFhIvCBAgQIDAfAEBMH/HbkiAAAECBBYBAbCQeEGAAAECBOYLCID5O3ZDAgQIECCwCAiAhcQLAgQIECAwX0AAzN+xGxIgQIAAgUVAACwkXhAgQIAAgfkCAmD+jt2QAAECBAgsAgJgIfGCAAECBAjMFxAA83fshgQIECBAYBEQAAuJFwQIECBAYL6AAJi/YzckQIAAAQKLgABYSLwgQIAAAQLzBQTA/B27IQECBAgQWAQEwELiBQECBAgQmC8gAObv2A0JECBAgMAiIAAWEi8IECBAgMB8AQEwf8duSIAAAQIEFgEBsJB4QYAAAQIE5gsIgPk7dkMCBAgQILAICICFxAsCBAgQIDBfQADM37EbEiBAgACBReD55eXlsbzd8OL19fV5wxgj/hF4fHqK7Bg+gXYCXz62O5IDEUgJ+AtASt5cAgQIECAQFBAAQXyjCRAgQIBASkAApOTNJUCAAAECQQEBEMQ3mgABAgQIpAQEQEreXAIECBAgEBQQAEF8owkQIECAQEpAAKTkzSVAgAABAkEBARDEN5oAAQIECKQEBEBK3lwCBAgQIBAUEABBfKMJECBAgEBKQACk5M0lQIAAAQJBAQEQxDeaAAECBAikBARASt5cAgQIECAQFBAAQXyjCRAgQIBASkAApOTNJUCAAAECQQEBEMQ3mgABAgQIpAQEQEreXAIECBAgEBQQAEF8owkQIECAQEpAAKTkzSVAgAABAkEBARDEN5oAAQIECKQEBEBK3lwCBAgQIBAUEABBfKMJECBAgEBKQACk5M0lQIAAAQJBAQEQxDeaAAECBAikBARASt5cAgQIECAQFBAAQXyjCRAgQIBASkAApOTNJUCAAAECQQEBEMQ3mgABAgQIpAQEQEreXAIECBAgEBQQAEF8owkQIECAQEpAAKTkzSVAgAABAkEBARDEN5oAAQIECKQEBEBK3lwCBAgQIBAUEABBfKMJECBAgEBKQACk5M0lQIAAAQJBAQEQxDeaAAECBAikBARASt5cAgQIECAQFBAAQXyjCRAgQIBASkAApOTNJUCAAAECQQEBEMQ3mgABAgQIpAQEQEreXAIECBAgEBQQAEF8owkQIECAQEpAAKTkzSVAgAABAkEBARDEN5oAAQIECKQEBEBK3lwCBAgQIBAUEABBfKMJECBAgEBKQACk5M0lQIAAAQJBAQEQxDeaAAECBAikBARASt5cAgQIECAQFBAAQXyjCRAgQIBASkAApOTNJUCAAAECQQEBEMQ3mgABAgQIpAQEQEreXAIECBAgEBQQAEF8owkQIECAQEpAAKTkzSVAgAABAkEBARDEN5oAAQIECKQEBEBK3lwCBAgQIBAUEABBfKMJECBAgEBKQACk5M0lQIAAAQJBgQ/B2UZvEnj+9el50yhjCDQX+Kv5+RyPwD4BfwHYZ20SAQIECBBoIyAA2qzCQQgQIECAwD4BAbDP2iQCBAgQINBGQAC0WYWDECBAgACBfQICYJ+1SQQIECBAoI2AAGizCgchQIAAAQL7BATAPmuTCBAgQIBAGwEB0GYVDkKAAAECBPYJCIB91iYRIECAAIE2AgKgzSochAABAgQI7BMQAPusTSJAgAABAm0EBECbVTgIAQIECBDYJyAA9lmbRIAAAQIE2ggIgDarcBACBAgQILBPQADsszaJAAECBAi0ERAAbVbhIAQIECBAYJ+AANhnbRIBAgQIEGgjIADarMJBCBAgQIDAPgEBsM/aJAIECBAg0EZAALRZhYMQIECAAIF9AgJgn7VJBAgQIECgjYAAaLMKByFAgAABAvsEBMA+a5MIECBAgEAbAQHQZhUOQoAAAQIE9gkIgH3WJhEgQIAAgTYCAqDNKhyEAAECBAjsExAA+6xNIkCAAAECbQQEQJtVOAgBAgQIENgnIAD2WZtEgAABAgTaCHxocxIHKRN4fHp6lH3chwn8lwS+fPwvndZZCZQK+AtAKa+PEyBAgACBngICoOdenIoAAQIECJQKCIBSXh8nQIAAAQI9BQRAz704FQECBAgQKBUQAKW8Pk6AAAECBHoKCICee3EqAgQIECBQKiAASnl9nAABAgQI9BQQAD334lQECBAgQKBUQACU8vo4AQIECBDoKSAAeu7FqQgQIECAQKmAACjl9XECBAgQINBTQAD03ItTESBAgACBUgEBUMrr4wQIECBAoKeAAOi5F6ciQIAAAQKlAgKglNfHCRAgQIBATwEB0HMvTkWAAAECBEoFBEApr48TIECAAIGeAgKg516cigABAgQIlAoIgFJeHydAgAABAj0FBEDPvTgVAQIECBAoFRAApbw+ToAAAQIEegoIgJ57cSoCBAgQIFAqIABKeX2cAAECBAj0FBAAPffiVAQIECBAoFRAAJTy+jgBAgQIEOgpIAB67sWpCBAgQIBAqYAAKOX1cQIECBAg0FNAAPTci1MRIECAAIFSAQFQyuvjBAgQIECgp4AA6LkXpyJAgAABAqUCAqCU18cJECBAgEBPAQHQcy9ORYAAAQIESgUEQCmvjxMgQIAAgZ4CAqDnXpyKAAECBAiUCgiAUl4fJ0CAAAECPQUEQM+9OBUBAgQIECgVEAClvD5OgAABAgR6CgiAnntxKgIECBAgUCogAEp5fZwAAQIECPQUEAA99+JUBAgQIECgVEAAlPL6OAECBAgQ6CkgAHruxakIECBAgECpgAAo5fVxAgQIECDQU0AA9NyLUxEgQIAAgVIBAVDK6+MECBAgQKCngADouRenIkCAAAECpQICoJTXxwkQIECAQE8BAdBzL05FgAABAgRKBQRAKa+PEyBAgACBngICoOdenIoAAQIECJQKCIBSXh8nQIAAAQI9BQRAz704FQECBAgQKBUQAKW8Pk6AAAECBHoKCICee3EqAgQIECBQKiAASnl9nAABAgQI9BQQAD334lQECBAgQKBUQACU8vo4AQIECBDoKSAAeu7FqQgQIECAQKmAACjl9XECBAgQINBT4EPqWC8vL4/U7PPmvh515T9+/hq573e/fROZ677vZ//6/d/v/8dv/uWPn39482b24y9//jT7gm9u9/nb39+8mf/oLwDzd+yGBAgQIEBgERAAC4kXBAgQIEBgvoAAmL9jNyRAgAABAouAAFhIvCBAgAABAvMFBMD8HbshAQIECBBYBATAQuIFAQIECBCYLyAA5u/YDQkQIECAwCIgABYSLwgQIECAwHwBATB/x25IgAABAgQWAQGwkHhBgAABAgTmCwiA+Tt2QwIECBAgsAgIgIXECwIECBAgMF9AAMzfsRsSIECAAIFFQAAsJF4QIECAAIH5AgJg/o7dkAABAgQILAICYCHxggABAgQIzBcQAPN37IYECBAgQGAREAALiRcECBAgQGC+gACYv2M3JECAAAECi4AAWEi8IECAAAEC8wUEwPwduyEBAgQIEFgEBMBC4gUBAgQIEJgvIADm79gNCRAgQIDAIiAAFhIvCBAgQIDAfAEBMH/HbkiAAAECBBYBAbCQeEGAAAECBOYLCID5O3ZDAgQIECCwCAiAhcQLAgQIECAwX0AAzN+xGxIgQIAAgUXg+eXl5bG83fDi9fX1ecMYI/4ReHx6iuwYPoF2Al8+tjuSAxFICfgLQEreXAIECBAgEBQQAEF8owkQIECAQEpAAKTkzSVAgAABAkEBARDEN5oAAQIECKQEBEBK3lwCBAgQIBAUEABBfKMJECBAgEBKQACk5M0lQIAAAQJBAQEQxDeaAAECBAikBARASt5cAgQIECAQFBAAQXyjCRAgQIBASkAApOTNJUCAAAECQQEBEMQ3mgABAgQIpAQEQEreXAIECBAgEBQQAEF8owkQIECAQEpAAKTkzSVAgAABAkEBARDEN5oAAQIECKQEBEBK3lwCBAgQIBAUEABBfKMJECBAgEBKQACk5M0lQIAAAQJBAQEQxDeaAAECBAikBARASt5cAgQIECAQFBAAQXyjCRAgQIBASkAApOTNJUCAAAECQQEBEMQ3mgABAgQIpAQEQEreXAIECBAgEBQQAEF8owkQIECAQEpAAKTkzSVAgAABAkEBARDEN5oAAQIECKQEBEBK3lwCBAgQIBAUEABBfKMJECBAgEBKQACk5M0lQIAAAQJBAQEQxDeaAAECBAikBARASt5cAgQIECAQFBAAQXyjCRAgQIBASkAApOTNJUCAAAECQQEBEMQ3mgABAgQIpAQEQEreXAIECBAgEBQQAEF8owkQIECAQEpAAKTkzSVAgAABAkEBARDEN5oAAQIECKQEBEBK3lwCBAgQIBAUEABBfKMJECBAgEBKQACk5M0lQIAAAQJBAQEQxDeaAAECBAikBARASt5cAgQIECAQFBAAQXyjCRAgQIBASkAApOTNJUCAAAECQQEBEMQ3mgABAgQIpAQEQEreXAIECBAgEBQQAEF8owkQIECAQEpAAKTkzSVAgAABAkEBARDEN5oAAQIECKQEBEBK3lwCBAgQIBAUEABBfKMJECBAgEBKQACk5M0lQIAAAQJBAQEQxDeaAAECBAikBARASt5cAgQIECAQFBAAQXyjCRAgQIBASkAApOTNJUCAAAECQYEPwdlGbxJ4/vXpedMoYwg0F/ir+fkcj8A+AX8B2GdtEgECBAgQaCMgANqswkEIECBAgMA+AQGwz9okAgQIECDQRkAAtFmFgxAgQIAAgX0CAmCftUkECBAgQKCNgABoswoHIUCAAAEC+wQEwD5rkwgQIECAQBsBAdBmFQ5CgAABAgT2CQiAfdYmESBAgACBNgICoM0qHIQAAQIECOwTEAD7rE0iQIAAAQJtBARAm1U4CAECBAgQ2CcgAPZZm0SAAAECBNoICIA2q3AQAgQIECCwT0AA7LM2iQABAgQItBEQAG1W4SAECBAgQGCfgADYZ20SAQIECBBoIyAA2qzCQQgQIECAwD4BAbDP2iQCBAgQINBGQAC0WYWDECBAgACBfQICYJ+1SQQIECBAoI2AAGizCgchQIAAAQL7BATAPmuTCBAgQIBAGwEB0GYVDkKAAAECBPYJCIB91iYRIECAAIE2AgKgzSochAABAgQI7BMQAPusTSJAgAABAm0EBECbVTgIAQIECBDYJyAA9lmbRIAAAQIE2gh8aHMSBykTeHx6epR93IcJ/JcEvnz8L53WWQmUCvgLQCmvjxMgQIAAgZ4CAqDnXpyKAAECBAiUCgiAUl4fJ0CAAAECPQUEQM+9OBUBAgQIECgVEAClvD5OgAABAgR6CgiAnntxKgIECBAgUCogAEp5fZwAAQIECPQUEAA99+JUBAgQIECgVEAAlPL6OAECBAgQ6CkgAHruxakIECBAgECpgAAo5fVxAgQIECDQU0AA9NyLUxEgQIAAgVIBAVDK6+MECBAgQKCngADouRenIkCAAAECpQICoJTXxwkQIECAQE8BAdBzL05FgAABAgRKBQRAKa+PEyBAgACBngICoOdenIoAAQIECJQKCIBSXh8nQIAAAQI9BQRAz704FQECBAgQKBUQAKW8Pk6AAAECBHoKCICee3EqAgQIECBQKiAASnl9nAABAgQI9BQQAD334lQECBAgQKBUQACU8vo4AQIECBDoKSAAeu7FqQgQIECAQKmAACjl9XECBAgQINBTQAD03ItTESBAgACBUgEBUMrr4wQIECBAoKeAAOi5F6ciQIAAAQKlAgKglNfHCRAgQIBATwEB0HMvTkWAAAECBEoFBEApr48TIECAAIGeAgKg516cigABAgQIlAoIgFJeHydAgAABAj0FBEDPvTgVAQIECBAoFRAApbw+ToAAAQIEegoIgJ57cSoCBAgQIFAqIABKeX2cAAECBAj0FBAAPffiVAQIECBAoFRAAJTy+jgBAgQIEOgpIAB67sWpCBAgQIBAqYAAKOX1cQIECBAg0FNAAPTci1MRIECAAIFSAQFQyuvjBAgQIECgp4AA6LkXpyJAgAABAqUCAqCU18cJECBAgEBPAQHQcy9ORYAAAQIESgUEQCmvjxMgQIAAgZ4CAqDnXpyKAAECBAiUCgiAUl4fJ0CAAAECPQUEQM+9OBUBAgQIECgVEAClvD5OgAABAgR6CgiAnntxKgIECBAgUCogAEp5fZwAAQIECPQUEAA99+JUBAgQIECgVEAAlPL6OAECBAgQ6CkgAHruxakIECBAgECpgAAo5fVxAgQIECDQU+BD6lgvLy+P1Ozz5r4edeU/fv4aue93v30Tmeu+72f/+v3f7//Hb/7lj59/ePNm9uMvf/40+4Jvbvf529/fvJn/6C8A83fshgQIECBAYBEQAAuJFwQIECBAYL6AAJi/YzckQIAAAQKLgABYSLwgQIAAAQLzBQTA/B27IQECBAgQWAQEwELiBQECBAgQmC8gAObv2A0JECBAgMAiIAAWEi8IECBAgMB8AQEwf8duSIAAAQIEFgEBsJB4QYAAAQIE5gsIgPk7dkMCBAgQILAICICFxAsCBAgQIDBfQADM37EbEiBAgACBRUAALCReECBAgACB+QICYP6O3ZAAAQIECCwCAmAh8YIAAQIECMwXEADzd+yGBAgQIEBgERAAC4kXBAgQIEBgvoAAmL9jNyRAgAABAouAAFhIvCBAgAABAvMFBMD8HbshAQIECBBYBATAQuIFAQIECBCYLyAA5u/YDQkQIECAwCIgABYSLwgQIECAwHwBATB/x25IgAABAgQWAQGwkHhBgAABAgTmCwiA+Tt2QwIECBAgsAgIgIXECwIECBAgMF9AAMzfsRsSIECAAIFF4Hl548U4gcenp8e4S7kQgX8j8OXjv/m//D8ERgr4C8DItboUAQIECBC4FxAA9z5+JUCAAAECIwUEwMi1uhQBAgQIELgXEAD3Pn4lQIAAAQIjBQTAyLW6FAECBAgQuBcQAPc+fiVAgAABAiMFBMDItboUAQIECBC4FxAA9z5+JUCAAAECIwUEwMi1uhQBAgQIELgXEAD3Pn4lQIAAAQIjBQTAyLW6FAECBAgQuBcQAPc+fiVAgAABAiMFBMDItboUAQIECBC4FxAA9z5+JUCAAAECIwUEwMi1uhQBAgQIELgXEAD3Pn4lQIAAAQIjBQTAyLW6FAECBAgQuBcQAPc+fiVAgAABAiMFBMDItboUAQIECBC4FxAA9z5+JUCAAAECIwUEwMi1uhQBAgQIELgXEAD3Pn4lQIAAAQIjBQTAyLW6FAECBAgQuBcQAPc+fiVAgAABAiMFBMDItboUAQIECBC4FxAA9z5+JUCAAAECIwUEwMi1uhQBAgQIELgXEAD3Pn4lQIAAAQIjBQTAyLW6FAECBAgQuBcQAPc+fiVAgAABAiMFBMDItboUAQIECBC4FxAA9z5+JUCAAAECIwUEwMi1uhQBAgQIELgXEAD3Pn4lQIAAAQIjBQTAyLW6FAECBAgQuBcQAPc+fiVAgAABAiMFBMDItboUAQIECBC4FxAA9z5+JUCAAAECIwUEwMi1uhQBAgQIELgXEAD3Pn4lQIAAAQIjBQTAyLW6FAECBAgQuBcQAPc+fiVAgAABAiMFBMDItboUAQIECBC4FxAA9z5+JUCAAAECIwUEwMi1uhQBAgQIELgXEAD3Pn4lQIAAAQIjBQTAyLW6FAECBAgQuBcQAPc+fiVAgAABAiMFBMDItboUAQIECBC4FxAA9z5+JUCAAAECIwUEwMi1uhQBAgQIELgXEAD3Pn4lQIAAAQIjBQTAyLW6FAECBAgQuBcQAPc+fiVAgAABAiMFBMDItboUAQIECBC4FxAA9z5+JUCAAAECIwUEwMi1uhQBAgQIELgXEAD3Pn4lQIAAAQIjBQTAyLW6FAECBAgQuBcQAPc+fiVAgAABAiMF/g8MfVcjcssk+QAAAABJRU5ErkJggg==;fontStyle=1" vertex="1" parent="1">
          <mxGeometry x="1309.0033333333336" y="253" width="78" height="78" as="geometry" />
        </mxCell>
        <mxCell id="LJJ_0mSZEH9ZChrVbTYg-21" style="edgeStyle=orthogonalEdgeStyle;rounded=0;orthogonalLoop=1;jettySize=auto;html=1;fillColor=#d5e8d4;strokeColor=#82b366;strokeWidth=2;" edge="1" parent="1" source="LJJ_0mSZEH9ZChrVbTYg-20" target="LJJ_0mSZEH9ZChrVbTYg-15">
          <mxGeometry relative="1" as="geometry" />
        </mxCell>
        <mxCell id="LJJ_0mSZEH9ZChrVbTYg-20" value="USERS" style="shape=image;verticalLabelPosition=bottom;labelBackgroundColor=default;verticalAlign=top;aspect=fixed;imageAspect=0;image=data:image/png,iVBORw0KGgoAAAANSUhEUgAAAgAAAAIACAYAAAD0eNT6AAAAAXNSR0IArs4c6QAAAERlWElmTU0AKgAAAAgAAYdpAAQAAAABAAAAGgAAAAAAA6ABAAMAAAABAAEAAKACAAQAAAABAAACAKADAAQAAAABAAACAAAAAAAL+LWFAABAAElEQVR4AexdBXwUVxOfAjFCEhKCu7s7FC1aKAUKFKkrdaP61YV6oaVChQpWWkopUtyluAe3hAQIEBIgSNB+8184GkLkbt/bu727GX7DXXb32X/39s2bN0IkJAgIAoKAICAICAKCgCAgCAgCgoAgIAgIAoKAICAICAKCgCAgCAgCgoAgIAgIAoKAICAICAKCgCAgCAgCgoAgIAgIAoKAICAICAKCgCAgCAgCgoAgIAgIAoKAICAICAKCgCAgCAgCgoAgIAgIAoKAICAICAKCgCAgCAgCgoAgIAgIAoKAICAICAKCgCAgCAgCgoAgIAgIAoKAICAICAKCgCAgCAgCgoAgIAgIAoKAICAICAKCgCAgCAgCgoAgIAgIAoKAICAICAKCgCAgCAgCgoAgIAgIAoKAICAICAKCgCAgCAgCgoAgIAgIAoKAICAICAKCgCAgCAgCgoAgIAgIAoKAICAICAKCgCAgCAgCgoAgIAgIAoKAICAICAKCgCAgCAgCgoAgIAgIAoKAICAICAKCgCAgCAgCgoAgIAgIAoKAICAICAKCgCAgCAgCgoAgIAgIAoKAICAICAKCgCAgCAgCgoAgIAgIAoKAICAICAKCgCAgCAgCgoAgIAgIAoKAICAICAKCgCAgCAgCgoAgIAgIAoKAICAICAKCgCAgCAgCgoAgIAgIAoKAICAICAKCgCAgCAgCgoAgIAgIAoKAICAICAKCgCAgCAgCgoAgIAgIAoKAICAICAKCgCAgCAgCgoAgIAgIAoKAICAICAKCgCAgCAgCgoAgIAgIAoKAICAICAKCgCAgCAgCgoAgIAgIAoKAICAICAKCgCAgCAgCgoAgIAgIAoKAICAICAKCgCAgCAgCgoAgIAgIAoKAICAICAKCgCAgCAgCgoAgIAgIAoKAICAICAKCgCAgCAgCgoAgIAgIAoKAICAICAKCgCAgCAgCgoAgIAgIAoKAICAICAKCgCAgCAgCgoAgIAgIAoKAICAICAKCgCAgCAgCgoAgIAgIAoKAICAICAKCgCAgCAgCgoAgIAgIAoKAICAICAKCgCAgCAgCgoAgIAgIAoKAICAICAKCgCAgCAgCgoAgIAgIAoKAICAICAKCgCAgCAgCgoAgIAgIAoKAICAICAKCgCAgCAgCgoAgIAgIAoKAICAICAKCgCAgCAgCgoAgIAgIAoKAICAICAKCgCAgCAgCgoAgIAgIAoKAICAICAKCgCAgCAgCgoAgIAgIAoKAICAICAKCgCAgCAgCgoAgIAgIAoKAICAICAKCgCAgCAgCgoAgIAgIAoKAICAICAKCgCAgCAgCgoAgIAgIAoKAICAICAKCgLMI3ODshXKdUwjk4avKMVdlLsVcmLnElc+C/BnIHMocwJyP2VvpPHf85JXOH+PPf5mTmQ8xH2FOvPL9IH/uZI5jvsQsJAgIAq4jgPc03iMVmUsy411S5MonvoNxTSQzKC9zkPHNu/47w91Nu9Ll4/yJv48yJ135xLslgTmWeS8z3i9CCgiIAGAePEz2dZhbMDdgrsaMid8bf3jcbUvpLNe+i3kH83bm1cyrmPcxCwkCgsB/CGCCx/ukPjPeJ5j0KzCHMAtdiwCEhT3MMcwbr/Am/oxlFnICAREAnAAp3SXV+Xs35lbMzZjDmIXMIwCNwUpmCAPzmZczX2AWEgT8AQFoAhsxt2VuzIyJH1pDITUEoCn4h3npFV7Dn1iECGVAQASADIBk+DMX/92c+Vbm7szlmYWsQ+AEV72AeRbzbGZoDIQEAV9CoBYPpj0zJv2WzN68Fcjd9wrCVsJC5ulXGNuSQoJAlghADfcaM9RL2N8W9gwGmxn7N5ixvSIkCHgjAlhkYZX/ITO2weRd4nkMcB8+ZYbWRRbBDILQ5QehMwMBKRFqaPmh2gsD7O1BKCvFLCQI2B2BmtzBz5hh5yLvEvtisJfvD4Sz2sxCfogA1Py3MGMfWn6o9sfgIt8nbA/0ZoYhppAgYBcEwrkjdzHj+ZR3ifdhAOPkp5gd3hT8VchXEcjNA3uQOY5ZfqzeiUE837vXmaOZhQQBTyEA4+ARzKeY5V3i/Rik8n38jhn3VcgHEWjHY9rALD9W38AA7kDfMsv2AIMg5DYEbuSWpjBfYpZ3iW9isITvLTTEYivAIHg71eABzGOWH6tvYnCO7+2PzJWYhQQBKxDARNCDGepieY/4DwZr+H7DG0wEAQbB2wj+ti8yY6UoP1rfxwB2AiOZizILCQK6EIDmEHEr5B3ivxgg4BDsj4S8BIFW3E9En5Mfrf9hcJLv+1vMYcxCgoBZBFpwwUXM8g4RDBzPAIIMNTX7QEk56xGAhfj7zFgNOm6afPonFshNcDezqO8YBCGnESjBV/7GLO8NwSCzZwC2H6OZ8ZwI2QiB0twXhILM7KbJMf/FZT4/E5Vt9JxKV+yJAPJ5vMwMDZK8LwSDnJ4BPCevMeO5EfIwAojVn8Kc002T8/6JEexA3mQOZhYSBDIicBMfQAhqeT8IBq4+A1v4uWme8YGSv92HwAvclKj85YfrzA8XYYaRzVFIEAACiMn/DbO49Mn7w5n3R1bXYP75ihlBoWxPvrInGshID2e+126IB+TORVFhQVQgXxBFhAZRLkY8b1Ae/vRu6M9duETnLlykS/wzOHH63GU+c56O83cvorPc11eZEbIVL34h/0SgDQ97BHNZbxp+WEgAhecNpHB8hgRSntw3UECeXBSUBzHOvJPOnLtAF/mlcpbfL6lnzjFffqecSrvgbQNCCOi7mBfauePePQtdRhaS1iTm1pf/9Mz/N/CEXrZQPqpQNILKFMxHpZlLRuej/KGQTfyHLv37LyWdSKODKWeYT1PisdO0L+kU7T54glJOYb61Jc3jXt3NnGDL3kmnrEIAe7YfMz/ObMt3YQRP8GULh/G7JYyKRualwvlDqHBECBWKCOYJP5dVuNiuXiw4DvG75NDxNP48QwlHT1Hs4VSKO3KSTqadt11/r3QI2oCPmN9gtmUnbfnQXwHPmQ/EbJ7BjGxbbqdC/ENsXLEg1S5TgKqVzE/5ghFuQCgrBI6mnqXdiSdo2/5jtDEu2fgOad8mdJT70Y8ZcdyFfB+BcjzE35nr22WomNArFA2naiXyU/WSkVShSDhFsuZQKHsEjvCCY8eB47QlIYW2JhyjvYdSDS1C9qXcehZ5Zvoz73Jrq0405s0CAOK/z2Ku68Q4tV1SMDyYWtcoSk0rFzZ+oNoq9sOKTp+9QJvjU2jtniRaseMIJaXCPs+jBIkd1t+fMNtGMvEoIr7ZOCL5/cic39PDw6q+QYVoali+IC8iIimQVfhCaghgG2FDbDKt2Z1kvFsgINiAjnMf7mRG6GjbkLcKAAUZwfnMbknWgP16/Eg71SlB9ctHE9T9QnoRwGy7k6X45TsO0+KtiYaaT28LLtWGleF9zKdcKiUX2x0BxAaByh8Z3zz2Iy7FW4Mtqxeh5ryIKF4g1O6YeX3/9rBGYAm/U2zwXsFr7j3mN5htYXPksR+BwlMFa13s2TZUqMOpolDJteHVfq+mZY39N6cKyUXKCOBXEsNbBHM2HqB/th+is+exMHc7IeRnF2axC3A79JY0GMG1IqhPR0tqz6FS2AK1rVmMWlcvSmV4P1/IMwhgq2Auv1cWbjlI0EB6iLBt3ZcZWgGPkrcJALCom8rc3krUsOLvUKc49WlWjqJZ5S/kOQTwI52zcT9NXrWPDh8/4+6OIN1wZ+bN7m5Y2tOKQFmuDe+NalprdaKyGqUiqXPdkrxlWMivjPacgMajl6TxomLJlkSati6edrGBsgcohtvEAmOfB9q+2qQ3CQDYHBvDDMnJMqpdJooeaFfFsOK3rBGp2GUE4F2wbPthmrgi1jD4cbkC8wUQVKob8xLzVUhJDyKAwCwTmbFt6BbKzb6+LaoWoZ5Nyshq3y2IqzUSsy+F/loZS6t2JdG//J5xIx3ktroyr3Vjm9c05U0CwJvcc+ydWEJQ0T3coSo1r1LYkvqlUn0IrGbjnrGLdtEu9ihwE0H1MIAZE4mQ9yCAl+t4Zreo8RDzowPbCfVoXJrd9EK8ByXpqYFAPLsWjluym+0FDrlTEDjJjfdmxraA28lbBAD8kCcxW2Ii26JaEWPyR0ANIe9AAHL6CjYYHLVwF8Un4TdkOWHDEEIADASF7I8ANIUjmS3/UWPLsE3NotS/RQWCl5CQdyOA2AJYYMAg2U36AERPgwvyn+5GzhsEgIoMykpm7S47wYG56YnO1QkCgJB3IoA4AtPWxNPYJbvIDdHCIATgh/qHd6LlN72+n0f6LbPlIfEaVChI97apaAT98ht0/WSgiCnw/Zxt7rIRwLvlXubR7oTX7gIA9GiY/GvoBqUku9+8dFsdwqeQ9yOAEMQjF+ykORv2Wy21n2e0sLp0u7Tu/XfJLSN4klsZymzpu60IR+SDrVAjDgQm5LsIwCZg7qYDxrvl2CnLw5zDNfBh5h/chailPxINgxjCdTytoZ5rqsCPdlC3WgQNgJBvIYAIg8OmbbY6jgCEAOzbYVtKyD4IPMhdwcrfsvcaXIN7s1vwbcwStMc+N97qniDc8I9zd7ALoeULDAgB9zCPsnpMqN+yH4qGzrfhOuYwa93371yvJO/3V/H6ZDwa8PXZKtLOXaSf5++g6WvjrdQGwDCwHfM/Pgukdw0MWzNQn2p9X6SHoBzH5H+6aw2x7E8Pip99xwLjy+lbKJHznFhI2A6AlnGChW0YVdtVAIjg3m1gLq0TgDtbVaTezcrqrFLqsjECCDE8ZEqMlRkKkT+gOfN2G8PgD13rxoOEXYYlBn9w6+vTvJwRFwTfhfwbASwwvpu9zYhPYiES2G/ozjzdwjZsqwGAGu8hnQO/mw11bmsik79OTL2hLiQg+mTSRiPngEX93cv1NmNOtKh+qTZ7BFrzabwkLTG/h1X/87fWoiqcoEdIEEiPwNJth+gr1gZYmI3wFLfXmnl1+nZ1frejONuAB7iCWZsqb0DLCnQ7S/BC/okAggiNZnfBCcv2WrUlsIaRbclsqV7QP+9etqOGh9By5qhsrzJ5ErZCT3WpQWHiHmwSQd8vhuik7/+5wchsatFosbBowhxnRf12EwAw6S+9MmAt4+3euAzd17aSlrqkEu9GYEHMQd6/20zILW4BjeE67zBRbx4uU5IZEipUVPjE1lcYM7xgsPTE6jbvle92+81yt3KklCtXIHITEjtgZYPgDYeZ8YI7dOV7An/uZEaEtJwIk/4yZu0/biT7uoMXDb14u9Abwc4JODmvFwG8T76esYXmsbeARbSZ672R+Zju+u32fN/LA/xR1yCbVCpEL/esLdn7dAHqA/Vs23+MBk9YTxa59MAFbVg2MMHtBC6tjdMxJjBL9q65Xm+lVO74jiu8lT+hYYEaFAIDCHjNYG6LP3QSPIOevaUm4d0hJAi4gsCU1ftoxJztBI2jBTSb6+zMrDUzml0EAPSjP/MXzFrUeRWKhtP7AxpSUIC4+jGmQukQOHTsDL02bo0VlrxwD8SktCRdc1X4e1fmm5kbMUvgCQbBJMVxOQgC0IwAT62ExF+v9a5LZSVbn1Zc/amylTuPGDZHSDZkAb3Pdb6is147CAC1eUBYNbXQNbB8wQH0+f1NJSynLkB9sJ6Uk2fpdRYCEPZTM0F9/Qhza2ZM/BWYhWyOAAKCvdW3vmT/tPl98obuIbvg2+PXWqFlhGqhJ/NfunDwpACAPc7BzHhZalumY0Avc4Q/UeExEELZIpB65jy99ftad2cXzLZPctL9CFQqFkFv9Kknxn7uh95nW9yffJpe+3U1JZ1I0z3GE1xhQ2ZskSmTtonXxZ5gtT+TuSNzLhfLZnt51wal6NZGsKESEgSyRwDbQzdy2tb1sUcpmTUCQv6HQM1SUfTW7fUpNBi2mEKCgB4EkFiuaeVCtJJTDGt2EwziHsIg8Cdm5X0GdwsA6Pz7zN8xa9nr53quEuJzv9yzDiFcp5Ag4AwCAXlyUbPKhWkNpxhGPgEh/0GgGvv2v3F7PQkJ7j+33K0jDeWtaKSXX8F2AZqFgKI8EHgGwTBQidwpAJTnnqLD2MPQvvWACl/oXptKSHIfRkLIFQSgCYAQsHLnYcK2gJDvI1CleH56s289CgmUlb/v323PjRDPV2OOJ/HP9sN0+iwi/GqjplwTjI33qtTorqUyLHZXMcPgzxJqU7MY1SlbwJK6pVLfRyB/aCC9yargiLyBvj9YGSHlYxXtwZQzgoQgYDkChSJC6J1+DSgyFApwbYS5eySzUohKqzUAWJi/yDyCOS+zJRTMK7hXe9UVad4SdP2nUniP1CwdSQs3J9LFSzC4FfJVBA6wkdaMdQm0hXO+F4vKK9b/vnqjbTIu2ATUKh1FC7ccpAsXtb1bwnl42EqfanaYVgoAWEqNYn6GWbvKP/2AkZqzUUUJ3JEeE/luDoECYcFUNDIvLeM430K+jwBiQszesJ+2HzhGpdn/X/MqzfcBlBE6jUBUviAjxsTirYd0hiSvxx1YyBzrdEfSXWiVAJCP24CvYvd0bVnyFSrb57vXIhhzCQkCqgj8y1G81u05Spv2pVgV0Uu1i1LeAgSwHTBz/X6CQFC+SDiFBoltgAUw+32VxaJC2d000DA61gQGFtfNmX9gdtnIwAoBoCB3ZBYzkqNYTgNalGe1rXaHAsv7LQ3YDwEk9kCYYEwEFoXztN+gpUfXILD3cCpvDcTT+YuXCIaCkv73GnjkDw0IIO5EUmoa7TmEiNdaCMZv2FeY72ptugUATP7oRB1XO2LmehhuPdutprj9mQFPylyDwILNB+md8esIATyE/BsB2H9sjk+hRbxfi+0grNqEBAGdCNQtG03r9mqNP4LgQEhIdsyVfuoUALAMn8Ncy5UOmL0WKTofbl+VyrG6TkgQMIvABV7pfc8JPEYu2Gms+szWI+V8D4GTaRfYaCuRYlkrUKNUpBgZ+94t9tiIoFmqVy6aFsQcoLN6spMiQVZx5vGuDEqXAIBZGGr/+q40buZaROzq06wcDbq1FiHhj5AgYBaBo6lnOWb3Olq2XQz+zGLoD+USjp6iuZzqtWB4CJUuCPMmIUFAHQHYmUC7tHgrMmJroepcCzTwcc7WpsM6H86Nlu/5B7KRX5f6pagXW/xj9S8kCKgggL3et35ba8sQwIGBQRSaL4xC8oZSnjwBzHko9xVWGbOnyv576RKdP3c5yuKFCxfo3Lk0Sks7Q2fPnDE+YXjpLYTIbgM7VpV4Ed5yw7ygn19O30Kz1ifo6imyZSLrqFM/Kh0CwC/c2F26ep9ZPS04Xvs9bStJdr/MwJFjLiOwgWP/v//nBt2RuVzuR1BwMBUuUpyiChSkqOhCFBkVTeERkZQnwH8EXEz+p06mUuqJ43Qy9TgdP5ZMyUePUHLSET7m0namy/ibLRDJ7lyDbq1JyCMgJAioIoDUwc/8uEyn/VEP7tNfzvRLVQB4mRtBRj9LqCDn536Epe0GFWBbKCQIqCOwIOYgff53jEcC/eTOnZuKlShNJUqXo6LFSxkT/w03qP4E1TGxaw3nzp2lI4cO0qGDCczsope4/6omwdN9zsX3rR97IPVpVpbkHnr6bnh/+zA6fWX0KueW7TkPdyNfUpf5Uk6Xqrx9enLlMDiwxAG/c92SdC+v+oMDdZkp5ASFnPd1BOZwwJdhrG5zp8o5V65cVKpsBSpXoQqVLFOeoN4XMofAJd5KgDCQELeH4vftpaNHPG+7UbtMASMOCSK9CQkCKgh8PWOLEZ1SpY50ZW/n77+n+zvTr2YFgPJc21pm7VZ4MPJ7vHN1I4tSpj2Wg4KACQTmbOTJf5r7Jv+w8PxUpXptqlStFuXlvXwh/Qhgi2DPrm20Z8c2SjqizZDK5Y4iC+n/OBS5GAi6DJ0USIcAkgU9+t1SXXZJm7nqmszZ2gKYEQAQ4hdZiOB3qJUQgeulHrWpMP+ghAQBXQjMYwvuz//e7JaVP/by6zZoSmV5xS+qYV13MOd6jqck07YtG2jn1k105oz7Yzkg69tzHJOkEWd+ExIEzCKAeCSfTd5ktnjGcl34wLSMB9P/bUa//iFX0Ct9JTq+N+ZY/q/1qUsI7iMkCOhCYPWuI/QJ/6CsjuwXyYZ8LW/qTE1btCN8l8lf1x10rp7gkBAqUaos1ajdgG0rCtHpU6mGcaFzpdWvQjwJxHiHa1dljiAoJAiYQQD5KNZzgCBECtRARbkOZAzMklwVANpzTV8zm9EcZNmJWxuVpie6VKeA3JaYE2TZrpzwbQR2HjxuRPdDWFerCBNP4xvbUou2nQ0rfqvakXqdQ+AGtrmILBBNlavVZmPLsnTu7FnDs8C50upXreU8Euc4sEttTk2u9SWp3jWpwQsQwDODrSQkqNJAZbmOKcwHs6rLFQEA6XyhTtDq+zKgZQW6s1VFWTFldYfkuCkEEjmpy6tjV9Mp3lezijDJdLylFxUtVlKeX6tAVqg3X75wKlexqrEdk8bbAinJSQq1OV90K6cYTjqRZngvwVtASBBwBQFkJE1IPkX7jpx0pVhW18IAaWJWJ10RAN7jSrpmVZGZ43e3qUi9OaqfkCCgE4Gz7Ff7+rg1RmY3nfU66soXFk43de5ONes2NIL0OI7Lpz0RCAnJy4JAFSpTvhKdPHmCThxLsbyjSPSCF3gzDhwkQoDlcPtcA9ACTF+bkL0Fn3OjrsSXfcN8JrPLnRUA4FP4I7M2Hf1drSsaUf0y65QcEwRUEIC1P/bRrCC483W6tY+o+60A1+I64Y1RoXJ1KlSkmOE1kMaRCK0khBCOEyHASoh9tu5wTnMPLSYilioS8lofYF6RWT3OCADQYU1gLp1ZBWaOIaQvBAAhQUA3AtPWxtMfy/bqrpbgz9+E9/qbtLiJcueWXPHaAXZjhRH5I6lqjboUFBREiRxXAPEFrCIIAaIJsApd3663DGsB/l4Tr0MLUJKRghbgOnJGAIDF/7PXlTR5oGmlQvRk1+qyZ2oSPymWNQLI2vYBh/jVbfEfHBxCnbr1MfaTs25dzngTAvDSKFy0OFWoVI2OpRylE8etCzsMISA+6ZSxHSDeId70lHi2r/k4uBQ0SHh2FKkQl5/JfF3CgZwEAPjk/cmsxfAP+xpv3F5PrP0ZUCG9CMANC5n9kOFPJyGgT9ce/Sm6UBGd1UpdNkEgKCiYKlapQbDrOLA/ji5dvGhJz+JZCDh+6jw1lLDmluDrq5UWigihWXo8ArDfNT0jTjkJAI9ygQEZC5n5Oy/7x77TrwEhkYa3UOqZ80ZoxlELd1GrakVYDSwWvXa9d2MX76Yl2/SGhi1QsDB16dmfwsIj7Dps6ZcmBKL5XsNj4MihA5bFD9iVeMLobc3SWtZTmkYu1dgZAXgEbIxLpiPsVaJIpbj8EOZrIgNmJwAE88XY+9eSAPs5zp5VvWQkV2d/QmKG0Tzpfzl9M63enUSHj5+h4py3uQwHaRCyHwLw9//CiPSnr2/G5N+9H8GCXMg/EEB2xkpVa9K/ly4atgFWjDpmX4qxCKpQVHsUdSu6K3XaAIHAPLnpn+3KixtMXvOZ49IPKTsB4AG+sG/6i81+b1eruO0t/k+lXaD5MRwydmoMTVgeS7G893Lx0n/C0mGWwDrVLWEWAilnEQJI7IPUvvC71kX5IwtQl+59KVgmf12Qek092KMvXrIMFSxchOI56dDFi/rjSKzdk0TVeDEkIc+95rHwaEeLR+U1NNFwb1YkbAP8nb6OrAQAHB/DXCD9xWa+R7HK/3+96hCkGLsRpvfNLJFDxT9s2mZavuMwHT99LtNuppw8S1DdYU9GyD4IzN54gP1l47V1COr+br3uoBBJ4KMNU2+sKCJ/FJUtV4kS4vfS2TS8N/URy6y0ikNUN69cmGDoJSQIZIcAtp6Tef7ZfuB4dpc5c644X4RtgKuU1azck6945OpVCl+e61aLyha2l+oce/vT1yXQMFYbT1wRa1hapl/tZzXco3wT2tQoltVpOe5mBE6mnafBE9aTBsnY6DlS9Xbp0Y/3/CWWu5tvpS2bQ5jnCpWq06HE/XQy9fL+va6OIlzwhthkalOzqBhF6wLVh+uBLYCGhQ4m4onMV/cTshIAvuWLSqvi2YAtXvu3KK9ajZbyGVf7a3hv/wQLAq4QAjNUK5mfiuSXfWFXcLPiWthlDOHtGrjJ6CD4+Xfo2ssIEqOjPqnDNxDIkyePETwIboIpR49oHRS0jXinNOdogUKCQHYIIEneUjZyzkpDnV3ZDOdgA7DEcSwzAQChAz9iVjJ5z81qi1dvq0OIaGQHmrEunj6cuMGYMFT8xOGT2YFtAZTAsQMgXtoHJPZBoJ9PJm2i/exapYsaNmtluIPpqk/q8R0EIByWrVCZ0tJOs5dAlnlVTA14X9JJIwNqxaIRpspLIf9B4MSZc7SJt6wVCXtOPzvqyCy07318Unl+Q7S/4gWQh8Ae1KJqEQoOzEzeca1/cOVZsiXRtUJytRYEYDz1xA//0JhFu7Sp/dGxkqXLUe16TbT0USrxXQSat+pgyXMyYu52Qu4AIUEgOwQwh2mgZlzH1T35jDMiYpz+nP4C/u4yBebJRS/1rKNlwnW58SwKwAgx+eQ5gsuYKu1gY4z2tYtTAI9TyHoETnNGv2Hskvnz/J0E+w2dlDc0H3W+9XYKCBBjLJ24+mpdxUuVYU/qf+nggXhtQ4T90Sb29W7H75Q8khJdG66+VhG06Yu3Jrq8dZ0BB8z585n34HjGGaw9HyuKEyrUsU4JQ62lUocVZbs1LKUlBHFSahp7Duy0ootSZwYEIGw9/eMyWhCjV/XqaKZ56w7i6+8AQz6dQqB+kxZUq24jp6519qL9yafpFxZw7UzwhML2G7bhhDyDQP3y0Toabu6oJKMG4Hk+Ud9x0swnJNgXetQiRP6zG4Wxy00sq9oQm1uVdiWmUt2yBSg6HPGShHQjAP/+P5bF0pApm7Sv+h19LVO+MtVvdKPjT/kUBJxGoESpsnTm9ElKOqxvO3AXaydrlLJnfIANsUeNFNsrdh6htWxAXbtMlLgwOv206LsQcSo0LIYQ3GIUepVeA4Dvt+CgCjWrXIii2WXBrtS/ZQUtWgBMUEg7C3ceIb0IwL3v9XFrDC2LM+6ZZlqHy1/zVlB4CQkC5hBo3rojleFYAboInkqfs2vymXP6gw+Z7SMMpmFz8/q4tXTs1OUYKbCDevqn5YZVutl6pZw5BBBNF1vsigSDJ2OFnl4D0JgPPq1YMT3coaqtg+XAnSIx5Qwhc5wqnWA3HrhlNKpYULUqKX8FgYMpp+nVX9ewrYZev+uMAEONC+M/IUHALAJYjZUuV4H2x8fS6VN63FFPsb0L4lpoUvWaHZpRDir/9/5YT/M4QmpGwjYA3NLgSg1tALy+hKxHADivZ23M4eNKkU/hmjee+XB6UaKbavdLsNV/dVZh2Z0Qm0CXsc3M9Qm0SLwCtNxy5GAY9MsKre59mXUsNF84Va/VILNTckwQcAmBPHkCqCPHj8gXps+NbxpHtvS0V8CKnYfpyRHL2O0sOVs8/l6zj57n36yObdVsG5KTVxGoWkJLoLJaqDC9BuAd/rvk1VZMfOneuIxXJPzJFxxgrNxhYKaD1u09agTzgI2BkDkEkIfhw4kbWf2pHO86xw40a9mOY70r27rm2I5c4B8IBAQEUtFiJWnnthh2EFDfEmStu5GLBF4B7l5XY/th+MythseNsxE2U3hrYC6H5IaVeoUi4f5x0z04yvMX/6WFm5WNomFxOtchACC03efMjr9NDW9gx2oU7iWTYOXiETSHH1pnH/LsAEEueqhlWlYrSkEBShBm14zPnoMWBWGZL+LNZzHljypALdp00mIHYnFXpXovQgDupKH58lHcHj2W/EhuVYgNjMu5cULdlnCM3mDbG6SfdZUusCsj8hsgMmftMgXkPegqgC5cj4Xmn8tjXSiR6aXYYx3r2ALA/r9SyL7SBfNxylzvCZELLcB9N+kz4IEKDHHpxUUm04cty4OY/L+evuXaJNVZXq1+om7D5jL5q8MoNWSCQKWqtahK9dqZnDF3aBQb36WpZ4DLsXEY2sKt+aXRq4zQxDkWyOYCpK197PulOtLXZtOKf5+CAKDB+6wGUHQsV+/m761xwCzB978WG4N4E5UpFEbYd0ZceR10hKX2RDZia8qxvd2tutPRf3fX4e7Jv3S5itSgSUsRANx9o/2oveIlytDe3du1ZBBM4+0wBDCDa6BVtIuNbd/jhcuSrYe0CeEQWlAfwhzXKBVlq4BwVuHo7no3sJbmAMeOUCBEA/zQIQAM4j+UlsMwrPO2/NaYpCsVi6DZ6/eTSn6A9DcBKjBEq4MVrwgB6ZG59vucjfvpK3ajtF7pfznUb9uO3YzgLbDcFhIErEIgV+7cVLhIcdqxbRPbA6g/3ZigO9QpTsGatxbhajti7g76esZWI9WsFXggbwp+5xEhgVSWtzLkl6cPZcwzW3jLRoFwO0Y5BID3+A/TYmYAB/95uGNVr3QFiWDDFfQfe/i6COGG4SJYn7MhykN/Paowmvxk0kYWuq4/p/NIoSLFqE2HW6huw2a8P3s1/LXOJqQuQeA6BGAPcAP/O5AQd905Vw/AvgjbirrcAvGTm8uTMtz7YtQTy+Q4HMRJQfCg9fybL8dp4aPyBeVYRi7IGYGjqWdp+Y7DOV+Y/RVTIQDkY/6Q2fRcBbcEbAF4K1Vhg0D8GBR9K68ZPvzYj506S0iJbBrYa2r0jT+gFnzzt7WWBlDKFxZOLW/qTE1a3ERh4frcs3zjDsgo3IFA4aLFad/enRwtUD3qKGKWIPdISKBadNW9XM8Hf26gv9fEazF+dgVHhE+fvWG/EUyocvH8YiToCniZXHuavTXgeaFISyEA1GF+UKWiGzlLEcLieitBLVyzdJThFaDTiA8Rs2ATACFAAmUQpbBA9OrYNVcjiul+XnAfa9RuQO0696ACBSXHum58pT7nEcCzGF2oCG3fstH5QllcCSM91Gf2HYvJ9+f5O+gbVvfrXORk0d0sD0P7gIURbH9y8XjK87aAvBezhCvbE7k4INCklcoapg0QANoxd8+2tRxOdqpbgsqyesdbCWq2QxxZ6Sgb8ekOaBHLezUxbLDRqFIhv5Z6IVi9weFEoQGwgiLyR1LHW3obVti5eR9WSBDwNALYdjqblkaHDymv1DguQCp1qlvSpXcIopQijO/QKTG0nWOeaDBJ0ALped4WwJYrYn/Aor1MId4yYYFAyHkEQji1/YRlsaq2a1uhU1LW3cMF0FsIfv9QhSHS1m5eoYNhUGFVzHngAmMNRLh7vXddQrREfySsQHQFXsqIX4XK1elGjsseEBiY8ZT8LQh4FIF6jW+kXTs2U9oZNU8jeARMXb2P+rGxdU4EA7+/VsTR5NVxhHJ2JXhNDZ0aQxPYp/325uWoRVX2nhJBwKnbBZwQ1h4YKlA0BIBiChUY+9slo+0rAMAif+2eJNrKkzBc/mCZqsvi3xXcsBXw7M/L6RE2lmxTQwlyV5q1xbWrOUDI1FX7tPcFK30kZKlczYhqqb1+qVAQUEUgKCiY6jduSUsXzFStiqavi6dezcoaRsuZVXYq7QJN5dC8f62MJXz3FopnrSCMgsctCaU+LAi0rFbE2CLwlv57qp+IvKgoABSAAKAUExWd0JCdSCuG8ENFfP7FzDEcy9rK1b0rHYc0PoTVcev3JtPAjlWUjXpcadtT1yKhCDKc6Tb4Dw4JofY330ZFiikrsDwFjbTrJwhUrVGHtmxcQynJSUojRjY+JOBpXf3aVzYSaE1h7QBc7uy84s9p8Nh+/WzyJhq7eDd1a1CK2tVi90dWdQtljoCG0PPqGoACYfZx60D4zIks/cI68jRn1bIrYe9r+4Fj9Hjn6pYG+fD0+OEH/RkLPNiL1EkRkVHU6ZY+FB6hJSmGzq5JXYLAdQhAXYvsk3OmTbzunKsHkHzHIQAgUc/klftoJWvYdMQccLUvVl0Pbel3s7cZggC8y7qyMGCnecaqcbtarwYBIBzi1YvMpkP4VSgaQa0ySKSuDkT1eqSkHLWQjV14Pwmqfp2W/Kp9y6o8tibmbTpgqHCqcY5nX8whMIvdfrAy0UlR0YWoa8/+lE/8+nXCKnVZjEBkVDTFaXALhP83LMB/mLPNMALbn6zuZmjx0E1XjxgCeJ/D9gE2W3mD8lDRyBCxE7iCKOKpwIZNgdIcAoDpFE5V2KezCVu4e4KMoBY8ybz7xzraxJb2dlH1u4IFHuw5PIZ8iJbFnhS+YgSDVT9yI+BHrIuiCxahm3v0pZAQ78k5oWvsUo/3I4AAQbt3bFUeCN51yMDnLwTvBWwPIAPevE0HjYyhiDobygKBP9O6vUmGW6UCBhcgALzCbPqNCgGgIfu5u5uwtzx4wgaavCpO6yTj7nGgvbM8Sa7kaFmIn50/NIhgVOntTjFIKbp9v550y8CoAK/8u/TsR8HBIfhTSBDwOgTyRxagvbu2sUeAUgx3j447f3g+SjvrOeHjFG/tQgCawu99ZC3Eoq9wRIhPalBzutEbY5Npm9o79hIEgNeZTftPVedEFfXKRefUV63nN/DAX+e0lXDf8yXCVgaMfGA1H8EuHsiu6I0aAXhbjJizXdutQWS/Lj36UUhe/3Sh1AakVORxBHLnyWNsBXi8Iy52IDoygoa89jh99dbTFMBjWLVxG13k2B6eJFjAIwXxZPYwQpwDLKQKhAX7jeHgJo5eq5gPIBcEgLeZc5m9kTU52xPyP7uLsK8Ml5EzNvZvVcUimbUbi7cm0oKYg0a8/FKsEQjIY/oWqXbHpfJwsXx3/Do6psnwD25UmPzDI0ynqnCp/3KxIGAlArAF2L55A50/f97KZrTW3bdrW/r1i9epYa0qlIddb29sUJO6t7+RtuyMpfiDyvHolfuKdw4y40GL+hdHx8PeOGysYFeVn3MPeLs2NSuAME7YSCiQoQF4S6ECI4RuLQ6j6w4at2Q3Z7DabpuIVlaP+ST78uImI3Y3XH3gElOI1V121gosZNfLGesStECDcba7uSchrrqQIOALCOTKlYvOnTtLiQfibT+c0sUL008fvURP3N2T8gZf6+1VIH849e92E5UsWoiWrdvi0W2BjEDCGwyRBvEemr42ng0ITxBi54cGBVC+4ICMl3vt30gGhNDKCnQGGoA3FSow3NjcIQD8tnSP4Rai0ldvLYtQxTAWnM8agZnr9hMecGgEIlm6tVMsbezHffzXBkP61oF1vUY3GqF9ddRllzrOnk2jPKxCFfJfBMLC89NmjgtgV8Iq/9E7u9PIT16mSmWzjrMBAb1WlfI04NZ2dOhIMm1mjYDdCJFfsVWMjITwSJrBeQiwb46w7zAiD2OBIA9ng/VGWsLbxYhqq0CnIAC8wWxaS1KtZH7LtwDg+/rTvB0K4/SdoghyhJC6cCFExC/st6ecPMdaAU7ryHG1Pfkwz2cL3dkcjEQHlShVllq07WxrbYer49yzcytNnTCWzrEQAKPGgADTpjeuNi3X2wgBbGsdOrifThxXUt9aMqJOLRvR6CGvUu+bWxt7/c40EhoSTLfc1Iwa1a5KG7bupqQUfca/zrTvyjUIlASPAmhWETjpDw5DDO8CvEcPsJYVWwdYyMDl0E6Lq8zGiH4jsq0CHcdSBCad1+p3XKgRE5KVtHp3En0/W59BmZV9dXfdcLHDgwwGIcNWMTYchDthmYJhFB0eRAXDQyiagzUVCA/OMoSojn7jR/Pb0t06qiK8IFu16+JTk/8ZtvxeunAWXbhwnjauW0lbNq2jajXrUq16jcW4UctT412VVKpaixL27bVNp2tUKkvvPfcAtWpc23Sf2jatS0v/+JLGTppD7w8fSwcOqUU+NN0RFwoigBLsB8AwwHYQVsTR/M4sGpnX+EQgokj20MIxxODHVgLcEEP501ORcKHdUKQzEACQTcC0AHDmrHInshxD4rEzhsGfJ2L3Z9mpDCeKF4mmkKAg2hWnZ+WboXqX/gROkG7BiynxurKQaJFTHA+s7of2wsV/CWlHdVDTlu0IPtO+REvnz7wmIYwIAr50d10fS+myFXgrKMAQCF0vra9EkegoevXxO3k/v50RYEi15txs43Bnjw6GBmH42Mk05MfxdDxVaZWq2iVT5bE9AC8DZ2LtQ+sazAaH0MI6G5sgME9u+vLBZqb65iikYfF91CEARDgqdfXzDBtXWEFYUX46eaOtQvqWKVGEalctT7WrVLj8yd/hHnP+wgV676vR9MUvE+gS99uuBEyRKczOVKpMeapYpYadu+hy3/bs3EZ7d2euxRJBwGU4faJAnoAAKlW2POHZ8ATBn39g/270xF09KTRvsPYuBAcF0tP39qK7e3akT0f8Tj/89retDAV1Dhg2WievuERiC8EZ0hH59cRp59rKpj9JEACU8lRaJQBMWL5XayCZbEC47hRCbZYvVfzKZM8TPib9qhUoIixzP3T4xb751D3Upkldevh/n1JiUvJ1dcqBnBFAdr+mLdvnfKEXXeFQ/efUZREEckLI986Xq1DF7QIArPcfvaM7PdSvK4WFmo7/5vTNiIwIo3efvZ8e7ncLDf56DP0xfaGxYHK6ArkwSwQOn1CaulGvoQE4wl/K4C8zdNqCLQCo/n9nq393EFRWlcqVNCb5OldW9jUrl6N8oa5HnMP+2ZLxw+ix14fSzMWr3NF9n2qjRu2GPpfgZ+mCWS5FfhNBwKce6WwHU6JUOcrFQu+li9Ztozo6UDg60ljt39e7M+Vloz13E9wFv3nnGfrfY3fQ16Mn0ciJM+nkKeUJzN3DsE17CBqnIfOjoQG4frPYhWEePq7/Jv7Ivv46Y8inH05gQB5qWq86tWtWn5rUrUYwfgnJ4OOa/npXv2NLYBwHzfh5wgx664tf6NgJ34pW6Coezl6PKH91GjZ19nKvuM5Q/XPoVzMkgoAZ1LyrTEBgIBUpWoIOJMRZ1nFMvI/f1cNQxUMt72kqUaQgDR70AL34cD/6cfw0+nbsFNGYmrgpmubdBGwB/Gf6aKIjiFp3igPWhAajKnXaxYENVnCAA91UpGAUPX1PL7qje3tTq3tX+gP/2Ht7daaubZvS60N+onFT5/lUuk5XsHD22lp1G1FgoGlbVGebcdt1zqr+c+qQCAI5IeTd50uULqtdAMD7p1Wj2vRg367UqVUjdmezn587tlOfua+3sR0xftoC+nLkRNq2Z59330w39v6InoV3LGbtA6r9htV55eKm7QivaX4sR/vTaUYXFBhgqJ0e6nsLuVsCLhiV31B73cVWsc8O/pq27rJO0r8GRC/7Awl+qrJLnC+Rq6r/nMYugkBOCHnn+RIly9JKWqCl89jT73dLW3rg9q7ZBvDR0pimSvB+xqIMwYRmLVltaE7nLFkjdgI54HvouBaPK0MAUI6wE3/0pBYBYD/7Yq7h5A66CFGsRnzwAmFP35OELYdF4z43LGE/GzGejiTbLwCIJ/GpXqeBTwXF2bF1k5H1zQpMRRCwAlXP1RmFgFC8FXD+HMKxmCMYLX/44sPUr+tNlms3zfUw51LQWnRs0dDgw0eP0e9/z6fRk2bTtt2iFcgMvQPJWlwrYxEJEHrXhzJrxNljxaJCqW5Z9YRAMPxDVicdhMQV03/80IhVraM+1TqghkOfHuhzM8EFJ2bHXjp9RosUp9o1j5aH5X/bjrcS3KJ8gY6nJNPsv/9kd1BrDbsuXbpEhxL3GwGFJLKg9z45mPgO7t+nFBWQw38YWfpgce8LBLdERBV84PYu1P7GBkZ00z3xB+nsOWW3N9vAg9gBfZqZX5j+ung3YftdgbAKfQMCAIIJv8TMYQzMEQLMtKtV3FzhK6Xgoz50yiYjpaNSRVwYbnsTh79L4fmsd3Nxta8BbITYuA4/3CwIRISH0qbtLAikKd1IV7tgq+vLV6zqM37/F9mae/rk3+lkqlKCDpfujwgCLsFly4tTTxw3hACVzrW/sT6VLl5EpQpbli1WqAB15PDEjwy4lSqXL8mC9SVKSDzCAZSsFbCtBkNFADjPMQd+4HTrigHyVvMYf4IAAN3TfcymN/FTTp2jWxuWVopDvykuRUsWOfi5Tv/5IyNAD4/JtnRZEKhG9/fpQrCMPXD4KB0+mmLb/lrVsWat2lNYuOlHz6pumap3+ZK5FLdnp6myqoVEEFBF0HPlz58/R7t3bFHqQJ1qFalBzcpKddi5cB6OnFe9Yhm6rVNLevzOHtSgVmVCDoJETkJ06rT3aVJVBABkN9SQcXUa3++/Hab7K/iPUmYfAERCitmXTA0qFDRbBSG1oQ4a8upjhPCW3kJQd8E3F7x603b66Y/p9OfMxXTGD7QCYRH5qWhx04+drW4xIv1t3uD5DG9iI2Crx8KpzkQVKOTUddld5E975TDmRtIiMCKvrt28g6YtWE7TF670C0NreMppoBjUAQ0ACG/hDsY3k/+Fc4KE+uWiTZYm+pmz/R0/bd4QBg0jI9XLjwww3QdPFyxWOJq6tGlCD7IVL3IMYM9rf2KSqqrH08PKsv0q1WsTsv55Ox1OPMD7/ggDfck2QxGNgG1uRY4dCeRcIjEbVtPFi+bDqucPy0d92QPA3wg2FHhvtmpch7dVuxgeBYjaWqhAfjpz9hwdPaZlstQOq4oGYPraBCM9vGKnPuTycQ4NwHLFymjDXvPhbxHVKD5JPWDOs/f3Vh2GLcrDRxZCADjleKrhHgMJd87SNV6p7soK1DLlKmV1ymuOp544RrOm/sF7kuZf3lYOVjQCVqKrr+7IqGhOEZxgusJ9B5TCuZhu124FsZ16e5c2BqNveH+u2LCVlq/bYvC6LTu93phw635lLzK8rAx1pUMAwB8I6RfCbIowgcONrzino3WVoNJQ9f1HGN66vA/mawTLXscDDY3A0jUxtJIfaGwXgL010mBejvxXqEgxr75dZ8+m0Ywp4wlBf+xOIgjY+w6F83aYigCwn1PvQh0Ol0Ch/xDA+9OxXYCjaawVwHaJwRx4CMGHtu+Jp7j9iQZ+/5W057dDHCZ/P8fdUaSNXN6oxCEAwIpiIXMnsxVjAp+7cT/d1dr1SVjDgKhXp1Zmu+415RA0Azm3wSDkst4Zu5/WxGyntTE7aU/8AX6QD1H8wcO2l3KLlijN6TO992UFdS3c/Y4lH/Wa5wcdzSgI1OQIjL6WetmrbsiVzqoawmJxACNiRDwVyhoB2A/UqVbB4PRXQTCAIHBZINhHCQeP0D5+j2ILFoaGyPhqB1qzJ0lHN/5xVOIQAPD3TGbTAgAqmB9zgO5oVYFy5fBiR974Y+w5gEyCSGiwbq/6oNpcmRTRD38hTKAIdgTud8tNV4eNlUDikaOGMACBAFqCNA404vhMSztn5OiGAGGG4JO7cdtuM0WvlinmxcZ/mERnTZ2g7Lp1FQwPfHEIAps3rqEKlWtQ7XqNKSJSJg8P3AqjybDw/MpNw5NIBABzMEIwuJz1tfx1FVxk256k5OOUzPYEsClAILeRf86i+cvXXXetswfwjl7FQe+CA3NTSGAeisgbSNFhQTkuitbsVp8ruY/LHP3MKAA4jpv6PJp6ltbtOUr1y/9nDIjMfvAQiNmXQrGHU+kAbxOkndfrw1muZFHDlc5Up32wENSAMIwBIwqhbnp72C/KAoC3Wv9fOH+eZvKev5UJXHTfr+zqQ+yC7Vs20I6tG6l0uYosCDTx+q2Z7MZr13Oh+cKUu4YJSkg/AgjihmyKYAet3bxTSQCAL/87468VIALz5OIt9FAqGR1K1UtFUq1SUVS8QKijSSNB3qY487Z2Vyu6rO03/kwvAGzlIzuYlSyz5vA2QOH8IbRoSyLzQWPCT9ewJV9LFlN3o7GkYz5a6e59B5RGFhgU7JWrTYRrxZ5/4oF4pfHbsTC0QbG7dxhctBinx67fhEqWuX41ZMe++0KfkA9DlZLZ4E3IexFABty9vEgGY/4ERYcHU4uqRahNjaKEeDsaFs+budr9RuX8X3oBAMd+Y34NX8zSP9sP09Jt7rVIRdIdIfchsDtOTQCIKvCfhsh9vVZrKS3tDM2a8ocRfletputLf/XW03SKw0IP+XE8HWQ1rqfpIAs44KgCBQk2AuUrVaXcuTO+KjzdS99qPzhEgwAgGgDfeih4NEkn0mjiiliD8wZp+Q3OTg9SxhqVBQCz+8rpO+Xqd0T/E3IPAri/sAFQIUws3kQw9Js5dbxSvPasxjtwQDcjExrO392zI/3y50zbCALJR4/Qwjl/0/LFc6lClepUpXodQyjIaixy3DwCQRo0AN7qEWQeNf8qefqsFkPEWelRy5X+D/4O9cCmDMds/ycSygi5BwGsUFWTGEVGeY8AEB+3hyaNH2nJ5A/7jHeeQRTuywQvj4c4h/v6qT/QRy8NpKIcB90OBHdHRDmcMHaEgcX2LRsJthBC+hDIkycgRwOwnFrzpWQ5OY1VzptCAP7K8Pa7ShkFAJwYcfWsfBEEMiCguvpHdaFh6gZPGbplyZ+IzjaT9/zPndOfrAnW2j9/9BIF5MmohOP0nDYVBAAyoh4umjuNxvz4JS2ZP4OSDl/eq7TkBvhZpaoLmXMilPnZE+PycOHpd03QkuvfPkQj+aL3mdU3pVzunxSwOwLwiVWl0FB7CwBIr7t0wSzapZigJSuc4HI08tNXrrEqzuxahyBgt60B9BVC0daY9QYXKFiYylWoQmWZI/L/Zymd2ZjkWNYI5IKdhYK/+Tl2qxYSBLJB4M+M5zITAJCS7nfmuzNeLH9njgB8Ok+cPEX5QkM4I6Jvb0ckpRzPHAQXjubV4PLkQnMuXYrc7AtmT7UspS9cir4fPIga1aridL/sLAhgEEePHDJ41bKFVCC6kCEIlK1QmfJH2mMLw2mgPXyhaAByvgEX2G315KkzhHDp3hxILOeRar8CiXamZKw1MwEA13zFLAJABrTw4P2zbjP9w+F4t+6K4yh8CUYaX0SRchBe1oUKRFKF0sWpcrmS1Iz3eZs3qEm+Yqiow9c4JMT1cNEOfK36hD/86uWLaNO6lUaERava+eSVR4ykVWbqt7sggDEdTTpsMLCMZGPPsuUrU7mKVQix7oWyR+Dff9WSSeXOndmObvZt2vUsFhpLV8fQMn7fIkLfrrj9RqTD9HYOIcFBVJS30iqWKUFVK5Sm5vVr8Pu2BiHDqtB1CMzhI9et3rISAFbxxfOZ21xXjZ8dOHf+As1YuILGTplLc5euzTEkJB5QhOIFI1LU8LGTjfjcTetWp/7d2lH39jd69QMKdzUVysUrYLtJ7ojBvoRV/sk8eVlJLw3sT/f26qzchDcIAhhkCnsRgNeuXGLEfShZujwVL1mGU0CXpICAQGUcfK0CCKEqFBTo3ZhigfXX7CXGu3bZ2s05CuJImQ6bJPDMxato6E9/GDY17W6sT/05MmqnVo0ytbFRwdiLy47KrO9ZCQC4FnYAfisAYFUPl6wvfplgxIPODDxnj2GLAEl8wK9+NoIe7ncLDezfjfKH53O2Cttcd54FIhWCtbNd6PSpk7Ri6XzatR3OL9bSfb07EwQAneQQBO7q0YFGTpxlG/fBzMZ4PCWZwDHrV7FAnIujDRY3hAEIBAULFzWOZVbOn45dUhYA7PPbcuW+IWMfFkrf/jpFObkZYvZPX7DCYGQGfOre2+jO7h0Idjd+TFj5T8ps/NkJAAgYsJq5QWYFffnYjIUr6cWPviXE0ddNeNg/GD7WeOBferg/PcTCgDdl8EqvgjODjeo+p5k2M5bBSgsT0bpV/9D58/9t32S8TtffWPV/8vKjuqq7rh683OA+6A2CADp/iWOrI5oieM2KxRQYyKpczg0BYaBIsRLG1gGEBH8iYKKqAfC2SQ4xRX6bOt9YFOmwLcr4vCQkHqHn3x9OX436iz588WHq2KJhxkv85W/Es2ljLgAAQABJREFU90G23+soOwEAG7V+5QmQeuo0PfX2MPpz5uLrgNJ9AEE7Xvr4O5oy7x/64f3nbePzndM4L5lMIOSo9wYPvtixwtq5PYbWr15miV+/Y4zpPx8ZcCsNHvSAW7Y9vE0QcOAEj4K4vTsNxrE87BpZILowRRcuQgULFTUYiYrstnXk6L+OT0SaVCXsiXsLIcve/S9/RMvXbbG8y7EJiXT7E29R786tacirjxnG2pY3aq8GIABkStkJAF9yCf2ZZDLthucPbtkZSwOefY/28n6SOwnbAi1uf5JGfPACtWpc251N+01byHy3bfMG2rh2JZ066b6EKc/e35tef8L9trTpBYFRf82iL0dOtESbZdUDdIHVuIcS918TdjmA97ejC7JAwNsF+MzPAkE4uxz6ii3BWQ0CgLcYGs9bto4eeOkjcnfugvHTF9C6LTtp9Gf/oyrlS1n1+Nqx3nu5U/My61hWAkAfvhiF/IJWb9pOfR5/0+0PpANcqL96P/4Gff32M9SrcyvHYd/8VNQguALK6dOnaAdHrYO6/8yZa+JfuFKNqWtfefQOeuGhvqbK6ioEQeDB27sahocTZy02jKQ274jVVb1b60EipoP7912XgjlvaD6OPRB1hSMNoQB/h0dEcv4C73HJTdPwfEZHRbj1nphpDJPwo68NzdGY2kzdzpSBN0Gne1+gcZ+/Tk3qVnOmiC9ccwcPYhrzrxkHk5kAEMkXfZ7xQl/9Gyvw2x59ndK78nlirPA2eOh/nxD8XPt2beuJLjjVZmBAZo+MU0WNi87zatxKwl5qfOxuTnG7keLjdhv7zVa2l7Fu4DP0tccNj4+M5zz1N2JTQP3Zq1MrmrN0jSEI4Ln3BYIhJxjCQXrCdkFI3lCCyymEhGD+BOfFMWZ8D8nLHBJKeQICDCNET2oTTqaqa6bsnhRt7OQ59Pibn/Nv8t/0t8rt37H92uOR12jiN+/4kxDwBQONSIDXRHLL7G0+mC8qYtVdqVKuFN3IfvHVK5WhUsUKGwEdbr7vRcIE6G7atH0P9XvqHY9P/o5x44fxxJtfUBQnN+pwoz1tL1VdjbCSg/GP7v1cBKNB5L6d22LoDK/8PUFREWGGerEZ+yPbkYB5e36uwCs3bqOhP/5BMxat8PgL2Qqs8Iw5hAPEJnCFgjhdNSgwiPfUGbMA9lzJlYM2AZEQkULZLKWeOG626NVyBW2sAYBh9ZNvDbPNswYXwr5PvU3TRnxA1SqWuYqhu75AOzf1h/fpeOopY3sOW9CLV22k7XvjrepCNFf8HvMj6RvIKABU4pMPpL9Ax3dEyLvntk50J7srVS5b8roqPWHxCylwwDPvGRH8ruuQBw/AjeXeFz6g+WOGUqWyJTzYk8ybDg5SdzWC5T0sv1Up6Ugi7d21nfbs3MZGfQhg6TnCvRr3xRtUrmRRz3XChZYRiXDs0FeNF87wMZMJqln4YQsRIfkRyPHpDCaFihRz5rIsr1EVABBhsnB0VJb1e/LE7n0H6IFXPja0m57sR8a2MQf0YePAxb99QZEsvLuTIIw3qFn5uia37dlHI/+cxS7oM+jU6cvP4XUXmT/wEBcdxnzV8jKjr83bfDKjUGC6Obi3PdCnC22a9iO9++z9mU7+pitXKIjVwSOvD6F9Bw4p1GJdUdz4B17+mFRd7qzoYTBWRYoELYAK7eaV/m8jh9PEcT9fsej37OSPFfXskZ96zeSfHnsI5LCM3jZrpPFZq0r59Kflu5sQOH7sGs2sy60WZ593xIWwG2Fr9c7nBttWuISr4JPs+WUXgoYcXkObpv1EiB2i2UUc8/2r6ceaXgDAL793+pMq35HtbPJ3gwmhT90tXeXU7/HTFxqBInK6zpPnN27bbQR28WQfMms7OlLd0EhVAEjkyH0njh/LrHtuPYb9fqTz/X3YG8ZWllsb19wYtHSIV7Bo3Oc0d/RndEf39uRNbmWa4XB7dSnJSUpt2lXz9OkPvxPU23amKXP/IRjJ2omi8ofRZ/97jCZ9+x4V0avZgYE/NP0GpRcAEKkk/d9XLnH9A6uKuaM+M/b6XS9tbQkk7XmNo/F5AyG0pbvdEnPCpXA0bETV6KQbXfHUepp1adivTOX9wyfu7qndniHrVt1zpn6NSvTlm0/RjrmjDIPGGpXKuqdhP20FrqnIQKlC5UurbUGotJ1VWVjcI5KqN9Arn/xgSy1Fi4a1aMGvQw2bOU045uZ6HnbU5Zjwode9x3FQ5ROJGf7+8QMqXgQ2B/ajr0dPokNJnlUZO4sK1GeIGmgnKlggv3J3VFc7yh1QrAAW9UvHD3Mpo59ikx4pHhaa17DdWfL7MFowdqgh7Nj1d+0RgDQ1ejTpiHJN5UraTwAY/PVoW25jZgb2wcNHafivkzM75fFj0KZDE4AEc5oIwUkMS1eHANCeDyhbkCBF4/gv3yQdamJNA72mmtOcyOb7cVOvOWb3P/7g7QoY0diFkH1LlY4lH1WtwiPl8UNEEJHv3x9EmBz9iepUq2Bsd8RM/4lm/PSREV+gkAZh0J8wzGqshznokSrBq8pOBM3lpNlL7dSlHPvyNYcMtsDwLsd2nbkAcyrm1vB8oc5cntM1yNPdERc5BIDbcirhzHn4P5cpUcSZSz1yzTiOO3302AmPtG220Yvs1/7Db3+bLa69XPHCBZUTaxxLUdvv1D6oHCqEIc79fW6mlRO/oa5tm+ZwtW+fhvUyAqh8/PJA2jp7JE0c/o5hL+CNia3scqcOJ6oL+LUqw4TLPoTEPnh3eRMhMiG8YexKZdnDCAa7mqgb6oHF/w3MXfCHCsFvvUeHFipVWF72V07pq5MQYKVpveqEPVIE4Ug+foJ2xe6nBSvWa40tMGHGQnrn2fsI7XmaMBmWK1VMybDHmzQACBn6+etPUOPaVT0Nve3ah+tZmyZ1DYbB0pLVm2j2ktUGY/9XKGcE4JF0+JCaAAB7FBiN2YXgygzNpU6C33zrxnWoQpniFBURTkeSjxHiuCBtsE5BY9zUeca2l86+Z1YX7rsZuq1TS0JApbn/rDVTPH2ZrvzHDRAAKjIXTH/G1e9YFbz2xF2uFnPr9XD5W8XBT3RQACcruf/2m+m5+/sYE3/GOqFG+mbsJCPimg7f6sNHjxlBIvCytQNV5B+himUvEp+kshV/WIS6PYFVeECge55D+d7bq5PkFHcCZHhEtG1a1+D3n3/QMF6ddUUYgGDg6UibTgzBI5ccOXSQVL1ialUp55G+Z9XowhUbSFd2P3inPHNvbyN9emjeywGa0reLd+OnP/xGI36fpiXOwIr1W43073a2dUF+EeRTMCtEXMGvEH9WxBZAs/SAmvneslEtqlnZXg9hxnEsWrkx4yFTf8Ol8c9v3qYPnn8o08kfleJBHfTA7TSHfcN1bYngR2UXgq+qKiXEx6pWYUn5vCHB9OLD/WjdlO+NFLsQ9oRcRwDqyoc51fUfX71Fexf+Sr/z/iXyEmg0ZHK9UzYskRC/V7lX8NqwEy1cqeddhXfnnFGf0nMP9DHeqZmNEXYoSPX7x9dvkY5tKEyqi1bp6X9m/dVxrHbV8gTvAA3UBAKAck39brlJQ1+srQKrEFXCKmfskFedBh/qY8SbRohYVUKYSLtQPQ0vnP02EwBwb7HPj4n/5UcG+GPKUMseL8QTwBYh7AZWT/qWds4bTWP4d/TYnd2pIUck9Gcha/++WGXcm3NodTvRklXq71pkNvxr+Lvk7GID2wN4pnQ8S7oWi1bek75d2+iovi6WN0rWI4744jp6Y2UdMTvUJe2n7+1l7Pm70k+shD5gCfWhVz5xpdh1127ZFWfE0dYcGeq6dpw5gBCWuO8qKqgDCbGW5ARwpv/pr4FVLSJuDezfjWDlL2Q9Athe6dKmicFoDdsDa2N20DLODb9yw1ZawYwwrb5OZ9PSSNUDANrGuuyhYRdCPpOtu+OUu/PRSwNd1p425xwcT97Tk7cEfldqf7PNAxdhcIg+qvoO5mrKQgBQ0t0j6I/d81DjoVR1pYPb15N3m3OWQBa2z/ihRJxns4TkFQcOJ1EJDvnpacL9LsvquT3s6mOW8PJLOpxo5Hc3W4dKuWKFo+nRAbfS3bd19DuXPhXcrCgLAy8kUEqfRAk2OxB6t+yMo5gde4xPGBYiW6avUNzenSzUq1nKN61bXcuqVxemCYmHle09qlYoTT07mjMoxyINHggqtld4zrC4wQRrV4IQDVusHXsTVLpoCAAFVGqoaMOENRnHc/TYccIEqkLtb6xvWi2MVXv3DjcqB/WJP3DYFgIAcGzCLx4VAQB14AVYsLD7k+dg1b/h7x9s9eIEHkL/IQDLdnCnlo2uHkRujO0sREMo2LwrlnbGJhiZ1OIPHlZ64V9twM1f9u7ertyipr1g5X44Kkg4qB7UqHv7G01PvliotWtWn/6avcTRJZc/ES8GLoF2X9gi6J6iAFAQGgClyALFCinJDy7fHDMFVKRBR3uZZW5ynHPmU4ehTupp+2Rru6lZPcMdxZmxZ3XNjq2bqH7jFqZ/7FnVm9NxCGQ69gpzakfO60UAyW6QrCizhEXJx1KN5F4QBvaxoAwNQhwz/j6acsLYUrCTJ8K5c2dJx/4/Jjs70YlTp5W7o/quhV2JigCAAaSePG17AaBYIeVou6HKAgCspu1OSDcMIxEVql6xrEpxw3detQ+hNsK6dZM6RqYqbK+YpVMnUylh314qWTr7XaiLrPY9zdciPStSCZ9KTTXbpJTzUQTgBw9GxMKsCFpACAopJ1L584SxyjP+5tXex9+PU1Jd45k8uH8fBQQEUlBwMIXmC+ffB2ysM6c9O7fSxYsXMj/p5FFoSOwWARArcNX3HOymVAhxWVT7YGf1vwObzNwiHeec/DQEAOjGTcc1PXf+vJNtee6y0sUL01/fvuu5DnDL5Tl4jqf7oBMAqMfqVqtIa9h4S4V2bN14jQBwgYOIwDDq4P54OsIBUo5xmtSTJ44rGRyq9E/K+g4C8EYoXgR8/cpp2Mg/lQQAbGeBHYTJPyw8giKjClLhYiWoSNESFF2oyFWhYMfWGMelpj87t/pve8R0JZoLwhCvuYffta0a1yawr9O582oCJONzFhoALKdMCwApx33fWtfXHySz4+vcurGyABC3ZydBE3CIJ/1d2zdTQtxe5ZWR2fFIOUFAFwIw7jt+LMXg2D2XheTg4BAqXa4iFWZh4BCntFYl/P6E/BcBRJ5VpBMOAaCw2Yr22ChRjdkxSDlzCPTs2JLe/XKUucJXSkG9P+6Xb5StoZU6IYUFATcggAiY27dsNFi1OQQkw2pbyH8R2BOnFkKakUvFJtUhFQhjdu4lxH4W8j8EyvFeXXZ7rs4iouoK5Ww7cp0g4CsIwFJeDFl95W66Pg6o/2PU4xUkQgBQ8kWBhf2aTWr7wK4PX0rYBYHbWAsgJAgIAu5F4PYuWiLBubfT0po2BJDXBu6KirRdWQBABybMWKTYDynurQj04ReRrES89e5Jv70RgZJFC1HjOpKd0hvvna4+I0OsBtoGAWCTakW/T5tPqRr8P1X7IeXdj0Dh6MirIV3d37q0KAj4HwJ9u7Z1e+wM/0PZviM+cfIUp1vWsuiOgQCwlFlpE/946ikaPnayfRGTnlmKwL29Oltav1QuCAgClxFAEKs7urcXOPwYgW/GTCYIAYoE//2l8AKAL8Fq5ibMpmnIj38QsgLaIVa96UFIQVMIIB10JQ4JrRiW0lTbdi8ETJDJcf3WXUbo2r2cPyGV7WYc+3cI5hGWNy9V4LjeSJWLiJE3cnY31WAodsMF4wYOazfvNHDYzRbMqadP06nTl/cxEVAsjHO/l+N4GQhxWqdqBc66WdP4brexeLI/7Zs3IMQ1EfJPBBDZcuhPf+gY/Equ5CQEANBsZiUBAC+0ga9+RpO+e49yZxMBy2hN/vMpBBA1C4mSHn/zc58al9nBIJnIuCnz6Le/5xuhaLOrBxMgODEpmZCy+ucJM4zLETjqdlb1Iu0nIr55IyEc76/AYeq8HPNG4P0BPpSUQsvWbqaRNNMYMsYOg7e+t7Q1gml5Iw46+3z/7V10Vid1eRECSIT1MM+xqnltrgx5Fj6xBQAae/lD7X+8wF79dIRaJVLaKxGAMSAy7PkzYXU74Jl3qWH3gfTJD7/lOPlnhxWyVw7+ejTV7fogPfDyx7SVM+N5C23eEUv3v/SR0ff3vxmT4+Sf3bggRCBMb8PuD9Mdz75H67fsyu5ynz5XhjNw2i32v08DbrPB/e+TH+ifNeoRJHlYiN/+K4bnEAC28XeoBJTpmzGTlLPeKXdCKnA7AoEBeeiJu3q4vV07NIhVK7RfN93xLP09f7nWsMUXOaLcH9MXUrPejxttHOUY9nalYydO0ksffUct+z5peAah77oIOSemzltGrfs/Tfc8/wEdPnpMV9VeUw+0QrABEPI/BCBII82xJlrO9Rhxqx0CAOr9SVPlhgDwzLtfEdJ3CvkPAv54vyfOWkyNegykcazmRg5xqwh1o40mPR+lOUvXWNWM6XpnLl5FDW592DAG1jnxZ9YhZHoD5pPnwH7Zf2juP2vp69F/+c+AZaRGfoon3x5GH35rLNh1IfKzo6L0AsAvfFApKqCjUnz+9Md06nD3INq0fU/6w/LdRxFYvn6Lclhgb4IG0S+fG/w13fvChwQvGHfRkeRj1PvxN+mdL0dy+GTrBA5nx4M+vDH0J+r75NuUlHLc2WLK10HbcNeg9+nFD78l7I36C70+5CfDRsJfxuvP49ywdTe1v2sQjfzzsj2MJiwOcj0jHXWlFwDO8MHPHCd0fGIArfs9bRiH7WErYCHfRADGWw++/InfvIih6bjvxY9oxO/TPHJDoQ349Iff6eH/fUoaMoKZHgPafvCVj+nznydYqv3IroNQi8I2QJNhVHZN2eIchJ1H3xjqN+O1Behu7gTsfx7je9x2wDNWLKA/5eFcdr3hL+kFAAzzG2ZtWgBUCHXg6L9ms3rwIepy/0vGPsa23fv8ZrIABr5O77GxGtxT/IHSzp6jno+8RlPm/uPx4Y6fvoBXwYM98luCBuROnnjtEAV0xsKV1OeJt5TS+Xr8ZrrQAbhU4jcn5BsIQKjDnDic/ftv5jkSW2ljJs0x5k7NI8Qq/Nv0dTrcAB3HkBr4eearKgLHCdVPqAqXsgUjGASjMViN5w/Px6sY+9sKYA8G7klC1yMA/26rKB/7hjerW53qsX88/OSjoyLoh9/+NgzCrGozq3ohzD7Eq27HM5zVde48jsnvsdeH0vB3n3VbdDhoIJ5+50vCvr9dCM/gvS9+SKM+fYXy5M7t9m51adOEHuzblbBFgxgHa2J20D9rY67GOdDdoW9GTzLcRnXX6wv1tWxYm95+5l5bDwVzHgxasZV14FCSuzR5gxiUk+mBySgA4BxEy/uZW+EPqwjqw9iERKuq117vZs68tGDFeu31SoWZI9CMU50+yD7PnVs1puCgwGsu+nsejFjdT+8MG2lLwzPEG6hZuRw97iYvDAT9wgrFbjR9wQr6iAX1Vx69w+1dK1Yomlo3rnNNu9AWTeM+fTduCi1ft+Wac6p/QBj1Z5fI7PDzhrgZWBC7+f7NY8yuc/fPuAUAXGFZ9BDzNZICTggJAlYjUKV8KZry/WCaNuID6tGhxXWTv9XtZ1X/7CWr6YtfJmR12uPH3/riF0KGMKsJxp6IT2BXQvyF+cvX2aJ7EFx7dmxBM376iCZ9+x5VLlvSFv2STvgdAvAdfjizUWcmAOA65PcdmFkBOSYIWIEAogk+ekd3WjTuCw4BW8uKJkzXiZTXcMWxg9V9VoPAnvwjrw2x1PUWWrsn3vzCIzYHWY0743HcI0SkdIQYznjeU3+3alybFv32BQ3s381tWzWeGqu0azsEsKDPNIJWVgIARjCG+Tt8ERIErEQAe7ZfvfUUDR70gGEbYmVbZup+f/gYOnj4qJmibi2DEMRfjbLOTxwxyHfGJrh1TGYa25+YRB9996uZopaWCQoMoA9eeIi+eP0Jj9gpWDo4qdyuCMCw/7esOpedAIAyjzNPz6qwHBcEVBFAZLOv33mG+ndrp1qVJeVhoPP9uKmW1G1FpUN+HG8YFumuO+V4qq23QDKOF9lJ7Sq03dmjA3319tOiCch40+Rv3QjgxfVkdpXmJADAPL83s2esrrLruZzzCQRgsNXn5ta2HQt83D3pa+8qMKmnTluSmhshvrEV4i2EWA3DRk60bXeR4Oilgf1t2z/pmNcjsIxHcDvzhexGkpMAgLIIc4aE74vxh5AgoAuBlo1q07P39dFVnfZ6MOGN4hgW3kYIUASbAF0EAchTQY9UxvDLnzOupl1Wqceqss8/2NdI/WxV/VKv3yKwiEd+M/PpnBDIk9MFV84f48+OzOOYu105ZpuPS//qSzqS1aDYRk1IIwLYDx3y6mO2Tm4yee5S7RNI0UIFqCUbOSIGxiV25drPWwwLV2ww/Md1wQtf9LlL11KnVo20VAkPCN1JiAoVyE+tGtVhHArwM5DL8IVeuHIDJR5J1tJnVAJDwMkcsKkvp1W2I2H7C7+B5pzoyZu0THbEMn2f3PGutjLvR/qxmPgOtRdUS1ej/WVXh7MCAOqA/u825sHMg5htMyWePnOWu2MthYaEWNuAn9V+R/f2ts/vjix8uqh21fL0xpP3UJsmda7b+4Xl+oxFK+itz3+h7XvjtTSJCH26BACdOMDN803GoUOLhtcJf3ipzlu2jt78/GdtIVD/ZBzsKgDgRlcsU8Kwf/l5wgwt910qIXLHu/o8a8VsRnDf/5D5VWank2M4swWQfpwY9QvMtzDbxiz6JO97Wk358gZb3YTf1A+Xv8futHfqYOwhL9MUvOW+3p1pzqhPqW3TutdN/rjpWAne3LoJLRz3OfXqrCf+1sKV67XE58ekrCvSI2w9FowdaggmmaW1xXNxU7N6NG/MZ3TPbZ20/B6WcjQ+ndshWjqVoRIEcMLYhfQgEMbRQ60mm2U+PcLjhcr/ZWanJ39g5KoAgDKgv5lrMmNLwOPkDuMkhKQV0oNA4zpVqVzJonoqs6iWtRzKVUeCmX633ESf/e8xCsiTs7INgWO+e28QdW7dWHlUh48eo+171LUJW3fFacnyh1C5w999zqnATsBq6GuPEwzlVAnbAAjLa2dCiOuGNSvbuYte1bew0LyW9xdRHm1AWPXDXR+BU0ypkMwKABj7QeZ+zPDf8miQ/JOcjc5qcsdDZfUY7FJ/p5Z69qatHE/Mzr3K1ZcoUtDY43WlIqyMh7/zLEVFhLlSLNNrY3aojyFmZ2ymdbtyMDoywshVkNmqP7t6IATAVkKVNu+IVa3C8vIdWja0vA1/aSAsn/UCANxiPUybuH0Yt9zBnGi2LyoCgKPNufwFEkgvZo/E4HSHBqB08SKO8cqnIgJN6lZTrMH64rti9ys38vxDfZ1a8WZsKCIslJ64u2fGwy7/jcBAqrRLQ+CfJ+/pSWYE6JDgIBr0ADyZ1GhnXIJaBW4o3bxeDTe04h9NlC5e2PKBJntOAFjDg8PLAYknFjArkQ4BAB2AGf4E5vrM0Nv9xIz4w24hd0hjFcsUd8tY/KERb4iJHn8Q22rmCdENu93UzHQFt3Vqabqso+C+A4cdX01/7lNM84y97Z4dzY+le/sblaPmxWvAwTSAThasVK6kk1fKZTkhULF0iZwuUT5/+GiKch0uVIC59Efm1swNmGHpjzlXmXQJAI6OYE9iAfN9zNjkhdfAV8xbmS2j/YeOWJ4LvHypYmKoo+EOYp87UoN6W0NXsq0CAXVUCPu6KuNERrMi0VEqXSDVMaBxVe1a4ehIwlaIWYrKH6bsLZLqBQGMCuQPN6UtMourr5bDNlP50sUsHR72/xMUFwhOdHALX/MlM6yloX5Ghl59bklcGShny6TL15n5H2/QP68wymMzryozrF0qMee/wtjsLM9ckdkUwY1qz74DVK1iGVPlnSmUNySYivN+ZEKi2sqwdpFoKuiFBoXnL16ihRrU4vnyeocxZVV2V8vN/ulmqUblsmaLXi0HY8C98TC1MUcQQlQJbmoZ09y6Ume5UurGnu1bNCDETzBLlcpavyI027f05fDb0GFc1oq1lQG5zT+76fvkzu9HWFDbwHkcVKhEkUKWC1L4TSIdsyLt5PK7mVOZEWcHvP0KY8F8lNlyslIAyNh53NnFVzjjuTv5wMiMB135eydPTlYKAOhLo9pVlAWA5qxJ+Kpra1eGZotrR23YpkUAsLtLlgPsj14a6PjqsU8EifE0vfHk3Z7uAr37LBY/vk+6XMsebFCDBtTyPq+ChyfPUxYAGtfGGtNa2rFXi03Ju9xLpTlPxyjtIiZCGlIidxj66EhT+zP7lie7wWtBCcxMCg/5R499J1TKFy5ezKQFOSQI+C8CEIxPnTmjBQBdv1UtnXGykqTTHHabFxmq1KJhTdUqciyvw7iWG1Ge83LsqBMX+IwAoMNqOye8dAgApzmC1PBVm3Jqylbn5+1JoHWa9rygOovbf8hW45POCAKeRmBvfCKHhoYJlTqtYaPHRRq269R74nwNX6/cRGc0RNdDfhGrSVNKbFsEp7CLAID9jmSVG7d+6y6V4k6VxZ5qcd7DV6XPl633Gi0AB4KjN+cvVx3yNeXXbbaF8HtNn+QPQcCTCOh+f705fwVHgvTkiJxvG6v/Ycs3OF8giyvh/lemhPXu2hu2YeteiTDXuWWPP6de2kUAQD+VJCJEPUP0M6upR4cWyk0cZjX4oBlLlOtxRwXfrY6hxXEHtDaFpC9CgoAg8B8C8zkHgk6az/vUP67zaHw2p4fz7PTFBCFAleAyajVhjtm2e59qM0pznWrj6cvbSQBYk75jrn5HzPIlq61XrQ/o1s7VrmV6/c/rt9Bs9Qcp07p1HTyYeopenrNUV3VX65k6bxnpMni6Wql8EQS8FAFY/k9boFfLBiiem7GY9p84aWtUsL04eqP63j8GqSN0dE5gIS+GhkyAq3Nqx13n7SQArFAd9CI3rCyrVihNNSqpu3hBPQerVx2SrypumZW/yPuR9/01h1IsyLSIwE0TZ8EhREgQEATwWzjOwrZuOp52znjH4LdsR4Im9L6/ZmvZqkC2Tau9wIChpjlmpV3uhwgAJu7EHbe2N1Hq+iJ7U05QtzFTtRi/XF+72pHH/p5PM3bGqVWSTekhI8aLN0A2+Mgp/0AA1v+f8W/BKvp7Ryw9PX2RVdWbrvcUZ9u8ZcxkijsGN3h1GqDpnZxTTzRlxlRe7ObUT2fP20kAgGWYkiHgHg7QEK8YutQZ4O7s0UFLsha0tYz7POCPmXTJRhY7gxetom9XxTgDhelrkPf++3FTTZeXgoKALyDw7dgppMmqPEs4vlyxgT5esjbL8+4+AY1Ev/EzaGWCHm8gJJu6s7ueRVl2WOw7cIgwxygS5jjbWEHbSQCAnkp5I2zCDOul3dC8wTRwwK2Kz8F/xSdu3U13TZhFZy943j/+oyVr6NW5y/7rnIXf3vlyFG3bs8/CFqRqQcC+CCDV8ntfj3ZLB1+avZQ+0xTLQ6XDafyOw4Jnyva9KtVcU/bRO7oTEkdZTZrmFsxxttmTsZMAgPs3U/Umjps6T7UKp8o/1LerqQxnWVU+ZuN2avvzn4R9MU/QOQ7Oc9/EOfTirKVa9uScGcNpDoh013ODKVmTGtCZNuUaQcAOCBw9doLu5Gf/TNpZt3QHGkYYBT40aR4hrLcnKPHkaWr94wT6LUafEXz+8Hz0YN8ubhnOb1Pn62hHeY7T0QlHHXYTAKY7Omb2Ey4a67dYHxMAD95T995mtpuZlvtn30Fq/O1vtMrNgXIS2FK4wy9/0U8cpdDdhLCafZ54k47Z3FrZ3bhIe76LAIxgez/2BmmKKOcSUN+viaGOI/9yu3fAioRE492GT530zH29tS7Esuob5hRN2krlOS6rPpo5bjcBAHsjylEW3KUFeOKunoRkKTopllcGTb77nR6buoCOWbw6wErgk6VrqeoXo7TE+TeLw+pN26nTvS8oJb4x27aUEwTciQAm/U73vEBrPRgMCzECqg4bTQgZfEE9qU228CHs+cAp86jZ9+NpHws+OqlKuVL06B36tmKz69u4v7VolrEytc3+P8ZrNwEAfVKWkLBX446kM0GBAfTxywPRZ60Edd3XKzdSFZ6YEYgH4YN1EurHHly9b36l52cuoZNsketpguamZd+naMykOTr8bD09HGlfELgGAfiOj/xzJrXu/zTBANbTlMqxB57lLYEGw8fRNPYU0G2EDCv/bzi8L95hMCjWXf8NN9xAn/7vUQrIk8dyKJG7ZIIeTwrluU33YO0oAPylOsgjycdIk8FGjl1BqtQ+N7fO8TozFxziPTPECijxyQhj/26nYqRDxByAkV+Fob+w++EUijlsi2iUV6FB/vrH3hhKHe9+nuYsVYoLdbVO+SIIeBIBTPyzl6ym9ncNoiffHkZIhmUnQvrdLqMnU6XPRxrawKOn05S6t4PfUc/wZFnikx/pUd4zR4pfK6jfLTdR8/o1rKj6ujoxl2BO0UCTNNShtYobtNamp7LcXM0+5mIq1VUuW5KWTfiacuWyfoiYuLB6Vcnd7sxYWeilekULUUcORtSM86zXK1qQioaFZlkUWwjrOYnPCna3mbU7jpbEHSQY+3kLlefUybd1akltm9ajutUrEjQuoOffH07f/2behRD2G7GLxnkLDNJPNyBQpmVfJTuUB2/velUbiMh+yHcxj8P7TpixUIfrmBsQuNxEUJ7c1KJ0MWpfvhQ15rj6dYoUpIjgwCzbP8ABjJB8CO7MiBuyPvGI5UbE2HZdMHYowRvLakKCpma9HtOx/7+f+1qK2TMWmFkAZf3smEXDORz+hM8/l8M1OZ7+5eOX6db2zXO8TscFG9iVr8Pdg9we4jZvQB4qkz+cQvgzMiSIUs+eNwILxZ9ItSSKnw6szNSRO1cuKlmsEEWGh9Ghoyl04FCSmWqMMu4QANawpfM7w0aa7qMU/A+B1564i+rXqPTfAQu+qQoAxQpHU+ECkZTCvzv4i+vK7GfBUF2uMiokmEqw0Ix3TFhQgPFewbYk7JV0ZPBzpUPBQYE0d9RnVL1SGVeKmb52ErtP3v38+6bLpyv4KX8flO5vW3y1fgPF3DDHcDFlAeDTEb9Tt3bNCPtFVhNCUb436AEaNPgbq5u6pn78ELccUYqfdE19dv0DaYRj2YI4lhLt2sVr+gU3rwUr1l9zTP4wh8Cjd3Y3V9CNpSCQqgilbuyqy03BkA9sB/roxYfdNvlj+wZziCbCnGY7sqMNAEBCaizlVFYbOW3jbDfuJT/Qpws9flcP291kd3SoYFR+dzQjbQgCfo+Av/7Wnr2/N93Vs6Pb7v8stt3AHKKBMJfpTfeooVOowq4CAPr2Nf5TpTeG/uQWjwBHP9955j4acKuejIGOOu3+CYOcFX9+45Zc3HbHQvonCFiJQKlihdm26Svq27Wtlc3Yrm5k+nvt8bvc1i9Y/mvcwvvKbR13sSE7CwAjeSzKppcIt+nOmPPYbhj62uPUqWUjF2+Fd17eu3Nr+vKtpygqfxjB5gJ7dEKCgCCgHwH8tsYM+R8h9v1Xbz9NPTu20N+IDWvs0qaJMV53bOU6ho8cDTE7tIQrxhyGucyWZGcB4CQjNkIHaoO/GUMH3ejyBt/UUZ+9Ypl7oA5MdNSBF9A37z5DMNADwQ7iu/eeu/q3jjakDkFAECDKkzs3jfjgBapZuZwBB35z3w0e5DYjZ0/dA2gXf/nkZWP87uoD5or3h2vbsv+B+60/17MmMOwsAGCIw5iV/dbge/u/T3Ef3EcQAr7lyfCpe25zX6NubGlg/270w/svXPfD7NauOX311tNuMbx043ClKUHAYwhg5Tvk1ccIK+H0BKHg549eopcG9k9/2Ge+4x2DdwnG6U56+ePvdcVrwNylZSvbqvHbXQCI44H/v73rAJOiWMIlGe6AI0fJGclRyUmRHAUUlSCoICqIGRGfiFlAQRRFQEVJBhAwYEAFwUxGJCgISkYlR1/9K3Pu7e3szk73hL2r+r6+Sd3V1f/sTVdXV1fP0dH4tz/8kj5b5a4fBv5xH7q9Pz1212DKwkto0gJhLf6Uh4cH2mQWY6F3x5b0DEfpMiwDaaHd0gZBwAsE8D80kacUsQV5OMI3BgoAOsq09I15+r4hEb8x4bDQcQ+xG95dulwHK/BAsBEt8wi6BArl43cFAPI+xElLLNwhoyfQgcN/hWLg+DU02fenP0Fw4IlnKlY4Py148RGCWS4a9e9xZcB050efADfWaGfgD7OQHgTcwBJLvvxG+N/BVKIVz3c4HuN/E/+j8UylLy5CH818igZe1c71ZiDa35DR43XViz7rf7qYOcUnHhQA7B35mg4AMLdz06hnPAnSgUAmX8yeyHEJ3AlMpAOvYB74wKycP5ka1qoSfDvieYeWl9LiaY/5TvFxYwvWBA6eIqQHgcQc2fUwisDltOb9NiJUZelRyWKFeNDwOLVrntLsH6nwpbWrBv5Hr+4Un6uQEPXz8zcnBHyJIrXTiWcYFKBv2KMvpgr6LH37HjvRaOYZDwoAmv4wp9M4USXEmJ8wfb4qG1vlEYHuVXZomT1xNOEfPB6ocIG8NOe5BwMmxlyJ5mGHzdpiKD6xfMjMeOm6j42iEK7VSXIjTKmT8vuJd2KC8wrAGR8pAJjr//zNiVSrSvmYXwP+R5/nFQL4xhTOnzfm8l4UwKh/3qQxASdHO98YHTKPf2UeffLVDzpYgQd2V0Of5XuKFwUA8yhTdaE57vnXaeUPynGGbIvTtll9WsX7FIy8oZdvl83ho3vvzdfQ9wum0hVN6tluKwpC8XljwqjAP3ih/HmUeOkqfJQ3RnKSEhNyOMk+XfHO6TCWUAix7ttrQoc9/Ym7eanfqMD/jIo8+MZ8v3BqwD/ADQXKjqw52EoG/wVYFts0rmuHhZYy6Ase5ZViGulF5uXruX+jrfE0UYmeYzOnAobwKkeMbJe++hRdzJvreEn7ePesya+9Q9PmLdHlearUHDj59e95ZUA5wXpj3fQXbx7yxNQ3adrcJY6PwiPJvnrRy44GLsJ8YvmWfSOJIM8sIrBt2RuUj/e7cIrwP1ihlXfvKnu2rHRDr/Z056Be5MQIGH5PT700h6bPf9/1vUrCvTModIN6t6chfbsEYhqEy+PWvd/+2BfYqVGj6X8/y16R02G32qBSTzwpAGjnQE4vqzQ4uCx2lfpgxhOOflyC64t0fvivI7zD3WKatWAp7di9N1JWR56V4p2/rucwm327tCE3Qo3uOXCIJrwyn17n9nqxReqKuZMcjSkOp7LijXrSMcXtVR152XHEFKPX35bPdXRZ6U/bd1LDbkNcRwVtw//b8P49yQ3LGJTSWQs+phlvfRDYV8PtBsPU37dzm4CykzvCLqZuyYX9Otr2u4u2/LpLZ5U3MDMt8Wt0CmXGK94UAExZfMWpgVmDYr2POeqFU8e5srWkFdnQccAk9eaiT2nhxysII2anKG/unNTqsjqEZXstGtZyZevk0Lag85/PW6a+9s5H9ANvoeqWN/ailx+lxnWrhYqj9bpJr1tp3ebtWnmmN2Y1q5QLbP3qZLu//HYtdRx0n5NVJPPGsj18c7Csr0fbZp58d+DwhiXRs9/7lOe9v6dDPPhwivLwN6ZLm8bUq0MLalCjsqOKXCxtgGLeafB9hF07NdIq5gUvb19t+RupffGmAKAttTkB6My40EGtLqtNs58dTQje4yfCvOTqjVvpi2/WclpD36z9iY4r7MoFx7Qq5UpxZ1+TWvOcGz5Eflqrj1UaH3zxDf2Pt9GFRcRJenb0MEvLq1RkGHD344T4E0L2EUCo6ZcedXYXVYyIb394kn0hLZRERziatzVGiPAiBfNZKOFOFuyy+QN3gnCO/ozXwG/ctkPJIgerBjr6pvVrUJN61QMe/X76xgBV+Hz0vvV/Op3+Amz5D5ZsaPMkBFOnyV89nrXWAuBHOI2xlj16Lnh/3nDvk/TSuDt9FUwDEbDqVqsYSNgJC6PjXXv2s8lqN23dsZu27/yd4MyGUTQsBVjehrXDuXMlEObZkGBarFyuJFUqU4KX4xX0jQYe7q3ALwNtc7rzR91bGD+nqULpi5WrSOL54bJ59ftiKAtmgcFWNjn/dVJttUW5UsUs1KSWRbMJOKww+E3jfxa/cT8ROud61SsFEpx+QTt/30s/bf+NsI/KvoOH6Qh/X/7m78vfR48RlkvCTwjfFpjx0eHDtF++ZHEqV7KY7+MQQP7B9z2lu/MHbOiT4qrzh9DxqABAboB9JSdtUwELlq6gQ38eCXir48ftR4L5EE6LSC0vreVHEW3LhJEIRmGYCnCD3PjoQ3lTpcwZM9CXA3tQ9jiLJHmcP7Qlnn5FtflUv0YlZR7RGGz5ZVe0LFqeT37tXTpw6K/AxjZuh7eNpQEIWIZ0uYee+bHIazUvrKfXjXw0YO2wWsZiPnT84yzm9VW2eFkGGAoaoiz146R1LZcxFwhnGSH3EIBWDnO5W50/WraVLQ1OU6M6lyhblPbz6Ot1nvqJN5r+w0Y6qOgAidC2MCc7TW5Yg4w2zFn8GV17xzhPV8AYsqSnIwZ3nW8c5UTnf4pxvJ4T1v7HHcWrAgCg8VW8QzfimHOHZ6gXnvi62xIP/P78+yj1GPogwQLjJv26a0/AnOlknVjeVbtqBeUqnl7xI533Yahas4ZB1ue+XmP22PJ9mKaxVtxJOnX6DO10edXN+8u+DsxBO+ng6yRm8cYb3/I2191B3zqjSMNBZX28YWLIG88KANowhdNrRmN0Hbfx3Hrra+9wffMgXfLHC58fN26hpr1vCzg4ui0zHCwxx+k0NWtQQ7mKzQcO09z1W5T5uMXg9TU/EWRWJTiSOU0btvxKmH5ym5Z9vZp/+7cGnHzdrjs91YfNffAtxzfdAXqdeTrrPeqA0MEs410BQFsGc/o+uFE6zjEN0O3m0XTPE1MDXqM6eAqP/xDAEqQr+98dcDj67667Z1hZ4TR1vbyJliqGLf6cDjgcvVCHoDD73/nhch2sqFOry7TwicTEjd+AWf0YmV7R7056YdZCsyxy3yYCUOoee+ENti6OJoemdNeyaDfaFM83xdKCAnCS0ezO6YBuVOF1/8IbCwNzR1iiJqSOANbfYsXFTQ884/k8KHw+nKZKZUto2dwEnf/dH7k7TWIHm9uWfE772G9BlWpXLR9YvaLKJ1p5N34DkWTAFMQ9T04N+AXAy15IHQFEduzOgzcoAA7t/AnzVjdOx9Wl9ZZDWlAAgCBsub04wSFDO331/XpCUBeN+0RrlzEeGGKtceNew2j++5/7QtwVP6x3xbrTp0MrLe2d/uNGWviTfwMLzd+wlWatRbRuderVoaU6kygc4Hy6kjH1A733yVfUrM/tTixP80PzXJPhnY++pMt6DCVMsThE6GMw4NzmEH9X2cZjIKBIAEEJeIOTY4oNgls8dd/NVFHDGu9IDUlLzxD2d8yEGTSboxv6jT6c+aTjnuYwQV7Str+WOOwJvAb7s/7dqJ7PdpNc+dsf1GrGO3SCO1VVQiyL9R9MdzxOPBT7dgPvURVXe3kEC3r6viG+X1OvveEKDLfz7++ux15wwss/WKp/+AIe/9r9zoIrcfM8o5uVuVDXBq7jCKcrnKoLQTKwXA3bh8JLOVOmtAahPuQwDzf1zffo2hHjOMyv1pCb2oTEemcs13OSEtiT/fe9B7U4fJ05d57e2bSdulYuS/k4sqMfaBuvbW8z8x3loD9GW/p1b0tdLm9sXDp2nLXwY1r+3TrH+NtljIBBr7+7NLACohZPhWTg+B9C4RHAtt6Pv/hmILiPC7E97mApXgwvSXzeTau/rCf4ddzp9CvBBjp3De5NPds1910YYafbHok/5t0wXfLkS7Nd8bSPJEu0Z4iQuOrt56NlU34Oh686nQZr23YW0QEX9+1EFT3eXnkD+8a0f30h7eB11joI4bh/eG+qK7t01u96E/3sUhAgu9hUKV8qsDMn4ulnyJBWP9exo4NwvnMXLwvsLOrSku0nWcq7YpfU3yXS6vB1KcOehZMeF2yTd4g17Is/WxXYVANa+iUVS6driwA6/gW8gVG/Ox+jV3h7Y0Q98zthq1SYXJ0O0ZqUK5G27/qD1v+sZ5vwwydO0aurf6IahfNT+XxJnsD80dad1O61hbT3qD5fqKs7taI+HVs53h5sAjP+lXmO16NaAaaP8D+FAEKYGsE3JgOH702vBL+NeUuWUf+7HgvsbOhSLIVnGG/HB5RevNO0qgAAS0w4Z+fkuC0R3rsf865a2NoW4XorlC4e+GeFEOmBsBcBdi8cyNH8ps//gLDNpksEN36E9CuiUh8+rK0b1VFhYalsVR7NzXz7Q21WgFMcywDxAbBfAHwC8NtzgxDoZ/zK1dTvnaVa5vwNmfEepj9xD0FZcpomcOevYSe4H1nOfZwKOy0vBhvYKAsOtNn4fZcrUYyysD9IeiF09NPmLgl0/PAlOsx4uESPcz1pbuRvYOfOF8OozZvjWK72fjerxofsiqb1CN7frRrVTpPTAxjtf/7N6oD1YyF7MGMjIpdpFdfXjtNATjDP2aYCeZNo40czXHlPWJqEpJvq8EZPUzq2cNw58Mc/9tOQRZ/Rqt/26G4C3T+0L905qLd2vqEMYT6u1Po6HYoqOoaXOS3h1DC0HievEWUScRL6sMWkab0aaXJ6AO/pkxU/8ODiE/rwi2+9WDb8CL/DUU6+R695pwcFABjfxglmHNdtZ/nz5KbubZtS59aNqC47DSK+ebwSouf9sGELIZQpTJK/79UeesEqNB9yxh6cMAyowGkzJyWaPXE0tW1WX4mHlcJwWsIyJXgt66ZMbBoeUr8a3dm4DhXXPIrGHP/jy7+jqd+t58h5cIbWS9hJbsW8SYGd5vRyTs0Nv98+tz+c+kHsd7DbE7xbYbJ4i9PlnFynooXyU6/2Lahd8wYEp0E/bzQUDRyY+L/jkL2Y9njrgy8IU3QeEEJDjuA00YO6Xa0yvSgAALULp1mcPNvqD1o7NjdpWKtKIMH7HE5PfibEzMea2mWrOPERpkiPaRrXfzOn4M03NvF1JRW5sLvi21O0dApRxUB40u5DRge2d46a2UYGKAKdKpVmZaA6teTlqnZnBrD9wNJtO+n5b9bSIvZdcKLjR/Pg3PbOlLGkI2yyFbi68KYwGtaJ4zdXJag+TKc+y2lI0D3XT7F3Qn0eaDRvWJOaN6gZCELl1tSQncZipdA6jm2xiuMxrFq9MRAH4cix43ZY6Spzkhldz2muLoZ+5pOeFAC8hwacFnIqiAuvKVdiAlXmSHHl2WcAI6DypYoHUumLC7uqGOCfEJEO4U37C49Mf9q+k9Zv/iXgsOaRBh7u1Zzjm/dyCmfu1zLN88nrz1CdS2BQcJ4eGP8KPTfzbccrKpmUk9qWL0kt+DdWl5c8YvWAGaHD38pOZ9/9vo8+276LPuC9En7jfeydptv796Axt/VzupoA/+/WbQ7EhtdQGX5zD4ThA2exRzlBIfCc8ubOGYioaHxb8K0pz9+aEuwzktFFZ0KY83/haSMs1UPCUkdsw7yJFUwfRUDcxy+sE6evPX9xLgmQ3hQAwFqCE7Q7KAO+JThC5UvKRTkTc1BijuxazXpw4sI/HfbHPnj4bzrEH3mEPfYxYa7hak5Y3RGOYIr9KdyDWO61a96Q3pjgzpQfPojtB9xD3zizQ5lps7Ny3IqS3Cnk499UQpZ/rU/HTp8N7DOwk38Hp85Cz3KPYA1b9PKjWn/fkaTvfdv/6IPPv4mUxeozw/wfLn9zvglrY9FwD/1wD1YBKAf58uQKxBvAYERnvAFMFx7l8NVHeIUInIJ9YDmMBjs6/V6cdkTLmJaep0cFAO8vCyeMJG/FhZCvEcDXuiennVGkXMnPlRyx8FFcMfc5wtprN2jXnv3UlENMQwFLjwT/mC9mTyTMYbtB6zZvD+w+qUHZxW/tsigyw8r4GidP/AKiyCaPUyKAqRtYbk6nvJ32r1x3ivMJpHjRcAy8itPfPpFJxEiJAIaij3LCMs5onT9Kvoo/KoSO4elpMA65Q8ULF6B5kx+iBJ9E9HOn1f/WAn+YWWxtcavzR61PvzxXl6XLym9tH1d5JSesQDrLSch/CODbj8EF+oJ01/njdaRXBQBtByESSHVOn+BCyDcI/MKStOJ0H6dgZ79IAr7JD5U9FLGZCFY6uEXwOZg1flRcrw6JFSs4vr761L2O78EQLBfm/hd+siL4lt1zmGvwW7NC8CYfx6klp185CfkHgY9ZFHz75/tHJPcl8YWjivvNTlEj1pnAVPc7p+acsnIS8gYBdPaTOUErj7UXhvduMU71OdkmuEKs+WkbXdv1cq1zopEEQkjpi3kdP5anaTBPR6rK82dwPHv+4eGBNexuCYOYFdeNHBfYj0FDnS8yj3dj5LOT80/lBEvApZz+db7gEyHXETjONcJ5EyuJ/nS9dp9VKArAfy/kez6FZo/lZOX+uy1nLiHwOdfTkROUMbvmuG1cdignJd+WPfsPUaF8eQh70rtFl1QoTUhLlq3SFinQLdmt1pOVI9dNHTeSerRtZrWIlnwvzVlMr3IERg2EEf11nA7Z4IXOfxmndzhV41SSk5C7CHzA1bXjtJgTq/pCSh/KNAxfB27bM5zc6wHSMJhRmrafn9/J6VVOOv4plzAfzL0qEVZhfPvuC4QogW4Sdqe7+vaxfloapaX58HN4/Zn7qUXDWlr4WWWy98BhwqY/mmLGL+J6oaSqEr67/Tg9wckdD0iuKB0TrIkjOOH9CQUhIBaAIDCCTn/mc5j6MN+H5YIyLcAgaCZgi5UY13BCWF9dtIMZDVBlhoh92IilQ0tYbN0jbE/cpnFd+owDL8XB0ilLwJS5uAi9+8JYqs9BsNymEWMn6/Tp6M/y/6apDauZzzRO5zjV5CTfGAZBM8HJbxSn6zlt0sw7TbATBcD8NeIf8ytOL3E6wQn/pNk4CakhcIyLv8AJKzDe44S5e52E+dYmnMqoMsXOfWVLFiVs4uMmFeTph76d29CO3/f6fjvlaLhAgZo7aYwr2/uGygKHznHPYzm+FsIcwqNaOP3HBN+VTznBPwDnMI/IN4ZBUCQ4AxvfmKV8jm+5UBgEZAogDCgmt3LxfTiO3MMpySSP3DZHAB3/NE74iO4xz6blyWXMRYvLd2JCdvps1vhAhEYtksXI5KU5i2j0+OlebLYUo6Qps2OZ39gRA2ngVZhydZ+w10Kz3reRxrCyUCqXO9ySfMx/GKfhnPC9EYoNAXT8r3DCyou9sRVNn7kzpM9m22o1zEn4AMDELBQ7AlgXvYyT050/JIPlRovXF7Y6HnTfU3Tq9BnwdZ0G9epAPyycSl3aNHa9brsVtm1an75++3nPOn9M31w/8lGdnf8HjIXTnT/gPsjpe074XxGKHYHtXARLu6Xzt4idTAFYA6oYZ5vMaQKnwtaKSK4QBPLwdS9OzTmt4eS0IoAP6Y2clJVcrAr4m/cjx9y8F5QzIQd1ubwx1ahUNrCHvV99A0rzXP8LY0fQPTddTblzJnoBVaDOux5/IbB9rCYBYD7uzsnpTrkS1zGT02hOeTkJxY5AIS4ygBP+UVdy+pOTUAQERAGIAA4/ysbpXk5zOOFHJVMmDIIileLygzjl54RRld0lf1w0ImH/AChr9SLmsvjw+/U/U0neQKVaxTIWS+jPhg1dBvfuGNjcZRNv1IMY634gxDHAZj6TxtxGFXj3QS9p1oKP6ZHJr+sUYQozm6GTYQgvaEpPcJrBqSInIXUEKjCLwZzQv33DCUswhcIgIB1aGFAu3GrAx+mcKptnkSeKCPzO5W/hhLXRThBGUls4aRlRIYjNTI5g5/bKgHDAIHtHe4QAAEAASURBVLjNgo+XE9a4r/xhg+sBhLBvwqW1q9KgXu2pc+vGgS19w8np5r0PvviG+g5/RGcchcMsPzoTKJNO0JXMFApGSSeYC88AAtv4b39OXwoeqREQBSA1Jln51hhOd3ISCwmD4AK9wXUggI8TJjtMA7ygqw1wblsw9ZHAnuu6eKry2cmrBWYv+ozmLPqUtu2ETuUcYdvqq9q3oN4dWhCWLPqFsJd815se0O0sid8OPPR1U25mOIlTX92MhV9YBGABwJLjhzidCpsjnd4UBSDli6/DlzM4XZLytly5gMBOruNaTl9orgu/8c84NdPFNw9vo/r+9MepUpkSulhq4wPv9y++WUNffrs2kPYdVNOpCuXPQ03qVQ+kpnzEPL/f6CfeU/7KAXfTYb27Ki7jdrbk9I/m9jZhfq9xklG/ZmAtsFvPea7n9IOFvOkiiygA/71mmKKf5pTlv1v+PsNoNG9STsLmKtmyZKFs2bIQ9pk/dvxkQPBDfx6Jt4hy51jwxziN4aRz3g5m3NWcsnPSQtjFbsGLYz1bHmi1EQcO/0VbftlFW37dRVt3/M5+A38Ffh9wJDx24t/fSUL2bITIh4jWly8pN7epWKBd5fiILXv9TGhX5xtHcZx/rVb6E9zmGpwwfaSLMjGjMZzu4RQ3lsVciQmBbwzLHPh94Ftz8uRpOnn6dOBbg2/MiZNxNaiGz9EITnDqTvckCgD/rvlX8BKnPvHya7jp6k4Bp6tsWaPrKmfPnaO3P/ySBvNStjiiT1nW3pz2a5T5DualFQR0jghy4+aeARrxiHtWcMy86pYxTjhD4reCUOC6qAAzms0JFoW4IOzZ0O2KJpQpY3RdBcsux0ycQS+8sTAu2nZByFl8xBTPsXgSWresGXQzjDN+GBmu5BQ3nT/wfWXeEtpuca73NK9fH/f86ygWT4QPJcx0cMTURfigL9bFDHwwuu5ww720dPl3OtkKLwsIfP71Gh753+9E5/8hVz/egghWsyC6HzzR46bzR8Mefu7VwEgf59Ho1917aPr896Nl89vza1gg/ONW8ZtgbsoTXb1zUxp362rH1X3E6WJ3q1Wv7dz58/T9hp+pb5c27H0dWYe7+4kXA3Hl1Wt1nUMurhFOUr9yWsdJB8GycB0nWH20EKZcFixdHpgbr1K+lBaewiQyAnOXLKN+dz5GGHlqpr3M7wpORzXxvZr5YFicXxM/19j8ffQY/XnkKF3BQZ0iESyMVw17iHbvORApm1+f4b3A7wjTg1v9KqSTcqVXBWAggwoTkLY5YSdfUjjeCE6TOXMmalTnknCPA/cwSrrniammz+PgAeZNu3I6w+lLDfLiw76eEz7M2qa/oJAt+mwlnTlzjhrVrUYZeImckH4E0NmMnfwa3f/0NALmmgkMe3JCkCoddB8zmcQpsw5mXvBYvWkbXVqrKiHOgxk9PW0uzWOFLI4pK8uO6cZdnKAIpCtKjwrAGH7DMAdHHjpr/hkkFatMl7S7nS7iEfuRfdu1cP+alz61b9GQCuRLSsUPIWx7DH2Qt0FFn6dOCfkupjo9x9DJIwfo+OE/1Bla54DetBWnYpxgZ1T98kPTh7OhVpPsP+wr/hWvx8d2vq0uq03YQ0BIHwJw8ut928NOdjajWNoZGiSG0voipzs5uaoJXlKtBt1w41DaumUzHT16RENT/v1NX9vlcsqSJbUes3HLrwHfIl3KWKMmzahnr2to//69dOgQoiK7RugLOnHCio/PXavVBxWlJwUA/5hw9hvuNu5lG11NrYfPowJl61LhSo1p6/I36NyZk8piRJoKuOfJqbTsa00KLY9om930CpWs25nKN7mWsiXmpd3rPlaWP0YGdTg/PLPf4YQOXIWWc2HM/VVVYRKu7G9/7OM1+Z9S1QqlCdvgCqkjAB+L7kNG08+8msEhmsd8b9PAG6PJ+Zxc9ym6654H6P4HH6bKVS6hcuUq0JLFehzy/uIQ2OGmAmCN6XXr/2i3ptUXuXLlouemTKOGlzaiHlddTXv37qHNP23U8Eoss4Cy1oITpoSXcFIdaDAL/5Oro2AP4UDnD5P/AC9k+HvPluRqsycVpnq9H0m+Vj1ZvXErjX8F36//CKb/6fM/+O+G4lmFptdRkSrNkrkcPbAz+dzlk85cHxQA1eE1NP3+nDRpSMwpiOAc2POWB+mB8a/Q8QtL7YIey6lFBIDd/U+/HJhjdjDsMUz++C3gN6FC+E2+ywkjSdfp9993J9dZv+Fl1LV7r+Rr1RN8S/BNCSZ8c/Dt0UV33HU/FShQMJndr7/osZImM7R+MpCzvs4JfUaap/SgAMDKgRd6lVdv89CONXTu7Onk6stc1ouKV788+Vr15MmpswnmOBBM/8MeelZbaFiY/mv3fCjA2/hzYDv22fGMruSaF3FSdeTD8p/2nH7lpJ0Qqve5mW9T/a4306JPV2rnn9YZvvfJV1Sv6000+bV3tf2Ww2C2g+/hN4Dfggrht7iYU1sVJipl161NqcvePuIuKlKkqArL5LL/8PwWvin4toDwrcE3Rxc1adqC2nfskszuzJkztGnThuRrD06gPb3KKc1byNO6AoAXOIOTPnWYmcVK6PwP71yboljD68dT1oQ8Ke7ZvTh95izdOOqZQGAOjDoRGlYLsem/4XXPUOZsicnsznNbDu5I+bFJfujeSUuuCjbObIpV/s7l23DSBFhqaXbt2U99RzwSWLKGoDVCkRH4hSMZYm3/tXeMc9qzHG7r6LD/GzpHFs3sKYJxvMWphVkGN+5v2rieTnNwHoNyJCTQ6P89StizQQfhmzJ6wiuBfRaGPjiR8M3RQYmJOeneUWNSsPqJO//Tp06luOfBBaZx3uCUpi0BaVnDgXIDLa4vJ88pqWhF9gGolywHOtXsuQvRbz9iukmd9h08HNDM573/uTqzCxwqNLueKre+MQW/g7+upp8/n5HinkcXpbleLIHAx1dlvu4Ql/+CE/7h8TF3hHbs3kuvvfMRHT1+gv0DShGi7wn9hwBCFj/+4ps0ZPR42vzLb/89cOYMnrFXcEpp1469LnQO8zjBiuApneM5+SbNWlDBQoWT5ShWrDgd2L+foBzoIKwK2PDzL/QFh5nWRfePfphq1a6bgt0nSz+klV99meKeRxdVuV58ZxZwUp0i8qgJkatFJ5lW6Wlu2DV+adz+bd+lEkX3VMDiz1ZpM5eGM/2jAQe2p25Hqoa5dwN2w2mcVIc5CNSCqQU9rtPMKBxh3fqE6fOperuBBCfNP/YdDJctXd2Ddz+WqlZvN4CenfmWE2v7Q/FE548YIHjnKoRv53RO8EvxBa1bm1qf0T0VgG+MLgo1/Rt814dMZxj3PTpey/U+4VHdjlebVhWAYYzc7Y6jF0MF+7d9GzY3TOxZciSFfebZTTYbXnr9hBSmf0OWcIqM8cyj43Vc71gNdS9nHo4rAZATsdNfmLWQana4gYaPncwx+lWt0Bpa7zILtPn2hycFMEAIWQeC+oRrERQ8mP11DC8fYT6+sC4aDV235kfjNPmIqYAHxjyibSogmbHiCbz+7xv9v7Bc1vpLAYCMd3AaElbYOL+ZFhUAeOGO99t7OX74d14/jynnlKR7VUBK7vauQr3+g7mYKTLBeTw4R9CV6zXUu4J5wDT8pwZeUVmc4jDNCKFat/ONdPl1I2na3CW6d7SLKoObGbBb38tzFwfaijbPeOsDbXPJFtqBd4rOH+9Ylfozg3tUmegub9Zx6l4VoEPuUK9/g+e+fXtpzx+pv5PGcw+Pz3Ldnk/16G6/qulUtzyq/DCZtIxTgiojJ8o3vWlaYC19ON6fPXs17Vr7UbhHrt6D6b/jQ1+GHf2f+HMPzR+JaXdfEjyg2nD6QoN0aCScM7Am2FXKygFX2jSuS73at6BmDWoQdmOLZ8I68s85HsWcxZ8F9kzQ5TwWIyZwKoDZX8dkeDPmg39Ux/xFmLdtev/jL1MspzMYHT92jHp170B/+KBzhel//HMvGKKlOH768Yd01x23prjnowtMH+H9/+AjmZRESUsWgPyMBNaIa/9iZk3ITdXbqA8wIy2f88VUQATTP35lOkb/pWq2oFwFioOdbsIHeT4nHczRUVzGaR0nVwlWASwbhBd86aZ9qFXfEfTQszN5P4cf42LbVUxvfLryx8DucC2vGU5lmvWh60Y+Spg79qjzxzvEu9TR+UMhxG9Me+cPh72mzZozazUKNw0Ajn6ZCohk+oeca9esxkGJ+lzdl3Llzq3Ew6RwIt9HH5PP5Hnc3YYXa1ogKDKvcdLx8U+BR54iZajbqLl0UcZMtHbpzBTPYr2I1IEaUwErXhkaK1tt+SOZ/lFJJPmtClG5WS8qXasVvTOuD/3x83dWi1nNV4AzzuUELf2M1UIm+Xbx/aac3uQE07HrFIj0yFveYttbBF6BdaBKuVJUvlQxKl+6OB+LU7mSxQLJytbQOhuAOXvM42NpY+DIUfq2/LqbNm79laDE+IQ+YDmwukPHlA46/XmcMNDQSnXq1KVXZr5On336CX3x+TIl3uhAW7bGLFZqMqYC3p4/O/VDl+6Ymf6N6teu/dE4tX0cesutdPOQW+i6a/vQr7/8YpuPScESfB8dQUdO/5jkiZvbaUUBuI8R1/6RLl7lUupy35uUPWdeftX/UI7c+en4Xwdsv1wjIFDGTOEHEFgVsOO7BZ5MBZh5/Qc3NpIFIzhfpPNilepTQp5C1PuRxbR4/GD6+SussNFKlzK3JzndroErOo4OnB7mhDlfT6fM0LH+uHFLILEsyYS13nlz56S8SbkCx+zZslLGjBkoZ0KO5DwqJ0eOHadz584HLBCHeB7/0J9/O7ENr4qIoWXxYX6M0wOczoU+tHmNVUUNbJY1LdaxU2d6dtIUypo1K9Wt+98yYdMCUR6EBgQKzY5VAStXfOHJVICZ178hIwIA/bRpo3Fp65g3bz4qXaZMwOlx8fsfUf/rr6Vvvl5li1eEQu352d2c8BuLa/L0g6YJuRbMZymnjJr4BdiUrt2aOt8zizJnzZ7M9u2xvWjbt+8nX9s5ufK+Dyh/mbqmRTHPvnB0Yzp9XMegxbSalA+4A2k9fH6KcL8pM/BCew4ANHtYad7D4FToI8vXUKRueY01cq4P9M/5c/Th87fRuqWvWuYRQ8aunPfdGPJHy9qDM7zCKWe0jPLcUwSOcu39Oc3XKAXePUb/WumavtfRY088xcrav58uRNy7pHIFOnwYoSnsURZWJD5f8T3vFJrZlME3q76ioTcN0LZk2LSioAcw/c95e3FY/wQj2/p1a6hfX7WArW3aXEEzX3/DYEknTpygGwZcH7CuJN/Uc3KW2bTipMPnSI9ENrjEuw8A5mLwtrV2/hUbdaWu989O0fkD26I8elWlaGZ0YypAtZ5Yykcz/YPXoZ3rlDp/8ChSkUc4Fzp/XF+UISO1Hfoce8HfgkvdNJUZFtLIFB1KbU5fa+QprPQi8A2zq8VJZ+dfhPmF91hTkB0m6ieeeia58wcrWHLq1DUfHFipDhH0om2iY0wFWOGnK0800z/q0TH/XzsEv+zZs9OMV1+nDh2xOEwrwXqO6cE8Wrm6zCzeFYCJjFdhnZhVbNyNOo58hcKZ6WG+ViUr6+h1BwiKJLMV0z/K6wgAFBY//ui1GDCO6nVB6AatBH+Al7RyJNrK/BpzeoSTLtOyZhHTJTu8C7wTvBu8I10EU9U0TlqdvoYMHUYPPPhQoMMPFbSOlmmANaFsU13rDBCUinnIjWimfyO7mQOj8dzKMRx+mTNnoSkvvuyEElCUZRpvRS6/5olnBaADg3qNTmDL1ruSOox4KTAyDce3cLk6lIGdAVXIakfqyqoA7nzNAv6EttGK4hJaJvS6SAXzOc7m/cZSrXaDQouoXsNRZ6Aqk5DyZ/l6FCc4CG4IeSaX7iOAd4B3gXei2/twMPNEcChtNOCGQTRq9BhTfnAIVCUrHalbqwKief0Ht3UdTwGoEKZSatasFZYFnk2e8iK1bnN52OcKN6/nslhiGpcUrwpAEqOt1SxXskZz6nTXTO7gzefOMmfLQflLVlF60ccO7Q4bECiUqRtTAVZM/4Zc0aYujHxmR5j7i1SI8HFjZaT14KeoaoveZizs3n+KC2q1El0Q5Cs+YkpgNKeTF+7JwT0E4IwC7PEO8C50E0Z3T+hk2qt3H3p47KMRWdasVTvFtEDEzCYPzQIChWZ3YyrAiukfcukIAFSxUmVKTEwMbWbyNSwBL02bQY0aNU6+p+nkRebjyLpDTfKZsolXBQAf9WKmrYrxQf4Sldnh73XKlCVb1JLFKqk7Au+3GE/fyakAq6Z/AALHxGOHsCrOPhVgxSlLdvN/zgBnVgKuuGUSlaiGAZ02grL4jDZuKRmd5suHOdXgtDjlI7lyEIElzBuYA3u8AydoAjPNpYtxk6bNeM5/fFizf3Ad6MDQkakQIunt37/PEgsnpwKsmv4h6DoN6/+trKLAaotp01+l8uUrWMLHYqbinA99UtxRPCoAlzLKA3QhnZBUkLo9wGusc1j7X49kxrYq04EwGwOZla3WYYTZI6X7lVoNChvtLxxT1dE/eBataM1/Ar4XXe6dRfkurhROFLv3+nDBNnYLWyj3M+fpcKEONTumhcrScRZgi/eIZVibHcQBZv+euvhXrFgpMPKM5JkfXJeVjiw4f7hzK9MAKIepgN7XXBeOhfK9AYNusswj2vJFK4zCzf+HK4cgQa+9MZvy588f7rHde5hqbGi3sFfl4k0BgFMOnC7+XUemiNq/nc0blLtgCcuc3FgJYAiDUfeXL91oXGo9rnn3Udq7eYUlnjoUgMAKAEu1ESHyYrdRcwJHi0WsZJvEmcznd6xwiJ7nY84Ck3Q/Tls4CelBYCuz6ccJ2AJjJykLM39OVwW5k5JoxmuzCHPhVqm2Bj8Aqx7133/3DU2ZNNGqaDHlG3XvSMtx/XUEAIrFf6JEiZI0nYMvYVpAE6FPgqVRS9+kSaaobOJNAYDTn7oN/gIsLQY+GvPSPkQGhNVAhYyAQJF4wFdg6ZNd6Oj+HZGy2X529vQJ+nRib9rz05dReehQAGKdOkkqXJraD2eHzIu0/URh87M+JImKimmG8/xkJieYMK7itImTkD0EtnMxaMCwiQNTYOs0DeUKyuqoJEOGDDRp8gtUsmSpmNjpsABY6VB//OE7Gj7sRjp58kRM8lnNvHvXbzSo/zX0++7I04enT5/WFgDIqmzIB4vBaF6NoZFgne6lkZ/jrLR9XR2XlK1VXMc4XfVUbtrDttd54fJ1lMQ4x0F1Du9ca8oDI/+PnuxER/b/appHxwMoAdiEKJIlAAGADkWQ1YocCAAExSlWKluvLTXooXUKZDTL4JazDjqrTzl9Fmu7JX8yAvCrmM/pbPIdZ0/gL3K/ripuH34HtWod+8wTItnlyZNXSQxE1ENkPTPCyH/YzTfQ8ePHzbJouY/Nh24e3C+iJQBxCxC/QIUw+kcchVhp4KDB1Klzl1iLRcr/GD/MHimDn57FkwIwkoG7WAd4eYqWpcs5AI1dcnIa4N/Ov7NjI//QNhuWADMlwIkAQKEyRLpu1Oc+9h+oFylLLM8w6XdvLAVs5sVUw3BOmAYYYpOHFCNCcAhgeCsntfW31tC8j7NpWfNfr34DGn7HndZqDcnldEAgdP63DR3s2Mg/pDkES8CNN1xnqgSsW6vuNhMaAChUhkjXTz0zMWYrTQR+JfkZ/vfjguJFAcAEmhZQYVJuO2wyZcmWYPsFhQ1oEyO3/du/T1XCabN/qgov3DCUgHDTAV6Y/4PlRNyF9iOmRV9BEFwo8vlt/LhI5CxKTy/j0j9wwnxgHiVOUhgIYCg8kRMwhYnVKSrEjGH+V6YcOXLQhImTlJbzWXVoiyRsuI7VabO/mTyRpgPWrsGrVaO69aw5GYerBSsvnps8Rel9hfC9g69zhtzz5WW8KAD4x4R5Tpnqdb2VilfBN9o+aQkItO3bFAK4ZfZPUWnQhdl0gI4NgFRH8EmFS1Hz/mODpFU6zcalb1fiEL4wphZe4ASnikvCZ5G7CghU47LLOcGZ04mPK4brmGZUpv+N5a2c2YyvQloUgDU/phDBLbN/ikqDLsymA8IpKkHFop5GCgAUtfCFDFAgBg3W5iIEpfVmq3V7mS8eFAD8U2oZ/ectXoEaX60+xac7IJDbZn+zH5xhCQieDlC1ACAAkKrPBOStcXl/ZcUtqN0wy2sx9V7g2ZKPaznBYS0e/qcuiB13B2CLwcAaTk01Sl+AeWn5+l92WSPCfvSqhIh2xiZBdnkFBwRy2+xvJnPodAACAO3d84dZdkv3ETchgZczqtLd995PZcpq8f+EKOizfO8LEA8fq0EMJP5BlQmR5jJmzqrMBwysrmuPVBkCAvml8zfkDFYCXAsAZFQe6cgOPm1uHh92j4ZIxUyeJfJ9HVYAWBMmcMLStBKchNxBoDRXA+fKpzjp+IfGx1q5B8mSJSvv7ve0LWc0rj8F6QwI5JfO32hgsBLgVgAgo+5IRwQJemTc45GyxPKsMGceGEsBL/Jm9KLSGOrEIs05nHLFUCZs1kpNelD9bpj+1UMnjxymLaveU2IGf4R1S8a75vBnVdjz587Sju8W0NnTJ+nAL6l9FazyQb7yDTsSvPl1UI7cBejMqeO0e9NKHeyqMJPnONn1MC/HZT/g1IVT7O7HXMgLypmQg5JyJVCBfEl8TExOWTJnIixbOx3Bc9wLeSPUCcwxl4cfFxSwPznZIVgYZ3FSHq3dettw6tipsx0ZwpbZuGEDrVGMkHfu7Dma8PTjrjn8hW1ImJtH/v6bPl/2KR09coS2bYOfp30acMNgqlpVz6xbqVKlafPmn+jnnzfbF+i/khBqMiesCPIl+f3D1ZNRm6uKHEz2N0z5kRLz6vP9OvzHdnr5ppqqoqX58u1uf5Hj+/fR1s7TJ47SSzfWoON/7dfBcwAzmW6DUXcu8wonZcXURt0xFyleuAC9P/1xKlwgL2XOFNmZ/szZs7Rn/yG6sv/dtGuPFoxjltdGAXT+/Tm9a6PsDVzmJRvlUhQpVKgQrVj1HcEBUBfNmzuHbhs2RBe7NMtnxcpvlX0ugsH5ffduanxZfVaaTgbftnuOb8Xbdgs7Xc7vUwA36gCgTschWjt/yKQjIJCOtvmdh46pkuA2Yj+BRn3uDb6lcn5rjIWhMN/NaR6nuOj80T505DPf+jBq54+8UBBmvPVBPHX+EDuJEz6yYzjFSsNiLRAu/8i77tHa+aOOWCLbhZMpPdzLmzcflSpdWmtTixYrRgMHael6INdgrcJpZuZnBQAm1paq7c2WmET1u+oz/QfLo8O5LZhfWjvPniufrQBA0XCofnk/ylusfLRsVp7DhNPISkbOg+momZwe4wRFIK5owvT5tHrj1qgyI8/E6W9FzefDDHgnD3KCZSazRfmacL7qFvOaZitXvjz16n216XO7D7CSAB2ckDkCdgMAmXP898nQW4YR9gzQQG2Yh14NRYNQBgs/KwCDWEjlD239brfrjilvYBdzGOHkgg6cwJ+gYc+RjrXVjsiB5X82onNFqwuxARr2vDNaNqvP+1nIiGU9H3G61kJeX2Y5e+4c3Tx6PJ06fcZUPjxDHuSNY+rPssM3I4+FNvSzkCdqluEjRlKmKFMrUZmEyRAICKRhX4AwrG3f6l+riu2yThRUCQAUSZ6kpDw0ZKgW4xD6WPRlviS/KgAYbfVTRQybytS60jnsVde3q7bPKI/O/4phk6hJ39F01UMLfKMEOIkPQjkjPoAGgp9JJAcwrAv6ilMzDXVZZpGYPQP1a5+bxt5YwHKZaBk3bd1BT06dbZoNz5BHF0F2tAFtcZlacn0rOEUaeWGyvoeqXDA/d+rcVZWNaXmnOjjTCiM8yJjhIhpYp2qEHO4/0hEvwUzq/gNuiGkTJzM+fB9KaeYIzz175Pp/psWWtuJ8ajvuMIOabQdSlhw5LVYZezZMAWA06iUZnX+1Vn0DYhQuX9s3SoDu+f9gnIF7/W5YvaVMsPOZuW7X5WerOFVUriUGBjmyZaDd75Wn6aOK0v398lP3Fvp+w2ZTATD945kugsyQHW1AW9Aml6ky14d3V9uk3i58X9mPY9ittyuv1zeRL3DbyQ4uUr3hnhXIkZ2K5NTn5BiujljuIU5CrVpmrzcWTuHz5syZk/pe1y/8w9juYklgi9iKuJPb9f9Ki82C56QSZcqSjep0vFmJR7TCCCecv6R3JrHQzt+Q1w9KgK4AQEabwh2xugB+BhroX+0pJSN8WWD2x/4BrtLxk+dpz8GzyXU+f2dhyp+kZ8VuuKkA3aZ/yAqZDUJb0CYPCIMIvEP4eoRSuHcemifiNfaT794DBiTnSEdAIF3SFUrMQYV4GalfqFLlKloCAEVqzyB2BtS0ZbBynxZJTrvP/KgAYEhtNiKz3M6KjbpSQh6E93aWnBzlRpLcrPM3ynitBBRgxQge+04SlLxqrbVMy7dmOYOH2TX4Gh2HlXlkR5q4cv2JZL4F82SiSXf816EmP7B5EjoVoNv0D1khs0HBbTHuuXiEhriUU7CzH0b+sDIq0dXXXEsI/uMk6QgIpEs+KAAJWTJTzqyYofWe3FglUahwYerQsZOOxsLipEeL1yHNBR5+VACasmzKoy54irtBnigA7FjX5uZnyDD7m7UTSkDvsYsoW6L7/VjRSg3MxNJ6Hz4esDYoEr7iV17gUYmPH3LSYlq4wDPmw8p1/ykAKNyrdS7q0VLZYp0sB8z9P2zYQmt/2kYTZ7yVfF/1pHPTnAFZg/l8tc7ZLWeD6zI5x/fkY05GtJh2fK7Ui8H83Pe6602q03u7Lu9b7wcqkpgQEMMvVgCVDYBiwfPqvloGGbBGNY6lXjfy+lEB6KbacMT8L165oSobS+V1bA1sqaILmTDyx26GNa4YYKlYwTI1qOeYd1x3DHTSATC44bkKXkylajQPvmX3HBo6PJw+5+S86SiKlKs2pFQAkH3yyEJapwKGPjiBbhz1DCH4jw6C6X/qPaktFV9vOKmDvSoPeFNCCYBvgPKQrkXLVlS8+MWqMlkq7xc/gIKJ2QPyFrpwtCS8g5ncsABAfOzvoLq50wUYfDcN4EcFoIPqbyZgFnZg+Vk4ufIULk05cisbLMKxTnUvmtk/VYELN7yYDnBLAUATKze7yqzpsdxvz5k/4QRN3XNav+0kHTmect4cZvXJI1N3sHaFxVSATq9/yBZs+odcaAPa4hOCYvcpJ7xrJerWvYdS+VgKu9XRRZPJGPljKsBrciIAkFmbsByzT59rzB7Hcl+5b4ulMit5/aYAlGGhS1oR3DQPv6xKjZSNCKbsUz3g+opUcMFEx/VYMfunku/CDTenA/4NAFTWTBTt97HfQOas/45OFJjDvu75yN+Q/xz3/d9sTG0FuKqV3qkAoz7VI0z/kC2UvmZLBtriI4IGlVrQGAREuN82l7eNoYRaVow+8+VzZ5ARSdLCOS9MAfhAAYBVBB2zW9SpS1cd9ZVmedX6N80N9psCoLzWuki52gSzsJvk9GgXI/8rhz1v2exv1na3pgMCeLj4zwlnwzL1jCl8s9bH3/1VQY6AwdJjKqCAplUBwXztnkOWcKZ/8IMCkNboirbtHPc+D8YMHV3t2nWCb3lyXjDhwhSAD1YC1Klb11UMSpQoSZdUq6ajTuU+TocQBo80pwDA+99tctQP4MLI/5JWWkxQ5IYlwAvHyHJpUAEw854PrArQOBWg+v8ymZf8hZr+DZ5fhTgzGvfj+XhFW/dG/wZOfggIVOSCBaDwBWdAQzYvjm45AAa3rUMH5cVpYCcKQDCoIefNQ65jvtS19WwsFTsVEEjXyD+0LU5bApy2iIS2B9ela7fWsRogHGtb9/p1q0rZsv63FM4OE1gA/vknfEm/TAVgZUJPk9UJkF3VAgAMgaVfCCF/mzVzP6aLHxwBEQgI5LUTIFZg1KgRLrSDs7+SNldcoaOC5jqY6OLhJwtAKW5USZWG5cxXjLACwG0KBAQqoTcgkOHtr2vkH4qJU46BgQBAFdw1z6Ft8DvwQvEIxTVjxovoybub0suPtKHaVdX8CQ/+dY5+/u10aBXJ115PBcD0DxnMCLKjDSoEDIHl43c2oQwcitZrwsgzd1KS62Ig4h06Pq8IYYDzJysA3joBuhEAKBzOFStWImz7rEjwc3N3jjqCwH5SAGpFkNPSo5I1m1vK50QmndMATnf+RvudUAIKlKxKUIi8oJI13B+ZBbczIXtmentSJxreD0EEiS6tWST4sa1zMz8AMPN6KmBSGK//4EZGkj04X6RzA8M7BtSht57ryCGF1awqkeqy8qxJU28suAkJCYSOzyvC6B9KAMjrVQBerYqAL4am96/c1+n6HfhJAVD2sChZvbkuXGLmo2ve263O32igbiXAy1F4MZdiPxjYBR+Tcmal91/uSu2bl06+3aCGugIQGhAomfmFE6+mAmD6D+f1HyxfNNmD85qdB2PYsWUZWsIY52asvaL6DRp6VTV51fGhwcGdvrEc0CsgvJwOadK0uY5mK/d1OoQADz8pANVVG6VzFB6rLFrq1uzwZ7UNOh0D3YoAGK5teAdebM5UMF8O+uTVHnRZ7aIpxGqowQKwcv3xFDzDXUyJ4IQXLr/qPQT8mXRHdFOojgiADWqkjHvQuE4x+nhGdyqQV3nZZ8wwZM6c2VNvfC87vmDHP4QDTuTkFdXjaRivSJMSJgpAmBdohOkM8yj6LYS7TSpUKnpGh3KoBgRyyuHPanN1OQZ6aQHA1EOBUu46jKEj+nhmD6pRCYHmUlLRgglUsqjSknPasP1UqoBAKWvhuNncIT9noUMOLWf3GgF/CuWNbIpHAKCNv5yyW0WgHLArVigxFY9aVQqyEtCD8iVlS/XMyRvVqlWn7NndVzyMNnkZEthYAmjIEqwQGPfcOCIAUMlSpdyoKmwdiMmQK3fusM9iuCkKQAhY+K8qF3IvpssiHPeeIzXEVEZrZq67iF3nN49G/qHtV7UE/BsACD4u3lHB0sqGJMvCwxS9eGpXqlI2r2mZ0BGsaUaTB2YBgUKzwxxv5o0fmlfl2izgTyhPHQGAIllQqpbPRx9N7055crk3HVD1Em+/26VKl/YsIFDhkG2AvVoJ4HYAoNDfNfwAqlfHXmFKBE91d7VXE3H9MgVQnuVTcnHFCNZrsuMH4PXIPxQzFUtAYPTvpRLGjYETohsEh7/FU7tE9fSP1IlZldPqXPokhwMERQr4E9oWHQ6A0ZQnWF0WTOnsmmNgpUqVQ5vp6rXdgEBYuqhKofP+wT4BdnhnyJCBV3XE3v24HQAoXNs0KAB4IUoD3nBy2bkX+xuwU0v0MsrLIvIU8x7PWP0AAg5/tz5PTi31iw57+Bx2LQFezv8bLXFjCgDL0V59si1Z6dwNL3ZDPjtHs4BAobycXhUQKeBPqCw6AgBdViulT0VoHbiG38XMJ9q6skSwchXvvPCNttepF1vY8Vy5ctGo0WOM4raPRhhgg4GqAgBl5smnx8esBHgRAMhos3HUtDFQcYOfl0e/KADR/9OjoJSniHux581EQUAgq1vTJnv7t7zajJ2n9+1YAoranQLR2NK8xWBMcpYeG9mYOrey9nurUbmAckAgmNPNAgKFthTTAJeU0W8WB88eLaz5M0DWcPsYhMoa6RoBgKpXshb/vmubcjRuRONI7LQ8K1PW+0FG7TrWY2xgrnr2vLcJYWxVKdQHINQiECv/c+fOBfZTePqZiZaVAK8CAIW2raye30GxUL5eXPtFAVAGI09Rax9kJ0EOOKFZMEEnd/6awvs61aZYlgh6FQAotO0JeQtTxkxKW72HskxxPbDHJTSiv/W47FkyZ4w6TZCigjAX0QICGUXQ8Q6fuJfWs+OgbgJP8LaiiOgKAATsrNLIgXWof3fnpn+yZs1KBQqkdvS0Kp+ufFYDAgU6/7lvUc2atWj//n3K1YeO+HU4AUKuXn2uJqtKgFcBgELBK11GS1+j3OeFymXnOk0oAJmyZKeEJLWoa3bAC1cm2jRAvHT+RtusKgFeBgAyZMUR+ObM78z/FqLSTRzVPLg6S+dapgGixNQ3Ov+Jcw5ZkslOJvC2ogRY9VmIJIMdzJ57oAXVrOzMd6BY8eI6doOL1GRLz6wEBAru/MF03z4NCkDIBkA6nAD3X5AroASMfzaqJcDLVRDBLwfRAKEQKpIzH6kYhUoTCkBCkveauYF7JEfAeOv8jTZZUQK8XP5nyGkccxUsYZxqO8LbfM6EDrbM+VZ8BaIJGsmpzo3O35DPihIQSVaDT7SjHcwwbTBnQntCUCbdVLy4spuSNpEirUUP7fxR6YH9+5XqDg4DbDAKtQgY92M5BlsmevXuQ09HUQJimf6IRQ47efPnV+5zRAEIAt58HVVQJrPTHD4Z/UM+s44wXjt/A/NoSkA0y4fBx41jjlzW5o5jkeXlcZdT6eLW5sBD+QZHswt9ZvXaLCCQm52/IWs0JcBMVqO8laNdzMqWyE1Tx7axUkVMebD+3C9kFhAoXOcPmYM7WjttwB4ARhhgo7weBSClYhJNCfCLBQAYaJgO8sUPyi8WgBzGD8vO0S/mf8iep0gZypE7ZQcU6Px96O0fK9ZQAnqPXUQIuhRKflgBYMiUNUE5UIfBKnDEbnRWnf5SFLxwoSMgEObg/z52PhX7e6fsIyfN/qkqvHDDTAlAACAEL1KhUsVyETCzS90uL0fXdKpkt3jYckkebAAUVhC+Ga4jhLf/m3PmB+b8Q8upTgEUTkz9edbhAxDOMgElYPKUF1NtfAQFDHEQ/EL51f1BJA5A0MtUAiNLjpxBrDw+5eUtwQGBkjt/n3r7x4oWVgf0enhhCiUgEACosH/+ObMl6tutDZHosLufKtkxaQfXeZ77/m83nQi+Rfc8v48ef+1gintuXkAJGBHiGOh0ACCr7Xt2VAu6uLC+70Ju9ehvVkWPmi80IFCg82eHPzgIhqNwHW24fGb3wnX2OTJnUg4HbGaZ6NylG016/oUUSoDXAYBCsUlMVP5teRdSMqgxfrEAKCkAGTPrn/MLwijmU8MPINnsn0Y6fwOI0CWCfggAZMiG4z/n1bagDeb1EpuTdUSbixbUJrhOs3PDuS5g9p+w19PO35BxQogSoGP+v371lPH/jbpiOSJK4/MPtYylSMS8Z86cifjczYfBAYECZv95b5t2/pDrwIGUpvZYZQ1dAmiUD6cYGM+sHCNZJqAEPBW0RNAPAYCC25Q1m3Kfk9qsElyBS+d+UQCUwMjkNwWAN6VJHvn7fKmf3d9Z8HSAn8z/586cog3LZtttVopyPdqWp8sbq6+hBlM7Xu0phOELIyAQzP7oeP1CwUqAWwGArLT9yqalqUtrPWv35855k06dUpvasCKz1TwICBTJ7G/wOX78OB09etS4tHUMDQNsMFFdCbA/inNi8HSAHwIAGe3GMVtWpTErWPjCApAJkviAlNB0ct23HWwQEKgt5vzT2Mg/FAvDEvAP8QJ0n9DGZXPo2OG9ytIk5shMT93dTJmPwQABgbLzXvYnTp41bsV8hHl9OI/8/dT5G40wZFINAASMrAYAMuqOdHzmvma0dMUOOnZCbQR/4MABevfttwLr1iPV59Yz7EvftFnzsHP+wTKYmdmD80Q7LxiyBNDIr+oIeMBCfAJYAk6dOk01atQ0qvXFUcMyQF8oAH6xAFiP+BHm9V+UUal4GI5qtxAQKK13/gZCsAQUYYXHF8S28e8WTtYiyn03N6DihVPvRGeXOYLaYBc7FUJAIKOjVeHjVFnIBhlVCBjFEgAoWl0liuSke26sFy2bpedTX5zCgZD8oexivh9BfqKR6vw/+Jt19Gb3o8lkPD948CCdh3NLFLqqV29C/AM/EaISKpIyA8X6A8X9ogDoaIvwSOcI/LL6Uzqwc5MyCnD8G9ZX/4hDxzSAcuN8zsAJjG67npXUAuodyKZNG2n5l1/4HMGU4kUzs6fMHf4q3CoA5NQRDvjQIf9MZYVvfdq+KwpA2n6/6ap16z6aqaW9DwxtGDDXa2EWxER1JUAQqzR7emmtItrbloOnFe5ni44OemPW6zrYuMZj3z716TAzZz+z+7E0TscURSz1Sd6UCIgCkBIPuYpTBE78fZC2frNEWfryJZOoX7cqynzCMbAb3CYcLx33mtUvTkh+ovrV9SsAaN/AnpdQuRLqy0PfX7KY/vzzsJ8giygLfBdUyWwVgKoTIOQywgGryijl7SEgCoA93KSUzxCA89+5s6eVpbpzUD3KlNGZfwsdAYGUG3iBQeM6xWjBlM703otdqEVDf4S5VQ0AFAmbzJky0B28YZAqnT59it556y1VNq6VV+1gw4UBNoRX9QEAH7EAGGh6c3TmS+dNW6TWdIzAuk/UTbOYJ76mYyVHUfTDNABG/Ytf6kJY6QDz+LvPd/KFJcBpC8m1nStToXxKK44Dv40335zl6G9EJ3PVDjZcGGBDPj0KgFqMAkMWOdpDQBQAe7hJKR8hcGj3Ftr/63pliW69vhZlzeKsc67XCoAx8k/InjkZL5z7wRLgxPx/ciP5BJsFDdXg3Ll+3VratnVrMGvfnkcKtmNFaDMHQJTV4QOgY5WClXZInvAIiAIQHhe5G0cI/PzVu8rSYv35DT2rKfOJxqBhDfUod9HqMHsePPIPzeMHS0ADDREAQ9sVen1j7+palLz3lywKZe3La/UogOYWEyfDAfsSzDQolCgAafClprcmbV6xQLnJ3S8vryXkbzRBavI6d3S2blO4kX+oDF5aAqCAIViS05QvKZuW6IBLFseHArBvr9oqgCI5Iy+fVJ0GULVQOP17Sev8RQFI6284jbfvr707aN8va5VbCS9xNwjOaLWqqgUEilVOdP6Lpv475x+tLJQTOAe67RhYp2ohrQGAIrXzBg3ves2a1bRr12+RqvH8GcIAI6lQNE//SFMEVurVEafASj2SJzwCogCEx0XuxgkC2779QFlSLP1DJ+kWORHsxkz2SGZ/szJeTAc0rOne1EjzBhdT2RJqW0YjIuAnHy81g9AX91UdANEIszDARgNVLQBWwgEbdclRPwKiAOjHVDi6iMCOtcuUa7uqXQXevEmZjWUGTnu7G4JYMfsbeUOPbk8HuOkciXfd44oKoU2O+drvUQFVlwACkGgjfFUFAOGAz51TCx8d84uTAskIiAKQDIWcxBsC2PZ314YVymLr6AxiEcKNzi4Ws7+Z7G5OBzgVAMisbd2vKG/2yPL95cu/9HXnpcO8Hq2D1xEO+PDh+AmsZPnHEScZRQGIkxclYqZGYM/WH+nk0T9TP4jhDsz/1Srmj6GEelbEGyhZNJc6IxMOOjp/g7UbSoCTAYCMdoQea7Mfhuo0wF9//knr160LZe2bax1TANGW+kV7bgUMHXJaqUfypEZAFIDUmMidOEFg57ovlSXt0KKMMg87DJyyAtiZ848mv9M+AW5NiYS2s12z0qG3Yr5esUL9NxhzpRYLOBkG2BAhmpOgkS/SUWIBRELH2WeiADiLr3B3EIE/fv5OmXurS0so87DDwAkFQGXOP1obnPQJcDoAkFnbWl9W0uyR5ftrVv9oOa/bGVV9ACKFATbaEm2KwMgX6ahjw6JI/OWZOQKiAJhjI098jgCmAFQI+843ruue93+wrLpXAug0+wfLGXzu1HSAbiyCZY503rReMcKyTBVas3q1SnFHy6p2rAVyZCcoAZFIhwKgw1chkozyzBwBtV+/OV95Igg4isDxv/bTkQO7lOpowFH5EA/fC0LQGwS/0UFOmP3N5NI9HQAMqldyPgBQuPbkTMhC9RUjM+7cuYMOHToYjr3n91SnAKItAUQDVZ0AwUOmAICCNyQKgDe4S62KCKiO/lG9VyNP1I2RJxzRVAmd/8IXOhNM9G4R6kKdqFuVgIHqKFxFBh2/gbVr1qiI4FhZVec6K6P7hCyZKZGTCqnKqVJ3ei8rCkB6/wXEafsP7NioLHk9F2LPRxJStfNpVKdoIGqfm52/0R5dPgGX1SxqsPTkiAiEqrR580+qLBwpr+oDEC0GgCG0FUXByBvuKFMA4VBx554oAO7gLLVoRuDw79uUOdatpv7xVxFCxREQnf/iqV09m8JAu3X4BDSsVUQFQuWydaupRyD8Zft2ZTl0M0AI4GPHjimxtdqxW1UUzISR/QDMkHH+vigAzmMsNTiAwOE/1BSA/Hmy08WFczogmXWWdpe/wfS+5CVvO3+jlao+AfU9tsKULp5LeROo7dv8tzWw6i6AeL9WFQCr+YzfTOhRwgGHIuLetSgA7mEtNWlEQNUCUL5UkkZp7LFCQCAEwYmFvDT7m8lpdzoAnS8w8JrKl8qjJMJ2H1oAVM3/AMTqyF5VAZBwwEo/P6XCogAowSeFvUDgzKkTdPTwHqWqy5dU++grVR5UOJZpAD+N/IOaEDi1YwmwawEJrVv1uoKiAvDHH7/TqVOnVMXQWl7HvLqVVQAQWnUlAPYCkHDAWl+/ZWaiAFiGSjL6BYFjh3mPc96NTYX8YAGA/FY7QT+O/EPxj9USEIvyE1qXzutyitYg7AzoN0921RgAwLdwzhyWYJZwwJZg8mUmUQB8+VpEqEgInPj7QKTHlp7Fanq3xNRGJisrAfw88g9tciyWgIY1vHUANGQvXUxta2DwUV1zb8ii66hDHssWgMTsymJLLABlCG0xEAXAFmxSyEsEAhYARQEK5/d+7hlNQEAgdJpmFA8j/1DZrVgC/g0A5O4mTKFyGteF8lsb6Rr5wx39ZgFQ9QFABEBEArRCqj4AqEOHxcKKrJInJQKiAKTEQ67iAAFEAVSlgvnUP/qqMqA8guDUMgkI5IelfnbbCKVmwZTO1KLhxWFZYP09QjH7gQrmtdbRRZL14H51q1Qk/rE+U+1Q81sIA2zIpEMB0OGzYMgjR+sIiAJgHSvJ6RMETh77S1mSAho++spCXGAQbhognsz+ZjhEmg5oWFN9/b1ZvbHeL6jBAvDnX2rbUscqc7T8qlMAsTj2xZLXTG6ZAjBDxtn7ogA4i69wdwCBc6dPKnPNnTOrMg9dDEKd4eLR7G+Ghdl0wKW1vI0AGCxv7kT138Lp06eDWXp+rjoFYNUBEA2VcMCev27bAogCYBs6KegVAmfPqH1sL+INzvxifgaGwZ1hPJv9zX4P4aYDsBGTXyhrFvWpiNO+Wwa4TwneWEf1qtMAMgWg9LpsFxYFwDZ0UtArBM6dVVtzjc4fSoBfqBD7I2BVQlrs/A2Mg5UABADyixMm5MvADm+qCuFJHykAboYBNt6v1aBBRv7Qo4QDDkXEnWtz92N36pdaBIGYETh3Rk0B0DHii1noKAVGDqxL13ap7OquflFE0v7Y8Al47d1N2nmrMsyWNSOdPnPONptTp9SnpWxXHlJQRxhgq0sAjapVLQASDthA0t2jKADu4i21aUDgn/NqQYCwxMlvdFOf6n4TyRF54BPgx7aq/ibOczQ7v5Dq/D/aEYsPAPKrKgAIB3z+/Hm2xohRGni6RYK2W0hLPYKAICAIuICADnN6rCb9WH0GQmFAOOBDhw6F3pZrhxEQBcBhgIW9ICAICAJuIqAjKFGsI/pY84fDQ4fc4fjKPXMERAEwx0aeCAKCgCAQdwjo8KiPdUQfq8UgHKgSCyAcKs7eEwXAWXyFuyAgCAgCriKg2pHCHwKRAGMhsQDEgpZ/8ooC4J93IZIIAoKAIKCMgKopPZYwwIawOhQAHb4LhjxytIaAKADWcJJcgoAgIAjEBQKqHWms5n+AomNLYFXLRVy8HJ8JKQqAz16IiCMICAKCgAoCqh2pndF8jsyZKDFLZhWxSdVyoVR5Oi0sCkA6ffHSbEFAEEibCKh2pHYd+uwoDsFvQIfzYjA/OY+OgCgA0TGSHIKAICAIxAUCXoQBNoCxqzgY5UUBMJBw7ygKgHtYS02CgCAgCDiKgOroH8LZHcnbLWcAsn/fXuNUji4hIAqAS0BLNYKAICAIOI2A6vw/5LPbkdstZ2BihAM2ruXoPAKiADiPsdQgCAgCgoArCOgwo9tZBYDG2S1nAINwwIcPSzhgAw83jqIAuIGy1CEICAKCgAsI7NNgRo91IyCjWaoWAPBRXcJoyCJHawiIAmANJ8klCAgCgoDvEfDSAqDqBAhwdUxh+P4l+UhAUQB89DJEFEFAEBAEVBBQ7UAzXHQR5cuRzZYIOiwAOpwYbQmfTgtl4na/6IO2K0WQ+PXHT+mj47f5oBkighsI7N60Sqma4yfP0s0PfqLEQwqnLQTwm1Chr1asoLtGjlBhoaXs8uVfKPHJlCEDDV20zBaPP0+eslUuuNDMGdNp1cqVwbd8ef7999+pyoU+z/O+9yIW4h/Vlkh5QUAQEAQEAUFAEIgvBGQKIL7el0grCAgCgoAgIAhoQUAUAC0wChNBQBAQBAQBQSC+EBAFIL7el0grCAgCgoAgIAhoQUAUAC0wChNBQBAQBAQBQSC+EBAFIL7el0grCAgCgoAgIAhoQUAUAC0wChNBQBAQBAQBQSC+EBAFIL7el0grCAgCgoAgIAhoQUAUAC0wChNBQBAQBAQBQSC+EBAFIL7el0grCAgCgoAgIAhoQUAUAC0wChNBQBAQBAQBQSC+EBAFIL7el0grCAgCgoAgIAhoQUAUAC0wChNBQBAQBAQBQSC+EBAFIL7el0grCAgCgoAgIAhoQUAUAC0wChNBQBAQBAQBQSC+EMjE4h6OL5FFWkFAEBAEBAFBQBAQBAQBQUAQEAQEAUFAEBAEBAFBQBAQBAQBQUAQEAQEAUFAEBAEBAFBQBAQBAQBQUAQEAQEAUFAEBAEBAFBQBAQBAQBQUAQEAQEAUFAEBAEBAFBQBAQBAQBQUAQEAQEAUFAEBAEBAFBQBAQBAQBQUAQEAQEAUFAEBAEBAFBQBAQBAQBQUAQEAQEAUFAEBAEBAFBQBAQBAQBQUAQEAQEAUFAEBAEBAFBQBAQBAQBQUAQEAQEAUFAEBAEBAFBQBAQBAQBQUAQEAQEAUFAEBAEBAFBQBAQBAQBQUAQEAQEAUFAEBAEBAFBQBAQBAQBQUAQEAQEAUFAEBAEBAFBQBAQBAQBQUAQEAQEAUFAEBAEBAFBQBAQBAQBQUAQEAQEAUFAEBAEBAFBQBAQBAQBQUAQEAQEAUFAEBAEBAFBQBAQBAQBQUAQEAQEAUFAEBAEBAFBQBAQBAQBQUAQEAQEAUFAEBAEBAFBQBAQBAQBQUAQEAQEAUFAEBAEBAFBQBAQBAQBQUAQEAQEAUFAEBAEBAFBQBAQBAQBQUAQEAQEAUFAEBAEBAFBQBAQBAQBQUAQEAQEAUFAEBAEBAFBQBAQBAQBQUAQEAQEAUFAEBAEBAFBQBAQBAQBQUAQEAQEAUFAEBAEBAFBQBAQBAQBQUAQEAQEAUFAEBAEBAFBQBAQBAQBQUAQEAQEAUFAEBAEBAFBQBAQBAQBQUAQEAQEAUFAEBAEBAFBQBAQBAQBQUAQEAQEAUFAEBAEBAFBQBAQBAQBQUAQEAQEAUFAEBAEBAFBQBAQBAQBQUAQEAQEAUFAEBAEBAFBQBAQBAQBQUAQEAQEAUFAEBAEBAFBQBAQBAQBQUAQEAQEAUFAEBAEBAFBQBAQBAQBQUAQEAQEAUFAEBAEBAFBQBAQBAQBQUAQEAQEAUFAEBAEBAFBQBAQBAQBQUAQEAQEAUFAEBAEBAFBQBAQBAQBQUAQEAQEAUFAEBAEBAFBQBAQBAQBQUAQEAQEAUFAEBAEBAFBQBAQBAQBQUAQEAQEAUFAEBAEBAFBQBAQBAQBQUAQEAQEAUFAEBAEBAFBQBAQBAQBQUAQEAQEAUFAEBAEBAFBQBAQBAQBQUAQEAQEAUFAEBAEBAFBQBAQBAQBQUAQEAQEAUFAEBAEBAFBQBAQBAQBQUAQEAQEAUHxSGQvAAAANUlEQVRAEBAEBAFBQBAQBAQBQUAQEAQEAUFAEBAEBAFBQBAQBAQBQUAQEAQEAUFAEHAPgf8DtrVe9FOz2voAAAAASUVORK5CYII=;fontStyle=1" vertex="1" parent="1">
          <mxGeometry x="1082" y="252.99692307692308" width="78" height="78" as="geometry" />
        </mxCell>
      </root>
    </mxGraphModel>
  </diagram>
</mxfile>
